<svg width="73" height="18" viewBox="0 0 73 18" fill="none" xmlns="http://www.w3.org/2000/svg">
<path d="M41.2496 7.78069L40.773 6.67019C42.6874 6.5666 43.7813 6.00721 44.0963 5.39395H41.2454V4.26273H49.2137V5.39395H46.3338C46.6405 6.0155 47.7137 6.5666 49.6653 6.67019L49.1929 7.78069C47.1377 7.6398 45.7661 6.98511 45.2192 6.02793C44.6722 6.98096 43.3007 7.6398 41.2496 7.78069ZM45.9526 7.17986V8.1619H50.1045V9.35113H40.3504V8.1619H44.4692V7.17986H45.9526ZM44.4609 9.65362H45.9609V10.4451H49.1847V11.5597H41.2371V10.4451H44.4609V9.65362ZM45.1985 11.8705C47.2661 11.8746 48.4885 12.3677 48.4927 13.2835C48.4885 14.2116 47.2661 14.7006 45.1985 14.7006C43.1101 14.7006 41.9291 14.2116 41.9291 13.2835C41.9291 12.3677 43.1101 11.8746 45.1985 11.8705ZM45.1985 13.7102C46.3628 13.7185 46.9264 13.5777 46.9305 13.2835C46.9264 12.9768 46.3628 12.8691 45.1985 12.8649C44.059 12.8691 43.4664 12.9768 43.4706 13.2835C43.4664 13.5777 44.059 13.7185 45.1985 13.7102ZM59.6255 8.02102H61.2001V9.26826H59.6255V14.6674H58.1297V3.9934H59.6255V8.02102ZM54.0813 4.74754C55.7098 4.74754 56.8866 6.22268 56.8949 8.54312C56.8866 10.8884 55.7098 12.3553 54.0813 12.3553C52.4487 12.3553 51.2595 10.8884 51.2678 8.54312C51.2595 6.22268 52.4487 4.74754 54.0813 4.74754ZM54.0813 11.0003C54.9183 11.0003 55.457 10.1384 55.4612 8.54312C55.457 6.96439 54.9183 6.09837 54.0813 6.09837C53.265 6.09837 52.7098 6.96439 52.7139 8.54312C52.7098 10.1384 53.265 11.0003 54.0813 11.0003ZM69.652 9.55417V12.1978H71.8192V13.416H62.065V12.1978H64.2404V9.57903C63.4158 9.08179 62.9186 8.32351 62.9227 7.3829C62.9186 5.65914 64.6092 4.51964 66.9214 4.51964C69.2335 4.51964 70.9407 5.65914 70.9407 7.3829C70.9407 8.31108 70.4559 9.05693 69.652 9.55417ZM66.9214 5.70058C65.3965 5.69229 64.3937 6.31384 64.3937 7.3829C64.3937 8.43124 65.3965 9.07351 66.9214 9.07765C68.4338 9.07351 69.4614 8.43124 69.4656 7.3829C69.4614 6.31384 68.4338 5.69229 66.9214 5.70058ZM65.7197 10.1218V12.1978H68.1396V10.1218C67.7584 10.1923 67.3523 10.2337 66.9214 10.2337C66.4987 10.2337 66.0968 10.1964 65.7197 10.1218Z" fill="#989FA9"/>
<path d="M7.15149 7.97544V6.76964H8.89596V4.00997H10.3877V11.7959H8.89596V7.97544H7.15149ZM4.68187 8.2655C4.2095 9.33041 3.36005 10.1881 2.10452 10.6067L1.33795 9.39671C3.099 8.84146 3.89872 7.4492 3.90287 6.08594V5.92433H1.76475V4.72682H7.54928V5.92433H5.42359V6.09422C5.42359 7.33317 6.18187 8.655 7.87662 9.2061L7.13906 10.3912C5.95812 10.0058 5.14596 9.22682 4.68187 8.2655ZM4.80204 11.1163V13.2752H10.6404V14.481H3.31033V11.1163H4.80204ZM20.0537 14.6674V3.9934H21.4667V14.6674H20.0537ZM16.631 8.04588H17.8866V4.17157H19.2871V14.1702H17.8866V9.26411H16.631V8.04588ZM15.5785 7.00168V7.24616C15.5744 8.86632 16.1587 10.4823 17.6752 11.2986L16.8548 12.3926C15.8893 11.8995 15.2553 11.0376 14.8824 9.99754C14.5095 11.1246 13.8755 12.0859 12.9059 12.6495L12.0482 11.5265C13.5896 10.6315 14.1614 8.89533 14.1697 7.24616V7.00168H12.4501V5.80417H14.1697V4.36632H15.5661V5.80417H17.2567V7.00168H15.5785Z" fill="#EC635A"/>
<path d="M30.4407 4.07212H31.9324V14.6136H30.4407V4.07212Z" fill="#DBDBDD"/>
</svg>
