<svg width="76" height="26" viewBox="0 0 76 26" fill="none" xmlns="http://www.w3.org/2000/svg">
<rect x="0.5" y="0.723145" width="75" height="24" rx="12" stroke="#DBDBDD"/>
<path d="M40.8818 10.0454V14.8208H39.6416V11.0513H35.208V10.0454H40.8818ZM48.5283 12.5356V13.688H45.3057V12.5356H48.5283ZM58.7822 10.3579V11.3833H52.8545V10.3579H55.2178V9.26416H56.458V10.3579H58.7822ZM53.499 13.5708C53.499 12.5649 54.4805 11.8374 55.8232 11.8423C57.1758 11.8374 58.1621 12.5649 58.167 13.5708C58.1621 14.5864 57.1758 15.3042 55.8232 15.3091C54.4805 15.3042 53.499 14.5864 53.499 13.5708ZM54.7783 13.5708C54.7734 14.0249 55.2227 14.2642 55.8232 14.2739C56.4336 14.2642 56.8828 14.0249 56.8877 13.5708C56.8828 13.1265 56.4336 12.8823 55.8232 12.8872C55.2227 12.8823 54.7734 13.1265 54.7783 13.5708Z" fill="black"/>
<path d="M15.5205 10.5795H26.1221M26.1221 10.5795L22.8008 7.6748M26.1221 10.5795L22.8008 13.4526" stroke="#989FA9" stroke-linecap="round"/>
<path d="M26.1221 16.0375H15.5205M15.5205 16.0375L18.8418 13.1328M15.5205 16.0375L18.8418 18.9106" stroke="#989FA9" stroke-linecap="round"/>
</svg>
