<svg width="14" height="12" viewBox="0 0 14 12" fill="none" xmlns="http://www.w3.org/2000/svg">
<path d="M4.66156 1.02665C5.39688 1.39029 6.19348 2.34102 6.49986 2.64405C6.95943 2.34104 7.69476 1.39029 8.79774 1.02665C9.90071 0.663013 11.0425 1.08621 11.5552 1.48127C12.2154 1.98999 12.4014 2.70597 12.4538 3.06899C12.4757 3.22119 12.4943 3.37442 12.51 3.52738C12.5659 4.07054 12.5441 5.50318 11.0956 6.93582L8.79773 9.00768L6.49986 10.8259L2.36369 7.39036C0.984965 6.28041 0.525391 5.25331 0.525391 3.754C0.525391 2.39036 1.59773 1.32971 2.36369 1.02665C2.82326 0.875134 3.92624 0.663013 4.66156 1.02665Z" fill="#F0F1F5" stroke="#F0F1F5" stroke-linecap="round"/>
</svg>
