<svg width="36" height="37" viewBox="0 0 36 37" fill="none" xmlns="http://www.w3.org/2000/svg">
<path d="M15.0783 11.7445C16.12 12.2536 17.2485 13.5846 17.6826 14.0088C18.3336 13.5846 19.3754 12.2536 20.9379 11.7445C22.5005 11.2354 24.1179 11.8279 24.8443 12.3809C25.8385 13.138 26.0736 14.2229 26.1292 14.6937C26.1474 14.8482 26.1664 15.0016 26.1865 15.1558C26.2752 15.8363 26.332 17.9268 24.1932 20.0173L20.9379 22.9179L17.6826 25.4634L11.823 20.6537C9.86981 19.0997 9.21875 17.6618 9.21875 15.5628C9.21875 13.6537 10.7379 12.1688 11.823 11.7445C12.4741 11.5324 14.0366 11.2354 15.0783 11.7445Z" stroke="#989FA9" stroke-width="2" stroke-linecap="round"/>
</svg>
