<svg width="48" height="47" viewBox="0 0 48 47" fill="none" xmlns="http://www.w3.org/2000/svg">
<rect x="17" y="29" width="3" height="5" rx="1" stroke="black" stroke-linejoin="round"/>
<path d="M29.638 32.9688C29.5143 33.0937 29.1986 33.2706 28.8377 33.4479C28.0315 33.844 27.1333 34 26.235 34H23C22.4477 34 22 33.5523 22 33V31.7098V30.1599C22 29.7201 22.3039 29.3604 22.683 29.1375C22.7419 29.1029 22.7924 29.0671 22.8279 29.0312C23.0345 28.8227 23.1684 28.6875 23.1684 28.6875C23.1684 28.6875 23.1684 28.6875 23.1684 28.6875V28.6875C23.3949 28.4589 23.5885 28.17 23.889 28.0549C23.9748 28.022 24.0751 28 24.19 28C24.644 28 25.6201 28 25.8925 28C26.1649 28 26.46 28.2292 26.5735 28.3437C26.687 28.4583 26.914 28.7562 26.914 29.0312C26.914 29.3062 26.687 29.9382 26.5735 29.9382H24.5305C24.417 29.9382 24.19 30.1965 24.19 30.4715C24.19 30.6577 24.2941 31.1352 24.3966 31.4595C24.4623 31.6673 24.6531 31.7705 24.871 31.7705V31.7705C25.4385 31.7705 26.6416 31.7705 26.914 31.7705C27.1864 31.7705 27.4815 31.5413 27.595 31.4268C27.595 31.4268 27.6631 31.358 27.9355 31.083V31.083C28.161 30.8553 28.3444 30.5903 28.5105 30.3162C28.642 30.0992 28.8031 29.8634 28.957 29.7081C29.2294 29.4331 29.5245 29.3643 29.638 29.3643C29.865 29.3643 30.3871 29.4331 30.6595 29.7081C30.6634 29.712 30.6672 29.7159 30.6709 29.7198C31.0218 30.0824 30.8835 30.6308 30.6595 31.083V31.083C30.4325 31.5413 29.9104 32.6938 29.638 32.9688Z" stroke="black"/>
<rect x="17" y="17" width="14" height="9" stroke="black" stroke-linejoin="round"/>
<rect x="17" y="13" width="14" height="4" stroke="black" stroke-linejoin="round"/>
<path d="M22 20V13H26V20L24 18.4444L22 20Z" fill="#EC635A" stroke="black" stroke-linejoin="round"/>
</svg>
