<svg width="77" height="26" viewBox="0 0 77 26" fill="none" xmlns="http://www.w3.org/2000/svg">
<rect x="1" y="1" width="75" height="24" rx="12" stroke="#DBDBDD"/>
<path d="M41.5381 10.6345V11.6599H35.6104V10.6345H37.9736V9.54077H39.2139V10.6345H41.5381ZM36.2549 13.8474C36.2549 12.8416 37.2363 12.114 38.5791 12.1189C39.9316 12.114 40.918 12.8416 40.9229 13.8474C40.918 14.863 39.9316 15.5808 38.5791 15.5857C37.2363 15.5808 36.2549 14.863 36.2549 13.8474ZM37.5342 13.8474C37.5293 14.3015 37.9785 14.5408 38.5791 14.5505C39.1895 14.5408 39.6387 14.3015 39.6436 13.8474C39.6387 13.4031 39.1895 13.1589 38.5791 13.1638C37.9785 13.1589 37.5293 13.4031 37.5342 13.8474ZM49.0283 12.8123V13.9646H45.8057V12.8123H49.0283ZM59.126 10.322V15.0974H57.8857V11.3279H53.4521V10.322H59.126Z" fill="black"/>
<path d="M16.0205 10.8566H26.6221M26.6221 10.8566L23.3008 7.9519M26.6221 10.8566L23.3008 13.7297" stroke="#989FA9" stroke-linecap="round"/>
<path d="M26.6221 16.3143H16.0205M16.0205 16.3143L19.3418 13.4097M16.0205 16.3143L19.3418 19.1874" stroke="#989FA9" stroke-linecap="round"/>
</svg>
