<svg width="35" height="36" viewBox="0 0 35 36" fill="none" xmlns="http://www.w3.org/2000/svg">
<path d="M14.8596 11.2811C15.9013 11.7902 17.0298 13.1212 17.4638 13.5455C18.1149 13.1212 19.1566 11.7902 20.7192 11.2811C22.2817 10.772 23.8992 11.3645 24.6255 11.9176C25.6197 12.6746 25.8548 13.7595 25.9104 14.2303C25.9287 14.3848 25.9477 14.5382 25.9678 14.6924C26.0564 15.3729 26.1133 17.4634 23.9745 19.5539L20.7191 22.4545L17.4638 25L11.6043 20.1903C9.65106 18.6364 9 17.1984 9 15.0994C9 13.1903 10.5191 11.7054 11.6043 11.2811C12.2553 11.069 13.8179 10.772 14.8596 11.2811Z" fill="#EC635A" stroke="#EC635A" stroke-linecap="round"/>
</svg>
