<svg width="14" height="12" viewBox="0 0 14 12" fill="none" xmlns="http://www.w3.org/2000/svg">
<path d="M5.51703 1.02647C6.25235 1.3901 7.04894 2.34084 7.35533 2.64387C7.8149 2.34086 8.55023 1.3901 9.6532 1.02647C10.7562 0.66283 11.8979 1.08603 12.4107 1.48109C13.0709 1.9898 13.2569 2.70578 13.3092 3.06881C13.3312 3.22101 13.3498 3.37423 13.3655 3.5272C13.4214 4.07036 13.3996 5.503 11.9511 6.93564L9.6532 9.0075L7.35533 10.8257L3.21916 7.39018C1.84043 6.28023 1.38086 5.25313 1.38086 3.75382C1.38086 2.39018 2.4532 1.32952 3.21916 1.02647C3.67873 0.874951 4.78171 0.66283 5.51703 1.02647Z" fill="white" fill-opacity="0.25" stroke="#F0F1F5" stroke-linecap="round"/>
</svg>
