<svg width="48" height="48" viewBox="0 0 48 48" fill="none" xmlns="http://www.w3.org/2000/svg">
<path d="M23.1176 31.5158L21.989 32H13.0275L13 16.0202L14.9419 16.0202L16.4284 16.074C16.7312 16.1009 18.6581 16.074 20.8053 16.4775C21.3283 16.5851 21.8238 16.6927 22.3193 16.8003H23.2055M23.1176 31.5158L24.3563 32H33V16.0202C32.1466 15.9933 31.2382 15.9933 30.2748 16.0202C27.8799 16.1009 25.7327 16.3968 23.8608 16.8003H23.2055M23.1176 31.5158V29.4964M23.2055 16.8003V18.7924" stroke="black" stroke-miterlimit="10" stroke-linecap="round" stroke-linejoin="round"/>
<path d="M35 19H33V24H35V19Z" stroke="black" stroke-miterlimit="10"/>
<path d="M19.0532 28V19.5138H20.9219L23.4454 25.6796H23.5449L26.0725 19.5138H27.9413V28H26.4744V22.1616H26.3957L24.0421 27.9751H22.9482L20.5904 22.1409H20.52V28H19.0532Z" fill="black"/>
</svg>
