<svg width="20" height="20" viewBox="0 0 20 20" fill="none" xmlns="http://www.w3.org/2000/svg">
<path d="M7.35957 3.2811C8.40128 3.79019 9.52979 5.12121 9.96383 5.54545C10.6149 5.12125 11.6566 3.79019 13.2192 3.2811C14.7817 2.772 16.3992 3.36448 17.1255 3.91757C18.1197 4.67462 18.3548 5.75953 18.4104 6.23031C18.4287 6.38477 18.4477 6.53821 18.4678 6.69244C18.5564 7.37295 18.6133 9.46344 16.4745 11.5539L13.2191 14.4545L9.96383 17L4.10426 12.1903C2.15106 10.6364 1.5 9.19842 1.5 7.09939C1.5 5.1903 3.01915 3.70537 4.10426 3.2811C4.75532 3.06897 6.31787 2.772 7.35957 3.2811Z" fill="#EC635A" stroke="#EC635A" stroke-linecap="round"/>
</svg>
