<svg width="19" height="20" viewBox="0 0 19 20" fill="none" xmlns="http://www.w3.org/2000/svg">
<path d="M16.9759 6.03732H12.6021C13.0097 5.83549 13.3882 5.56687 13.7252 5.24027C13.9589 5.00742 14.1471 4.72297 14.2781 4.40476C14.409 4.08655 14.4799 3.74146 14.4863 3.39111C14.4963 3.00286 14.4355 2.61639 14.3075 2.25542C14.1796 1.89445 13.9871 1.56658 13.742 1.29193C13.4969 1.01728 13.2043 0.801632 12.8821 0.658224C12.56 0.514817 12.2151 0.446669 11.8686 0.457962C11.5559 0.465075 11.2479 0.544502 10.964 0.69126C10.68 0.838019 10.4261 1.04894 10.2183 1.31081C9.69283 1.97535 9.36206 2.84115 9.15133 3.67108C8.94238 2.84115 8.61161 1.97734 8.08434 1.31081C7.87653 1.04894 7.62268 0.838019 7.3387 0.69126C7.05471 0.544502 6.74673 0.465075 6.43407 0.457962C6.08757 0.446669 5.74267 0.514817 5.42053 0.658224C5.09838 0.801632 4.80577 1.01728 4.56066 1.29193C4.31555 1.56658 4.1231 1.89445 3.99512 2.25542C3.86713 2.61639 3.80631 3.00286 3.81639 3.39111C3.82274 3.74146 3.89362 4.08655 4.0246 4.40476C4.15557 4.72297 4.34381 5.00742 4.57751 5.24027C4.91451 5.56687 5.29299 5.83549 5.70051 6.03732H1.32675C1.04377 6.03732 0.772378 6.16328 0.572279 6.3875C0.37218 6.61171 0.259766 6.91581 0.259766 7.2329V10.4211C0.259766 10.7382 0.37218 11.0423 0.572279 11.2665C0.772378 11.4907 1.04377 11.6167 1.32675 11.6167H1.68242V18.3916C1.68242 18.7087 1.79483 19.0128 1.99493 19.237C2.19503 19.4612 2.46642 19.5872 2.7494 19.5872H15.5533C15.8362 19.5872 16.1076 19.4612 16.3077 19.237C16.5078 19.0128 16.6202 18.7087 16.6202 18.3916V11.6167H16.9759C17.2589 11.6167 17.5303 11.4907 17.7304 11.2665C17.9305 11.0423 18.0429 10.7382 18.0429 10.4211V7.2329C18.0429 6.91581 17.9305 6.61171 17.7304 6.3875C17.5303 6.16328 17.2589 6.03732 16.9759 6.03732ZM10.7518 1.83885C10.8954 1.65897 11.0706 1.51426 11.2665 1.41379C11.4623 1.31333 11.6746 1.25927 11.8899 1.25501H11.9442C12.1891 1.2553 12.4315 1.31059 12.6571 1.41761C12.8827 1.52462 13.0868 1.6812 13.2575 1.87809C13.4281 2.07498 13.5618 2.30819 13.6507 2.56395C13.7396 2.81971 13.7818 3.09284 13.7749 3.3672C13.7711 3.6085 13.7228 3.84632 13.6332 4.06576C13.5435 4.2852 13.4144 4.48153 13.2539 4.64248C12.1789 5.70854 10.3135 5.95861 9.51944 6.0164C9.57457 5.13366 9.79686 3.04838 10.7518 1.83885ZM4.52772 3.3672C4.52083 3.09284 4.56307 2.81971 4.65195 2.56395C4.74083 2.30819 4.87455 2.07498 5.04521 1.87809C5.21587 1.6812 5.42001 1.52462 5.64557 1.41761C5.87113 1.31059 6.11354 1.2553 6.35849 1.25501H6.41273C6.62809 1.25927 6.84034 1.31333 7.03619 1.41379C7.23203 1.51426 7.40725 1.65897 7.55085 1.83885C8.50314 3.0434 8.72543 5.13366 8.777 6.02337C7.98654 5.96559 6.12109 5.71551 5.04254 4.64946C4.88241 4.48709 4.75401 4.28935 4.66541 4.06868C4.57681 3.848 4.52993 3.60917 4.52772 3.3672ZM0.971091 10.4211V7.2329C0.971091 7.1272 1.00856 7.02584 1.07526 6.9511C1.14196 6.87636 1.23243 6.83437 1.32675 6.83437H8.79567V10.8196H1.32675C1.23243 10.8196 1.14196 10.7776 1.07526 10.7029C1.00856 10.6282 0.971091 10.5268 0.971091 10.4211ZM2.39374 18.3916V11.6167H8.79567V18.7901H2.7494C2.65508 18.7901 2.56461 18.7482 2.49791 18.6734C2.43121 18.5987 2.39374 18.4973 2.39374 18.3916ZM15.9089 18.3916C15.9089 18.4973 15.8714 18.5987 15.8047 18.6734C15.7381 18.7482 15.6476 18.7901 15.5533 18.7901H9.50699V11.6167H15.9089V18.3916ZM17.3316 10.4211C17.3316 10.5268 17.2941 10.6282 17.2274 10.7029C17.1607 10.7776 17.0702 10.8196 16.9759 10.8196H9.50699V6.83437H16.9759C17.0702 6.83437 17.1607 6.87636 17.2274 6.9511C17.2941 7.02584 17.3316 7.1272 17.3316 7.2329V10.4211Z" fill="#EC635A"/>
</svg>
