<svg width="17" height="17" viewBox="0 0 17 17" fill="none" xmlns="http://www.w3.org/2000/svg">
<g clip-path="url(#clip0_1271_6017)">
<path d="M3.82606 4.68273L4.28948 4.34955C4.72321 4.03769 5.32108 4.16086 5.68601 4.63728L6.41271 5.58647C6.72938 5.99967 6.79051 6.57729 6.56385 7.0141L5.93414 8.22952C6.15693 8.78091 6.49414 9.28896 6.94627 9.75355C7.37867 10.2045 7.88583 10.5615 8.43772 10.8033L9.41195 10.0818C9.78105 9.80892 10.2828 9.8514 10.6569 10.187L11.5284 10.9687C11.9639 11.3591 12.1036 12.0323 11.8562 12.544L11.5909 13.0924C11.3269 13.6382 10.8155 13.9586 10.2472 13.9327C8.90642 13.8723 7.42253 12.9601 5.79504 11.1965C4.16519 9.43021 3.28958 7.78186 3.16787 6.25388C3.11672 5.61085 3.36745 5.01279 3.82702 4.68245L3.82606 4.68273Z" fill="#989FA9"/>
</g>
<defs>
<clipPath id="clip0_1271_6017">
<rect width="13" height="13" fill="white" transform="translate(0 4) rotate(-17)"/>
</clipPath>
</defs>
</svg>
