<svg width="36" height="36" viewBox="0 0 36 36" fill="none" xmlns="http://www.w3.org/2000/svg">
<path fill-rule="evenodd" clip-rule="evenodd" d="M10.209 25.7905L14.331 24.8744C15.4595 25.4777 16.7198 25.7924 17.9995 25.7905C22.3022 25.7905 25.79 22.3027 25.79 18C25.79 13.6973 22.3022 10.2095 17.9995 10.2095C13.6968 10.2095 10.209 13.6973 10.209 18C10.2071 19.2797 10.5218 20.54 11.1252 21.6686L10.209 25.7905ZM16.7993 16.9033H17.9038C17.7143 15.5531 16.6779 14.7744 15.3396 14.7744C13.7524 14.7744 12.5651 15.9292 12.5651 17.8894C12.5651 19.8436 13.7376 21.0044 15.3396 21.0044C16.7756 21.0044 17.735 20.0746 17.9038 18.9168L16.7993 18.9109C16.6572 19.6216 16.0768 20.0243 15.3514 20.0243C14.3683 20.0243 13.6606 19.284 13.6606 17.8894C13.6606 16.5184 14.3624 15.7545 15.3573 15.7545C16.0946 15.7545 16.675 16.1749 16.7993 16.9033ZM19.8591 20.9214V18.2565C19.8591 17.5962 20.2707 17.2172 20.8452 17.2172C21.4107 17.2172 21.7424 17.5725 21.7424 18.1884V20.9214H22.8083V18.0256C22.8083 16.9241 22.1835 16.3141 21.2419 16.3141C20.5431 16.3141 20.1019 16.6309 19.8917 17.1461H19.8355V14.8573H18.7932V20.9214H19.8591Z" fill="#989FA9"/>
<circle cx="18" cy="18" r="14.5" stroke="#DBDBDD"/>
</svg>
