<svg width="36" height="36" viewBox="0 0 36 36" fill="none" xmlns="http://www.w3.org/2000/svg">
<path d="M18 19C18.5523 19 19 18.5523 19 18C19 17.4477 18.5523 17 18 17C17.4477 17 17 17.4477 17 18C17 18.5523 17.4477 19 18 19Z" fill="#989FA9"/>
<path d="M18.0004 13.9995C17.2092 13.9995 16.4358 14.2341 15.7779 14.6737C15.12 15.1133 14.6073 15.7381 14.3045 16.469C14.0017 17.2 13.9225 18.0044 14.0769 18.7804C14.2312 19.5564 14.6122 20.2692 15.1717 20.8287C15.7312 21.3882 16.444 21.7692 17.22 21.9235C17.996 22.0779 18.8004 21.9987 19.5313 21.6959C20.2623 21.3931 20.8871 20.8803 21.3267 20.2225C21.7663 19.5646 22.0009 18.7912 22.0009 17.9999C22.0009 16.939 21.5794 15.9214 20.8292 15.1712C20.0789 14.421 19.0614 13.9995 18.0004 13.9995ZM18.0004 20.5968C17.4868 20.5968 16.9848 20.4445 16.5577 20.1591C16.1307 19.8738 15.7978 19.4682 15.6013 18.9937C15.4047 18.5192 15.3533 17.9971 15.4535 17.4933C15.5537 16.9896 15.801 16.5269 16.1642 16.1637C16.5274 15.8005 16.9901 15.5532 17.4938 15.453C17.9976 15.3528 18.5197 15.4042 18.9942 15.6008C19.4687 15.7973 19.8743 16.1302 20.1596 16.5572C20.445 16.9843 20.5973 17.4863 20.5973 17.9999C20.5973 18.6887 20.3237 19.3492 19.8367 19.8362C19.3497 20.3232 18.6892 20.5968 18.0004 20.5968Z" fill="#989FA9"/>
<path d="M18 11.4413C20.136 11.4413 20.3893 11.4493 21.2327 11.488C21.7399 11.494 22.2423 11.5872 22.718 11.7633C23.0631 11.8965 23.3765 12.1004 23.6381 12.3619C23.8996 12.6235 24.1035 12.9369 24.2367 13.282C24.4128 13.7577 24.506 14.2601 24.512 14.7673C24.5507 15.6107 24.5587 15.864 24.5587 18.0007C24.5587 20.1373 24.5507 20.3893 24.512 21.2327C24.506 21.7399 24.4128 22.2423 24.2367 22.718C24.1035 23.0631 23.8996 23.3765 23.6381 23.6381C23.3765 23.8996 23.0631 24.1035 22.718 24.2367C22.2423 24.4128 21.7399 24.506 21.2327 24.512C20.3893 24.5507 20.136 24.5587 18 24.5587C15.864 24.5587 15.6107 24.5507 14.7673 24.512C14.2601 24.506 13.7577 24.4128 13.282 24.2367C12.9369 24.1035 12.6235 23.8996 12.3619 23.6381C12.1004 23.3765 11.8965 23.0631 11.7633 22.718C11.5872 22.2423 11.494 21.7399 11.488 21.2327C11.4493 20.3893 11.4413 20.136 11.4413 18C11.4413 15.864 11.4493 15.6107 11.488 14.7673C11.494 14.2601 11.5872 13.7577 11.7633 13.282C11.8965 12.9369 12.1004 12.6235 12.3619 12.3619C12.6235 12.1004 12.9369 11.8965 13.282 11.7633C13.7577 11.5872 14.2601 11.494 14.7673 11.488C15.6107 11.4493 15.864 11.4413 18 11.4413ZM18 10C15.8273 10 15.5547 10.0093 14.7013 10.048C14.0378 10.0614 13.3814 10.1872 12.76 10.42C12.2285 10.6255 11.7458 10.9399 11.3428 11.3428C10.9399 11.7458 10.6255 12.2285 10.42 12.76C10.1871 13.3816 10.0613 14.0383 10.048 14.702C10.0093 15.5553 10 15.8267 10 18C10 20.1733 10.0093 20.4453 10.048 21.2987C10.0614 21.9622 10.1872 22.6186 10.42 23.24C10.6255 23.7715 10.9399 24.2542 11.3428 24.6572C11.7458 25.0601 12.2285 25.3745 12.76 25.58C13.3816 25.8129 14.0383 25.9387 14.702 25.952C15.5553 25.9907 15.8273 26 18 26C20.1727 26 20.4453 25.9907 21.2987 25.952C21.9624 25.9387 22.619 25.8129 23.2407 25.58C23.7722 25.3745 24.2549 25.0601 24.6579 24.6572C25.0608 24.2542 25.3751 23.7715 25.5807 23.24C25.8133 22.6183 25.9389 21.9617 25.952 21.298C25.9907 20.4447 26 20.1733 26 18C26 15.8267 25.9907 15.5547 25.952 14.7013C25.9386 14.0378 25.8128 13.3814 25.58 12.76C25.3745 12.2285 25.0601 11.7458 24.6572 11.3428C24.2542 10.9399 23.7715 10.6255 23.24 10.42C22.6183 10.1873 21.9617 10.0618 21.298 10.0487C20.4447 10.0087 20.1733 10 18 10Z" fill="#989FA9"/>
<circle cx="18" cy="18" r="14.5" stroke="#DBDBDD"/>
</svg>
