<svg width="12" height="13" viewBox="0 0 12 13" fill="none" xmlns="http://www.w3.org/2000/svg">
<path d="M5.90235 0.957764C4.81455 0.957764 3.75118 1.28033 2.84671 1.88468C1.94224 2.48903 1.23729 3.34801 0.821009 4.353C0.404727 5.358 0.295808 6.46386 0.508027 7.53076C0.720246 8.59765 1.24407 9.57766 2.01326 10.3468C2.78245 11.116 3.76245 11.6399 4.82935 11.8521C5.89624 12.0643 7.00211 11.9554 8.0071 11.5391C9.0121 11.1228 9.87108 10.4179 10.4754 9.5134C11.0798 8.60893 11.4023 7.54556 11.4023 6.45776C11.4023 4.99907 10.8229 3.60013 9.79143 2.56868C8.75998 1.53723 7.36104 0.957764 5.90235 0.957764ZM6.45235 9.75776H5.35235V8.65776H6.45235V9.75776ZM6.45235 7.55776H5.35235V3.15776H6.45235V7.55776Z" fill="#DBDBDD"/>
</svg>
