<svg width="36" height="36" viewBox="0 0 36 36" fill="none" xmlns="http://www.w3.org/2000/svg">
<circle cx="18" cy="18" r="14.5" stroke="#DBDBDD"/>
<path d="M26.0964 13.892C25.9997 13.5296 25.8103 13.1992 25.5471 12.9338C25.2839 12.6684 24.9562 12.4773 24.5969 12.3798C23.2734 12.0186 17.9551 12.0186 17.9551 12.0186C17.9551 12.0186 12.6368 12.0186 11.3133 12.3798C10.9539 12.4773 10.6262 12.6684 10.3631 12.9338C10.0999 13.1992 9.91046 13.5296 9.81373 13.892C9.5666 15.2532 9.44668 16.6348 9.45553 18.0186C9.44668 19.4023 9.5666 20.7839 9.81373 22.1451C9.91046 22.5075 10.0999 22.838 10.3631 23.1033C10.6262 23.3687 10.9539 23.5598 11.3133 23.6573C12.6368 24.0186 17.9551 24.0186 17.9551 24.0186C17.9551 24.0186 23.2734 24.0186 24.5969 23.6573C24.9562 23.5598 25.2839 23.3687 25.5471 23.1033C25.8103 22.838 25.9997 22.5075 26.0964 22.1451C26.3436 20.7839 26.4635 19.4023 26.4546 18.0186C26.4635 16.6348 26.3436 15.2532 26.0964 13.892ZM16.2552 20.59V15.4471L20.6689 18.0186L16.2552 20.59Z" fill="#989FA9"/>
</svg>
