<svg width="307" height="313" viewBox="0 0 307 313" fill="none" xmlns="http://www.w3.org/2000/svg">
<path d="M176 110.321H132.5V121.321C132.5 121.321 135.5 121.821 135.5 125.321C135.5 128.321 132.5 128.821 132.5 128.821V139.821H176V128.821C176 128.821 172.5 128.321 172.5 125.321C172.5 121.821 176 121.321 176 121.321V110.321Z" stroke="black" stroke-linejoin="round"/>
<path d="M142.796 124.594C142.714 124.048 142.293 123.716 141.716 123.713C140.947 123.716 140.438 124.304 140.438 125.346C140.438 126.413 140.954 126.977 141.709 126.98C142.273 126.977 142.697 126.669 142.796 126.133L143.835 126.139C143.722 127.055 142.953 127.889 141.695 127.889C140.373 127.889 139.392 126.956 139.392 125.346C139.392 123.73 140.39 122.803 141.695 122.803C142.837 122.803 143.698 123.456 143.835 124.594H142.796ZM149.085 125.346C149.085 126.963 148.083 127.889 146.774 127.889C145.455 127.889 144.457 126.956 144.457 125.346C144.457 123.73 145.455 122.803 146.774 122.803C148.083 122.803 149.085 123.73 149.085 125.346ZM145.503 125.346C145.503 126.403 146.005 126.977 146.774 126.98C147.537 126.977 148.042 126.403 148.039 125.346C148.042 124.287 147.537 123.716 146.774 123.713C146.005 123.716 145.503 124.287 145.503 125.346ZM152.886 122.872H153.918V126.085C153.918 127.168 153.094 127.893 151.867 127.889C150.637 127.893 149.823 127.168 149.823 126.085V122.872H150.849V126.003C150.852 126.573 151.255 126.984 151.867 126.987C152.486 126.984 152.889 126.573 152.886 126.003V122.872ZM154.752 127.821V122.872H156.693C157.818 122.872 158.464 123.566 158.464 124.54C158.464 125.528 157.808 126.208 156.666 126.208H155.777V127.821H154.752ZM155.777 125.381H156.502C157.11 125.381 157.408 125.039 157.404 124.54C157.408 124.048 157.11 123.716 156.502 123.713H155.777V125.381ZM163.646 125.346C163.646 126.963 162.644 127.889 161.335 127.889C160.016 127.889 159.018 126.956 159.018 125.346C159.018 123.73 160.016 122.803 161.335 122.803C162.644 122.803 163.646 123.73 163.646 125.346ZM160.063 125.346C160.063 126.403 160.566 126.977 161.335 126.98C162.097 126.977 162.603 126.403 162.6 125.346C162.603 124.287 162.097 123.716 161.335 123.713C160.566 123.716 160.063 124.287 160.063 125.346ZM168.513 122.872V127.821H167.624L165.45 124.677H165.409V127.821H164.384V122.872H165.286L167.446 126.016H167.494V122.872H168.513Z" fill="black"/>
<path d="M132.28 150.66C134.595 150.66 135.954 151.305 135.96 152.465C135.954 153.561 134.765 154.193 132.714 154.27V155.066H137.026V155.816H127.534V155.066H131.811V154.27C129.772 154.182 128.589 153.555 128.589 152.465C128.589 151.305 129.954 150.66 132.28 150.66ZM128.683 157.41V156.695H135.808V159.027H129.62V160.105H136.124V160.832H128.706V158.348H134.905V157.41H128.683ZM129.55 152.465C129.538 153.18 130.552 153.566 132.28 153.578C134.009 153.566 135.017 153.18 135.022 152.465C135.017 151.779 134.009 151.375 132.28 151.363C130.552 151.375 129.538 151.779 129.55 152.465ZM146.987 150.531V160.973H146.073V150.531H146.987ZM138.971 152.266V151.504H143.823V155.207H139.932V157.668C141.661 157.674 143.202 157.592 145.065 157.293L145.159 158.066C143.243 158.365 141.661 158.441 139.862 158.441H138.995V154.457H142.897V152.266H138.971ZM158.775 158.793V159.566H149.236V158.793H158.775ZM150.361 156.707V151.281H151.287V153.227H156.701V151.281H157.604V156.707H150.361ZM151.287 155.969H156.701V153.965H151.287V155.969ZM169.005 150.531V160.949H168.115V150.531H169.005ZM160.498 158.441V151.82H164.423V152.582H161.388V157.668C162.894 157.656 163.843 157.604 164.962 157.352L165.056 158.137C163.849 158.383 162.83 158.436 161.154 158.441H160.498ZM163.72 155.289V154.516H165.994V150.789H166.873V160.41H165.994V155.289H163.72ZM179.528 150.531V160.973H178.603V150.531H179.528ZM171.325 154.973C171.331 152.758 172.433 151.346 173.985 151.34C175.532 151.346 176.651 152.758 176.646 154.973C176.651 157.193 175.532 158.6 173.985 158.594C172.433 158.6 171.331 157.193 171.325 154.973ZM172.216 154.973C172.216 156.666 172.942 157.779 173.985 157.773C175.034 157.779 175.755 156.666 175.755 154.973C175.755 153.279 175.034 152.166 173.985 152.16C172.942 152.166 172.216 153.279 172.216 154.973ZM134.636 164.543V170.578H133.757V164.543H134.636ZM126.269 169.793V165.293H130.3V167.086H131.765V164.754H132.644V170.449H131.765V167.848H130.3V169.793H126.269ZM127.136 169.09H129.445V166.02H127.136V169.09ZM127.757 174.809V171.094H134.636V174.809H127.757ZM128.659 174.059H133.734V171.82H128.659V174.059ZM145.276 164.531V174.973H144.362V169.172H141.866V172.336H137.061V165.352H137.987V168.07H140.964V165.352H141.866V168.41H144.362V164.531H145.276ZM137.987 171.574H140.964V168.809H137.987V171.574ZM151.182 165.867C151.17 167.303 152.295 168.604 153.842 169.113L153.397 169.828C152.172 169.406 151.199 168.539 150.725 167.426C150.256 168.627 149.272 169.582 148.03 170.027L147.561 169.289C149.131 168.744 150.244 167.373 150.244 165.867V164.883H151.182V165.867ZM149.342 174.809V170.648H150.256V171.914H155.178V170.648H156.092V174.809H149.342ZM150.256 174.059H155.178V172.652H150.256V174.059ZM155.178 170.121V164.531H156.092V170.121H155.178ZM170.107 165.188V166.148C170.107 167.227 170.107 168.428 169.738 170.133H171.325V170.906H167.06V174.949H166.134V170.906H161.833V170.133H168.818C168.999 169.395 169.099 168.738 169.157 168.146L162.865 168.469L162.747 167.66L169.21 167.438C169.234 166.98 169.234 166.553 169.24 166.148V165.949H163.04V165.188H170.107ZM181.274 165.012V165.773H179.669V168.164H181.239V168.902H177.888V170.18H182.177V170.93H172.684V170.18H176.973V168.902H173.61V168.164H175.18V165.773H173.575V165.012H181.274ZM173.915 174.727V171.844H174.841V173.953H181.122V174.727H173.915ZM176.095 168.164H178.755V165.773H176.095V168.164Z" fill="black"/>
<path d="M66.5 3H23V14C23 14 26 14.5 26 18C26 21 23 21.5 23 21.5V32.5H66.5V21.5C66.5 21.5 63 21 63 18C63 14.5 66.5 14 66.5 14V3Z" stroke="black" stroke-linejoin="round"/>
<path d="M33.7959 17.2734C33.7139 16.7266 33.2935 16.395 32.7158 16.3916C31.9468 16.395 31.4375 16.9829 31.4375 18.0254C31.4375 19.0918 31.9536 19.6558 32.709 19.6592C33.2729 19.6558 33.6968 19.3481 33.7959 18.8115L34.835 18.8184C34.7222 19.7344 33.9531 20.5684 32.6953 20.5684C31.3726 20.5684 30.3916 19.6353 30.3916 18.0254C30.3916 16.4087 31.3896 15.4824 32.6953 15.4824C33.8369 15.4824 34.6982 16.1353 34.835 17.2734H33.7959ZM40.085 18.0254C40.085 19.6421 39.0835 20.5684 37.7744 20.5684C36.4551 20.5684 35.457 19.6353 35.457 18.0254C35.457 16.4087 36.4551 15.4824 37.7744 15.4824C39.0835 15.4824 40.085 16.4087 40.085 18.0254ZM36.5029 18.0254C36.5029 19.0815 37.0054 19.6558 37.7744 19.6592C38.5366 19.6558 39.0425 19.0815 39.0391 18.0254C39.0425 16.9658 38.5366 16.395 37.7744 16.3916C37.0054 16.395 36.5029 16.9658 36.5029 18.0254ZM43.8857 15.5508H44.918V18.7637C44.918 19.8472 44.0942 20.5718 42.8672 20.5684C41.6367 20.5718 40.8232 19.8472 40.8232 18.7637V15.5508H41.8486V18.6816C41.8521 19.2524 42.2554 19.6626 42.8672 19.666C43.4858 19.6626 43.8892 19.2524 43.8857 18.6816V15.5508ZM45.752 20.5V15.5508H47.6934C48.8179 15.5508 49.4639 16.2446 49.4639 17.2188C49.4639 18.2065 48.8076 18.8867 47.666 18.8867H46.7773V20.5H45.752ZM46.7773 18.0596H47.502C48.1104 18.0596 48.4077 17.7178 48.4043 17.2188C48.4077 16.7266 48.1104 16.395 47.502 16.3916H46.7773V18.0596ZM54.6455 18.0254C54.6455 19.6421 53.644 20.5684 52.335 20.5684C51.0156 20.5684 50.0176 19.6353 50.0176 18.0254C50.0176 16.4087 51.0156 15.4824 52.335 15.4824C53.644 15.4824 54.6455 16.4087 54.6455 18.0254ZM51.0635 18.0254C51.0635 19.0815 51.5659 19.6558 52.335 19.6592C53.0972 19.6558 53.603 19.0815 53.5996 18.0254C53.603 16.9658 53.0972 16.395 52.335 16.3916C51.5659 16.395 51.0635 16.9658 51.0635 18.0254ZM59.5127 15.5508V20.5H58.624L56.4502 17.3555H56.4092V20.5H55.3838V15.5508H56.2861L58.4463 18.6953H58.4941V15.5508H59.5127Z" fill="black"/>
<path d="M38.2329 45.543V51.5781H37.354V45.543H38.2329ZM29.8657 50.793V46.293H33.897V48.0859H35.3618V45.7539H36.2407V51.4492H35.3618V48.8477H33.897V50.793H29.8657ZM30.7329 50.0898H33.0415V47.0195H30.7329V50.0898ZM31.354 55.8086V52.0938H38.2329V55.8086H31.354ZM32.2563 55.0586H37.3305V52.8203H32.2563V55.0586ZM48.873 45.5312V55.9727H47.959V50.1719H45.4629V53.3359H40.6582V46.3516H41.584V49.0703H44.5605V46.3516H45.4629V49.4102H47.959V45.5312H48.873ZM41.584 52.5742H44.5605V49.8086H41.584V52.5742ZM54.7788 46.8672C54.7671 48.3027 55.8921 49.6035 57.439 50.1133L56.9937 50.8281C55.7691 50.4062 54.7964 49.5391 54.3218 48.4258C53.853 49.627 52.8687 50.582 51.6265 51.0273L51.1577 50.2891C52.728 49.7441 53.8413 48.373 53.8413 46.8672V45.8828H54.7788V46.8672ZM52.939 55.8086V51.6484H53.853V52.9141H58.7749V51.6484H59.689V55.8086H52.939ZM53.853 55.0586H58.7749V53.6523H53.853V55.0586ZM58.7749 51.1211V45.5312H59.689V51.1211H58.7749ZM25.7412 65.4844V67.8516H28.2021V65.4844H29.1162V67.8516H31.7529V68.6133H22.2138V67.8516H24.8388V65.4844H25.7412ZM22.5654 64.5C24.3877 64.1836 26.4384 62.7363 26.4443 61.0312V60.2344H27.4052V61.0312C27.4111 62.7363 29.4736 64.2012 31.2959 64.5L30.9209 65.2617C29.2978 64.9395 27.6103 63.9082 26.9306 62.4434C26.2451 63.9023 24.5576 64.9512 22.9521 65.2617L22.5654 64.5ZM39.1704 60.4336V61.207H38.1157V64.248C38.6548 64.207 39.1821 64.1543 39.686 64.0898L39.7563 64.793C37.6177 65.127 35.1216 65.1621 33.3579 65.168L33.2407 64.3945C33.6509 64.3945 34.102 64.3945 34.5766 64.3887V61.207H33.5337V60.4336H39.1704ZM34.6938 68.0273C34.688 66.8379 36.018 66.1582 38.2095 66.1523C40.4009 66.1582 41.7368 66.8379 41.7368 68.0273C41.7368 69.2402 40.4009 69.9258 38.2095 69.9258C36.018 69.9258 34.688 69.2402 34.6938 68.0273ZM35.4673 64.3711C36.0415 64.3594 36.6333 64.3359 37.2251 64.3008V61.207H35.4673V64.3711ZM35.5962 68.0273C35.602 68.7656 36.5864 69.1992 38.2095 69.1992C39.8266 69.1992 40.8169 68.7656 40.811 68.0273C40.8169 67.3184 39.8266 66.8848 38.2095 66.8906C36.5864 66.8848 35.602 67.3184 35.5962 68.0273ZM40.7524 65.9297V59.543H41.6665V65.9297H40.7524ZM55.6812 60.1875V61.1484C55.6812 62.2266 55.6812 63.4277 55.312 65.1328H56.8999V65.9062H52.6343V69.9492H51.7085V65.9062H47.4077V65.1328H54.3921C54.5738 64.3945 54.6734 63.7383 54.732 63.1465L48.439 63.4688L48.3218 62.6602L54.7847 62.4375C54.8081 61.9805 54.8081 61.5527 54.814 61.1484V60.9492H48.6148V60.1875H55.6812ZM66.8487 60.0117V60.7734H65.2432V63.1641H66.8135V63.9023H63.462V65.1797H67.751V65.9297H58.2588V65.1797H62.5479V63.9023H59.1846V63.1641H60.7549V60.7734H59.1495V60.0117H66.8487ZM59.4893 69.7266V66.8438H60.4151V68.9531H66.6963V69.7266H59.4893ZM61.669 63.1641H64.3291V60.7734H61.669V63.1641Z" fill="black"/>
<path d="M143.993 15.2842V16.1807H140.864V18.7998H139.757V16.1807H136.672V15.2842H143.993ZM137.533 14.4229V11.1973H143.114V14.4229H137.533ZM138.641 13.5439H141.998V12.085H138.641V13.5439ZM151.78 16.998V17.9209H144.459V16.998H146.331V15.7764H145.303V13.0869H149.829V12.2256H145.294V11.3291H150.937V13.9834H146.428V14.8711H151.121V15.7764H149.987V16.998H151.78ZM147.421 16.998H148.889V15.7764H147.421V16.998ZM153.521 11.5225V13.3242H154.61V11.5225H155.647V16.9102H152.466V11.5225H153.521ZM153.521 16.0137H154.61V14.2031H153.521V16.0137ZM156.315 18.4395V10.9248H157.379V13.8604H158.1V10.8105H159.172V18.8086H158.1V14.7744H157.379V18.4395H156.315ZM164.208 13.6406V14.625H167.311V15.5215H160.016V14.625H163.101V13.6406H164.208ZM160.394 13.2451C162.16 13.021 163.079 12.1069 163.083 11.2061V10.9424H164.226V11.2061C164.221 12.1421 165.118 13.021 166.924 13.2451L166.493 14.1152C165.14 13.9131 164.146 13.3462 163.641 12.5464C163.131 13.3418 162.138 13.9175 160.789 14.1152L160.394 13.2451ZM160.851 17.3936C160.851 16.4839 161.901 15.9653 163.654 15.9609C165.395 15.9653 166.432 16.4839 166.44 17.3936C166.432 18.3032 165.395 18.813 163.654 18.8086C161.901 18.813 160.851 18.3032 160.851 17.3936ZM161.993 17.3936C161.989 17.7847 162.534 17.9736 163.654 17.9736C164.749 17.9736 165.311 17.7847 165.315 17.3936C165.311 16.9937 164.749 16.8179 163.654 16.8135C162.534 16.8179 161.989 16.9937 161.993 17.3936Z" fill="black"/>
<path d="M142.452 50.0859V50.8477H132.96V50.0859H137.249V48.9961C135.251 48.8906 134.014 48.1406 134.014 46.9102C134.014 45.627 135.444 44.8535 137.706 44.8477C139.944 44.8535 141.38 45.627 141.385 46.9102C141.38 48.1406 140.137 48.8906 138.163 48.9961V50.0859H142.452ZM134.19 54.7266V51.6914H135.116V53.9531H141.397V54.7266H134.19ZM134.964 46.9102C134.958 47.7598 136.024 48.2461 137.706 48.2461C139.376 48.2461 140.442 47.7598 140.448 46.9102C140.442 46.1133 139.376 45.5977 137.706 45.5977C136.024 45.5977 134.958 46.1133 134.964 46.9102ZM151.873 44.5312V48.6797H153.619V49.4531H151.873V54.9727H150.959V44.5312H151.873ZM144.221 46.2656V45.5039H148.955V49.2305H145.158V51.668C147.092 51.6738 148.446 51.5977 150.022 51.3047L150.115 52.0664C148.475 52.3652 147.086 52.4414 145.076 52.4531H144.244V48.4688H148.041V46.2656H144.221ZM163.263 44.543V52.1602H162.349V44.543H163.263ZM154.908 47.8242C154.902 46.3242 156.08 45.2754 157.638 45.2695C159.197 45.2754 160.363 46.3242 160.369 47.8242C160.363 49.3418 159.197 50.3965 157.638 50.3906C156.08 50.3965 154.902 49.3418 154.908 47.8242ZM155.81 47.8242C155.799 48.8613 156.584 49.582 157.638 49.582C158.676 49.582 159.467 48.8613 159.467 47.8242C159.467 46.8047 158.676 46.0781 157.638 46.0781C156.584 46.0781 155.799 46.8047 155.81 47.8242ZM156.537 54.7266V51.3867H157.451V53.9531H163.592V54.7266H156.537ZM175.005 49.0898V49.8516H165.513V49.0898H169.79V48.0586H166.743V44.8828H173.775V48.0586H170.693V49.0898H175.005ZM166.661 51.4336V50.7188H173.786V53.0508H167.599V54.1055H174.103V54.832H166.685V52.3594H172.884V51.4336H166.661ZM167.658 47.3203H172.861V45.6211H167.658V47.3203ZM132.479 59.5273V62.0703H134.741V59.5273H135.597V66.3477H131.601V59.5273H132.479ZM132.479 65.5859H134.741V62.8203H132.479V65.5859ZM136.921 68.4219V58.7539H137.8V62.668H139.253V58.5312H140.144V68.9492H139.253V63.4297H137.8V68.4219H136.921ZM147.256 62.1758V63.7109H151.557V64.4609H142.065V63.7109H146.354V62.1758H147.256ZM142.639 61.9883C144.479 61.7363 146.342 60.5762 146.342 59.1875V58.6953H147.268V59.1875C147.268 60.5762 149.143 61.7363 150.983 61.9883L150.608 62.7266C149.032 62.4512 147.461 61.6133 146.811 60.4121C146.155 61.625 144.59 62.4512 142.991 62.7266L142.639 61.9883ZM143.213 67.1328C143.208 65.9785 144.549 65.334 146.811 65.3281C149.049 65.334 150.385 65.9785 150.397 67.1328C150.385 68.293 149.049 68.9258 146.811 68.9258C144.549 68.9258 143.208 68.293 143.213 67.1328ZM144.151 67.1328C144.139 67.8184 145.124 68.2168 146.811 68.2109C148.481 68.2168 149.465 67.8184 149.471 67.1328C149.465 66.4414 148.481 66.0547 146.811 66.0547C145.124 66.0547 144.139 66.4414 144.151 67.1328ZM164.681 59.1875V60.1484C164.681 61.2266 164.681 62.4277 164.312 64.1328H165.9V64.9062H161.634V68.9492H160.709V64.9062H156.408V64.1328H163.392C163.574 63.3945 163.673 62.7383 163.732 62.1465L157.439 62.4688L157.322 61.6602L163.785 61.4375C163.808 60.9805 163.808 60.5527 163.814 60.1484V59.9492H157.615V59.1875H164.681ZM175.849 59.0117V59.7734H174.243V62.1641H175.814V62.9023H172.462V64.1797H176.751V64.9297H167.259V64.1797H171.548V62.9023H168.185V62.1641H169.755V59.7734H168.149V59.0117H175.849ZM168.489 68.7266V65.8438H169.415V67.9531H175.696V68.7266H168.489ZM170.669 62.1641H173.329V59.7734H170.669V62.1641Z" fill="black"/>
<path d="M170 6V7L176 16V22.5C176 24.7091 174.209 26.5 172 26.5H170V29H135C132.791 29 131 27.2091 131 25V6C131 3.79086 132.791 2 135 2H166C168.209 2 170 3.79086 170 6Z" stroke="black"/>
<circle cx="165" cy="28" r="5" fill="white" stroke="black"/>
<circle cx="139" cy="28" r="5" fill="white" stroke="black"/>
<path d="M251.993 16.1194V17.0159H248.864V19.635H247.757V17.0159H244.672V16.1194H251.993ZM245.533 15.2581V12.0325H251.114V15.2581H245.533ZM246.641 14.3792H249.998V12.9202H246.641V14.3792ZM259.78 17.8333V18.7561H252.459V17.8333H254.331V16.6116H253.303V13.9221H257.829V13.0608H253.294V12.1643H258.937V14.8186H254.428V15.7063H259.121V16.6116H257.987V17.8333H259.78ZM255.421 17.8333H256.889V16.6116H255.421V17.8333ZM261.521 12.3577V14.1594H262.61V12.3577H263.647V17.7454H260.466V12.3577H261.521ZM261.521 16.8489H262.61V15.0383H261.521V16.8489ZM264.315 19.2747V11.76H265.379V14.6956H266.1V11.6458H267.172V19.6438H266.1V15.6096H265.379V19.2747H264.315ZM272.208 14.4758V15.4602H275.311V16.3567H268.016V15.4602H271.101V14.4758H272.208ZM268.394 14.0803C270.16 13.8562 271.079 12.9421 271.083 12.0413V11.7776H272.226V12.0413C272.221 12.9773 273.118 13.8562 274.924 14.0803L274.493 14.9504C273.14 14.7483 272.146 14.1814 271.641 13.3816C271.131 14.177 270.138 14.7527 268.789 14.9504L268.394 14.0803ZM268.851 18.2288C268.851 17.3191 269.901 16.8005 271.654 16.7961C273.395 16.8005 274.432 17.3191 274.44 18.2288C274.432 19.1384 273.395 19.6482 271.654 19.6438C269.901 19.6482 268.851 19.1384 268.851 18.2288ZM269.993 18.2288C269.989 18.6199 270.534 18.8088 271.654 18.8088C272.749 18.8088 273.311 18.6199 273.315 18.2288C273.311 17.8289 272.749 17.6531 271.654 17.6487C270.534 17.6531 269.989 17.8289 269.993 18.2288Z" fill="black"/>
<path d="M246.706 45.2109C248.921 45.2227 250.514 46.3008 250.514 47.9414C250.514 49.4941 249.132 50.5195 247.151 50.6543V52.8398H251.499V53.6133H241.96V52.8398H246.249V50.6543C244.28 50.5137 242.897 49.4883 242.897 47.9414C242.897 46.3008 244.497 45.2227 246.706 45.2109ZM243.788 47.9414C243.782 49.1426 245.018 49.9219 246.706 49.9336C248.393 49.9219 249.624 49.1426 249.624 47.9414C249.624 46.7637 248.393 45.9668 246.706 45.9727C245.018 45.9668 243.782 46.7637 243.788 47.9414ZM261.213 47.0391V47.8008H254.1V44.707H255.002V47.0391H261.213ZM252.799 49.582V48.832H262.338V49.582H252.799ZM253.994 51.2461V50.5195H261.108V52.957H254.944V54.0703H261.483V54.8086H254.018V52.2539H260.205V51.2461H253.994ZM272.076 49.5469V50.3086H264.881V45.5039H271.97V46.2656H265.795V49.5469H272.076ZM263.662 53.5312V52.7578H273.201V53.5312H263.662ZM283.115 44.543V50.7188H282.2V44.543H283.115ZM275.04 45.9141V45.1758H279.798V48H275.954V49.4414C277.818 49.4531 279.206 49.3945 280.9 49.1133L281.005 49.8867C279.253 50.1562 277.829 50.2148 275.908 50.2148H275.064V47.2734H278.884V45.9141H275.04ZM276.341 54.8086V51.2812H283.115V54.8086H276.341ZM277.243 54.0586H282.212V52.0312H277.243V54.0586ZM243.741 64.4844V66.8516H246.202V64.4844H247.116V66.8516H249.753V67.6133H240.214V66.8516H242.839V64.4844H243.741ZM240.565 63.5C242.388 63.1836 244.438 61.7363 244.444 60.0312V59.2344H245.405V60.0312C245.411 61.7363 247.474 63.2012 249.296 63.5L248.921 64.2617C247.298 63.9395 245.61 62.9082 244.931 61.4434C244.245 62.9023 242.558 63.9512 240.952 64.2617L240.565 63.5ZM257.17 59.4336V60.207H256.116V63.248C256.655 63.207 257.182 63.1543 257.686 63.0898L257.756 63.793C255.618 64.127 253.122 64.1621 251.358 64.168L251.241 63.3945C251.651 63.3945 252.102 63.3945 252.577 63.3887V60.207H251.534V59.4336H257.17ZM252.694 67.0273C252.688 65.8379 254.018 65.1582 256.209 65.1523C258.401 65.1582 259.737 65.8379 259.737 67.0273C259.737 68.2402 258.401 68.9258 256.209 68.9258C254.018 68.9258 252.688 68.2402 252.694 67.0273ZM253.467 63.3711C254.041 63.3594 254.633 63.3359 255.225 63.3008V60.207H253.467V63.3711ZM253.596 67.0273C253.602 67.7656 254.586 68.1992 256.209 68.1992C257.827 68.1992 258.817 67.7656 258.811 67.0273C258.817 66.3184 257.827 65.8848 256.209 65.8906C254.586 65.8848 253.602 66.3184 253.596 67.0273ZM258.752 64.9297V58.543H259.666V64.9297H258.752ZM273.681 59.1875V60.1484C273.681 61.2266 273.681 62.4277 273.312 64.1328H274.9V64.9062H270.634V68.9492H269.709V64.9062H265.408V64.1328H272.392C272.574 63.3945 272.673 62.7383 272.732 62.1465L266.439 62.4688L266.322 61.6602L272.785 61.4375C272.808 60.9805 272.808 60.5527 272.814 60.1484V59.9492H266.615V59.1875H273.681ZM284.849 59.0117V59.7734H283.243V62.1641H284.814V62.9023H281.462V64.1797H285.751V64.9297H276.259V64.1797H280.548V62.9023H277.185V62.1641H278.755V59.7734H277.149V59.0117H284.849ZM277.489 68.7266V65.8438H278.415V67.9531H284.696V68.7266H277.489ZM279.669 62.1641H282.329V59.7734H279.669V62.1641Z" fill="black"/>
<path d="M258 8.32099L259.811 4.69867C260.49 3.34161 262.075 2.70478 263.503 3.21508L279.478 8.92012C280.914 9.43331 281.737 10.9433 281.39 12.429L277.288 29.9521C276.872 31.73 274.978 32.727 273.277 32.0631L256 25.321M267 7.32099C267 7.32099 269 -0.67901 274 1.32099C278.5 3.12098 275 10.321 275 10.321M242.5 24.821H251M249.5 30.321H260" stroke="black" stroke-linecap="round" stroke-linejoin="round"/>
<path d="M33.4988 160.613H23.9597V159.828H33.4988V160.613ZM32.5847 153.348H24.8034V152.586H32.5847V153.348ZM32.5613 157.742H24.8269V156.992H32.5613V157.742ZM27.3698 157.086H26.4558V153.277H27.3698V157.086ZM30.9323 157.086H30.03V153.277H30.9323V157.086ZM43.4123 161.973H42.4983V151.531H43.4123V161.973ZM36.2873 158.668C37.2327 158.672 38.1116 158.646 38.9241 158.592C39.7405 158.537 40.5959 158.438 41.4905 158.293L41.5842 159.066C40.678 159.207 39.8108 159.305 38.9827 159.359C38.1545 159.414 37.2561 159.441 36.2873 159.441H35.4202V158.668H36.2873ZM40.2483 156.207H36.3577V158.961H35.4202V155.457H39.3225V153.266H35.3967V152.504H40.2483V156.207ZM51.0877 159.336H46.2712V152.562H51.0877V159.336ZM47.1736 158.586H50.1853V153.301H47.1736V158.586ZM54.2517 161.973H53.3259V151.531H54.2517V161.973ZM64.4934 154.941H61.6809V154.18H64.4934V154.941ZM59.3841 152.141C59.8958 152.141 60.3548 152.244 60.761 152.451C61.1712 152.658 61.4915 152.947 61.722 153.318C61.9563 153.689 62.0755 154.113 62.0794 154.59C62.0755 155.07 61.9563 155.498 61.722 155.873C61.4915 156.244 61.1712 156.533 60.761 156.74C60.3548 156.947 59.8958 157.051 59.3841 157.051C58.8645 157.051 58.3977 156.947 57.9837 156.74C57.5735 156.533 57.2532 156.244 57.0227 155.873C56.7923 155.498 56.677 155.07 56.677 154.59C56.677 154.113 56.7923 153.689 57.0227 153.318C57.2532 152.947 57.5735 152.658 57.9837 152.451C58.3977 152.244 58.8645 152.141 59.3841 152.141ZM59.3841 152.914C59.0325 152.914 58.718 152.984 58.4407 153.125C58.1634 153.266 57.9466 153.465 57.7903 153.723C57.6341 153.977 57.5559 154.266 57.5559 154.59C57.5559 154.918 57.6341 155.209 57.7903 155.463C57.9466 155.717 58.1634 155.916 58.4407 156.061C58.718 156.201 59.0325 156.273 59.3841 156.277C59.7239 156.273 60.0305 156.201 60.304 156.061C60.5813 155.916 60.7981 155.717 60.9544 155.463C61.1106 155.205 61.1888 154.914 61.1888 154.59C61.1888 154.266 61.1106 153.977 60.9544 153.723C60.7981 153.465 60.5813 153.266 60.304 153.125C60.0305 152.984 59.7239 152.914 59.3841 152.914ZM65.1497 157.52H64.2239V151.531H65.1497V157.52ZM65.1497 161.809H58.3411V158.059H65.1497V161.809ZM59.2552 161.059H64.2473V158.809H59.2552V161.059ZM26.3273 174.566H16.7883V173.793H26.3273V174.566ZM18.8391 168.227H24.2531V166.281H25.1555V171.707H17.9133V166.281H18.8391V168.227ZM24.2531 170.969V168.965H18.8391V170.969H24.2531ZM36.487 173.301H35.6081V165.543H36.487V173.301ZM35.8894 169.434H33.8855V168.66H35.8894V169.434ZM34.1433 172.996H33.2878V165.742H34.1433V172.996ZM36.8034 175.727H29.655V174.953H36.8034V175.727ZM30.5691 175.234H29.655V172.586H30.5691V175.234ZM28.7995 170.992C29.6042 170.988 30.2976 170.965 30.8796 170.922C31.4616 170.879 32.0573 170.797 32.6667 170.676L32.7722 171.414C32.1277 171.539 31.5046 171.625 30.903 171.672C30.3054 171.715 29.6042 171.734 28.7995 171.73H28.1198V170.992H28.7995ZM32.0456 169.41H29.0105V171.379H28.1198V168.684H31.1667V167.184H28.0964V166.434H32.0456V169.41ZM46.9045 171.309H39.7092V170.547H46.9045V171.309ZM48.0295 174.531H38.4905V173.758H48.0295V174.531ZM46.7991 167.266H40.6233V170.887H39.7092V166.504H46.7991V167.266ZM53.8645 169.469L53.7473 168.66L60.4622 168.426V169.129L53.8645 169.469ZM60.6028 166.949H54.0403V166.188H60.6028V166.949ZM62.3255 171.906H52.8333V171.133H62.3255V171.906ZM58.0598 175.949H57.1341V171.707H58.0598V175.949ZM61.1067 167.195C61.1067 167.695 61.0989 168.135 61.0833 168.514C61.0677 168.893 61.0286 169.326 60.9661 169.814C60.9075 170.299 60.8137 170.82 60.6848 171.379L59.7825 171.262C59.9153 170.742 60.0149 170.252 60.0813 169.791C60.1477 169.326 60.1887 168.912 60.2044 168.549C60.2239 168.182 60.2356 167.746 60.2395 167.242V167.148V166.188H61.1067V167.148V167.195ZM72.2742 166.773H64.575V166.012H72.2742V166.773ZM72.2391 169.902H64.6102V169.164H72.2391V169.902ZM67.0945 169.492H66.1805V166.375H67.0945V169.492ZM70.6688 169.492H69.7547V166.375H70.6688V169.492ZM73.1766 171.93H63.6844V171.18H73.1766V171.93ZM68.8875 171.648H67.9734V169.656H68.8875V171.648ZM72.1219 175.727H64.9148V174.953H72.1219V175.727ZM65.8406 175.211H64.9148V172.844H65.8406V175.211Z" fill="black"/>
<path d="M33 125.321C33 123.112 34.7909 121.321 37 121.321H43C45.2091 121.321 47 123.112 47 125.321V137.321C47 137.873 46.5523 138.321 46 138.321H34C33.4477 138.321 33 137.873 33 137.321V125.321Z" stroke="black" stroke-linejoin="round"/>
<path d="M37 117.321C37 116.769 37.4477 116.321 38 116.321H42C42.5523 116.321 43 116.769 43 117.321V121.321H37V117.321Z" stroke="black"/>
<path d="M38 112.321C38 111.216 38.8954 110.321 40 110.321V110.321C41.1046 110.321 42 111.216 42 112.321V116.321H38V112.321Z" stroke="black"/>
<rect x="50" y="125.321" width="8" height="13" rx="1" stroke="black" stroke-linejoin="round"/>
<path d="M52 115.59V125.321H57V118.151C57 118.151 57 117.331 55 116.102C53 114.873 52.1667 115.419 52 115.59Z" stroke="black" stroke-linecap="round" stroke-linejoin="round"/>
<path d="M58 111.321V115.321" stroke="black" stroke-linecap="round" stroke-linejoin="round"/>
<path d="M60 113.321L56 113.321" stroke="black" stroke-linecap="round" stroke-linejoin="round"/>
<path d="M239.28 150.66C241.595 150.66 242.954 151.305 242.96 152.465C242.954 153.561 241.765 154.193 239.714 154.27V155.066H244.026V155.816H234.534V155.066H238.811V154.27C236.772 154.182 235.589 153.555 235.589 152.465C235.589 151.305 236.954 150.66 239.28 150.66ZM235.683 157.41V156.695H242.808V159.027H236.62V160.105H243.124V160.832H235.706V158.348H241.905V157.41H235.683ZM236.55 152.465C236.538 153.18 237.552 153.566 239.28 153.578C241.009 153.566 242.017 153.18 242.022 152.465C242.017 151.779 241.009 151.375 239.28 151.363C237.552 151.375 236.538 151.779 236.55 152.465ZM253.987 150.531V160.973H253.073V150.531H253.987ZM245.971 152.266V151.504H250.823V155.207H246.932V157.668C248.661 157.674 250.202 157.592 252.065 157.293L252.159 158.066C250.243 158.365 248.661 158.441 246.862 158.441H245.995V154.457H249.897V152.266H245.971ZM265.775 158.793V159.566H256.236V158.793H265.775ZM257.361 156.707V151.281H258.287V153.227H263.701V151.281H264.604V156.707H257.361ZM258.287 155.969H263.701V153.965H258.287V155.969ZM276.005 150.531V160.949H275.115V150.531H276.005ZM267.498 158.441V151.82H271.423V152.582H268.388V157.668C269.894 157.656 270.843 157.604 271.962 157.352L272.056 158.137C270.849 158.383 269.83 158.436 268.154 158.441H267.498ZM270.72 155.289V154.516H272.994V150.789H273.873V160.41H272.994V155.289H270.72ZM286.528 150.531V160.973H285.603V150.531H286.528ZM278.325 154.973C278.331 152.758 279.433 151.346 280.985 151.34C282.532 151.346 283.651 152.758 283.646 154.973C283.651 157.193 282.532 158.6 280.985 158.594C279.433 158.6 278.331 157.193 278.325 154.973ZM279.216 154.973C279.216 156.666 279.942 157.779 280.985 157.773C282.034 157.779 282.755 156.666 282.755 154.973C282.755 153.279 282.034 152.166 280.985 152.16C279.942 152.166 279.216 153.279 279.216 154.973ZM238.612 169.488V170.262H229.109V169.488H238.612ZM230.257 173.051C230.251 171.855 231.605 171.176 233.855 171.176C236.087 171.176 237.429 171.855 237.441 173.051C237.429 174.258 236.087 174.926 233.855 174.926C231.605 174.926 230.251 174.258 230.257 173.051ZM230.316 168.492V164.953H237.429V165.727H231.218V167.742H237.499V168.492H230.316ZM231.195 173.051C231.183 173.783 232.185 174.199 233.855 174.199C235.507 174.199 236.509 173.783 236.515 173.051C236.509 172.324 235.507 171.902 233.855 171.891C232.185 171.902 231.183 172.324 231.195 173.051ZM242.116 170.496V171.879H247.331V170.496H248.245V174.809H241.202V170.496H242.116ZM239.96 169.559V168.797H247.055C247.337 167.502 247.337 166.57 247.331 165.773H241.167V165.012H248.245V165.773C248.245 166.57 248.245 167.496 247.958 168.797H249.499V169.559H239.96ZM242.116 174.059H247.331V172.605H242.116V174.059ZM259.436 164.531V169.98H258.522V168.645H256.061V169.559H251.338V165.023H252.252V166.523H255.158V165.023H256.061V166.031H258.522V164.531H259.436ZM252.252 168.809H255.158V167.25H252.252V168.809ZM252.686 171.223V170.484H259.436V172.934H253.623V174.07H259.834V174.809H252.709V172.23H258.522V171.223H252.686ZM256.061 167.918H258.522V166.746H256.061V167.918ZM270.51 164.543V170.637H269.631V167.906H268.248V170.496H267.381V164.73H268.248V167.145H269.631V164.543H270.51ZM261.674 169.629C263.045 169.043 263.883 167.695 263.888 166.523V165.141H264.767V166.535C264.773 167.684 265.576 168.861 266.912 169.371L266.431 170.074C265.424 169.682 264.703 168.926 264.334 168.023C263.947 169.02 263.197 169.904 262.177 170.367L261.674 169.629ZM263.631 174.809V171.164H270.51V174.809H263.631ZM264.533 174.059H269.607V171.902H264.533V174.059ZM281.103 164.859V165.586H279.497V167.602H281.068V168.316H273.439V167.602H275.009V165.586H273.404V164.859H281.103ZM272.513 169.934V169.195H282.005V169.934H272.513ZM273.661 171.562V170.871H280.786V173.133H274.599V174.129H281.103V174.832H273.685V172.465H279.884V171.562H273.661ZM275.923 167.602H278.583V165.586H275.923V167.602ZM291.966 164.543V170.953H291.052V164.543H291.966ZM283.891 165.973V165.199H288.649V168.059H284.805V169.535C286.669 169.535 288.057 169.482 289.751 169.207L289.856 169.969C288.104 170.256 286.68 170.303 284.759 170.309H283.915V167.332H287.735V165.973H283.891ZM284.993 173.051C284.987 171.855 286.317 171.164 288.509 171.164C290.7 171.164 292.036 171.855 292.036 173.051C292.036 174.24 290.7 174.926 288.509 174.926C286.317 174.926 284.987 174.24 284.993 173.051ZM285.895 173.051C285.901 173.766 286.886 174.193 288.509 174.188C290.126 174.193 291.116 173.766 291.11 173.051C291.116 172.336 290.126 171.902 288.509 171.902C286.886 171.902 285.901 172.336 285.895 173.051Z" fill="black"/>
<path d="M223.14 185.071C223.14 186.282 224.019 187.425 225.288 187.884L224.858 188.479C223.906 188.103 223.145 187.351 222.773 186.404C222.407 187.454 221.616 188.284 220.591 188.694L220.181 188.069C221.484 187.591 222.383 186.375 222.388 185.042V183.968H223.14V185.071ZM221.753 191.927V189.202H222.524V191.282H227.563V191.927H221.753ZM224.663 186.126V185.481H226.597V183.44H227.368V189.944H226.597V186.126H224.663ZM231.772 185.325C231.777 186.404 232.646 187.39 233.931 187.776L233.56 188.382C232.563 188.069 231.792 187.405 231.411 186.551C231.03 187.488 230.234 188.206 229.214 188.548L228.823 187.942C230.117 187.542 231.016 186.502 231.021 185.325V185.13H229.058V184.514H231.021V183.401H231.792V184.514H233.735V185.13H231.772V185.325ZM229.917 189.817V189.182H235.601V192.132H234.839V189.817H229.917ZM234.839 188.733V183.43H235.601V185.755H236.909V186.409H235.601V188.733H234.839ZM241.812 184.094C241.807 185.232 243.389 186.267 244.897 186.497L244.595 187.102C243.276 186.878 241.968 186.145 241.421 185.135C240.874 186.165 239.561 186.887 238.237 187.112L237.935 186.507C239.453 186.272 241.021 185.266 241.021 184.094V183.655H241.812V184.094ZM237.446 188.489V187.854H245.396V188.489H241.86V190.266H241.099V188.489H237.446ZM238.462 191.927V189.417H239.233V191.282H244.507V191.927H238.462ZM247.524 190.667L246.763 193.323H246.04L246.577 190.667H247.524ZM255.122 183.997C256.968 184.007 258.296 184.905 258.296 186.272C258.296 187.566 257.144 188.421 255.493 188.533V190.354H259.116V190.999H251.167V190.354H254.741V188.533C253.101 188.416 251.948 187.561 251.948 186.272C251.948 184.905 253.281 184.007 255.122 183.997ZM252.69 186.272C252.686 187.273 253.716 187.923 255.122 187.932C256.528 187.923 257.554 187.273 257.554 186.272C257.554 185.291 256.528 184.627 255.122 184.632C253.716 184.627 252.686 185.291 252.69 186.272ZM267.759 190.344V190.999H259.81V190.344H267.759ZM260.513 184.944V184.309H266.997V184.944H265.62V187.981H266.978V188.606H260.532V187.981H261.89V184.944H260.513ZM262.651 187.981H264.868V184.944H262.651V187.981ZM275.171 183.43V186.887H276.626V187.532H275.171V192.132H274.409V183.43H275.171ZM268.794 184.876V184.241H272.739V187.346H269.575V189.378C271.187 189.383 272.314 189.319 273.628 189.075L273.706 189.71C272.339 189.959 271.182 190.022 269.507 190.032H268.813V186.712H271.978V184.876H268.794ZM284.263 183.44V189.788H283.501V183.44H284.263ZM277.3 186.175C277.295 184.925 278.276 184.051 279.575 184.046C280.874 184.051 281.846 184.925 281.851 186.175C281.846 187.439 280.874 188.318 279.575 188.313C278.276 188.318 277.295 187.439 277.3 186.175ZM278.052 186.175C278.042 187.039 278.696 187.639 279.575 187.639C280.439 187.639 281.099 187.039 281.099 186.175C281.099 185.325 280.439 184.719 279.575 184.719C278.696 184.719 278.042 185.325 278.052 186.175ZM278.657 191.927V189.143H279.419V191.282H284.536V191.927H278.657ZM295.034 183.44V186.302H296.343V186.946H295.034V189.944H294.272V183.44H295.034ZM288.267 185.13V184.505H290.474V183.44H291.235V184.505H293.442V185.13H288.267ZM288.765 187.229C288.76 186.243 289.6 185.608 290.854 185.608C292.095 185.608 292.935 186.243 292.944 187.229C292.935 188.206 292.095 188.836 290.854 188.831C289.6 188.836 288.76 188.206 288.765 187.229ZM289.497 187.229C289.492 187.84 290.034 188.235 290.854 188.225C291.665 188.235 292.212 187.84 292.222 187.229C292.212 186.609 291.665 186.209 290.854 186.214C290.034 186.209 289.492 186.609 289.497 187.229ZM289.604 191.927V189.427H290.356V191.282H295.435V191.927H289.604ZM304.087 183.43V188.606H303.315V186.331H301.567V185.696H303.315V183.43H304.087ZM296.929 187.913C298.218 187.449 299.136 186.272 299.136 185.032V184.71H297.173V184.065H301.851V184.71H299.907V185.022C299.907 186.155 300.776 187.234 302.046 187.669L301.646 188.284C300.674 187.932 299.917 187.2 299.541 186.306C299.17 187.322 298.364 188.133 297.329 188.528L296.929 187.913ZM298.296 190.491C298.291 189.47 299.399 188.875 301.206 188.88C303.008 188.875 304.116 189.47 304.116 190.491C304.116 191.516 303.008 192.102 301.206 192.112C299.399 192.102 298.291 191.516 298.296 190.491ZM299.058 190.491C299.053 191.121 299.873 191.502 301.206 191.497C302.534 191.502 303.354 191.121 303.354 190.491C303.354 189.856 302.534 189.475 301.206 189.475C299.873 189.475 299.053 189.856 299.058 190.491Z" fill="#989FA9"/>
<path d="M256 119.151C256 119.151 255.5 110.321 261 110.321C266.5 110.321 266 119.151 266 119.151M252.293 136.321H269.713C271.478 136.321 272.861 134.805 272.701 133.048L271.365 118.444C271.224 116.899 269.928 115.717 268.377 115.717H253.656C252.107 115.717 250.813 116.896 250.669 118.438L249.306 133.042C249.142 134.802 250.526 136.321 252.293 136.321Z" stroke="black" stroke-linecap="round"/>
<path d="M267 121.321C267 120.216 267.895 119.321 269 119.321H272C273.105 119.321 274 120.216 274 121.321V126.321H267V121.321Z" fill="white" stroke="black"/>
<path d="M264 130.321C264 127.56 266.239 125.321 269 125.321H272C274.761 125.321 277 127.56 277 130.321V138.321C277 139.426 276.105 140.321 275 140.321H266C264.895 140.321 264 139.426 264 138.321V130.321Z" fill="white" stroke="black"/>
<path d="M37.2329 270.543V276.578H36.354V270.543H37.2329ZM28.8657 275.793V271.293H32.897V273.086H34.3618V270.754H35.2407V276.449H34.3618V273.848H32.897V275.793H28.8657ZM29.7329 275.09H32.0415V272.02H29.7329V275.09ZM30.354 280.809V277.094H37.2329V280.809H30.354ZM31.2563 280.059H36.3305V277.82H31.2563V280.059ZM47.873 270.531V280.973H46.959V275.172H44.4629V278.336H39.6582V271.352H40.584V274.07H43.5605V271.352H44.4629V274.41H46.959V270.531H47.873ZM40.584 277.574H43.5605V274.809H40.584V277.574ZM58.689 270.543V276.461H57.7749V270.543H58.689ZM50.1695 275.465C51.7456 274.914 52.8413 273.502 52.8413 271.973V270.953H53.7788V271.973C53.7671 273.443 54.8921 274.744 56.4273 275.289L55.9585 275.992C54.7515 275.576 53.7847 274.697 53.3159 273.561C52.853 274.768 51.8804 275.729 50.6382 276.191L50.1695 275.465ZM51.9155 280.809V277.059H58.689V280.809H51.9155ZM52.8179 280.059H57.7866V277.809H52.8179V280.059ZM24.3193 286.605C24.3252 287.76 25.1279 288.926 26.4638 289.43L25.9834 290.133C24.9814 289.746 24.2607 289.002 23.8857 288.105C23.5048 289.096 22.7548 289.98 21.7295 290.426L21.2255 289.711C22.5966 289.113 23.4345 287.766 23.4404 286.605V285.188H24.3193V286.605ZM23.124 293.074C23.1123 291.896 24.4482 291.205 26.6162 291.211C28.7724 291.205 30.1142 291.896 30.1201 293.074C30.1142 294.24 28.7724 294.926 26.6162 294.926C24.4482 294.926 23.1123 294.24 23.124 293.074ZM24.038 293.074C24.0263 293.783 25.0166 294.217 26.6162 294.211C28.1982 294.217 29.1943 293.783 29.206 293.074C29.1943 292.354 28.1982 291.92 26.6162 291.914C25.0166 291.92 24.0263 292.354 24.038 293.074ZM26.9326 290.648V284.742H27.7998V287.344H29.1826V284.543H30.0615V290.977H29.1826V288.105H27.7998V290.648H26.9326ZM35.018 284.918C36.5766 284.924 37.7075 285.873 37.7134 287.227C37.7075 288.586 36.5766 289.523 35.018 289.523C33.4419 289.523 32.3052 288.586 32.311 287.227C32.3052 285.873 33.4419 284.924 35.018 284.918ZM33.2134 287.227C33.2016 288.141 33.9692 288.773 35.018 288.773C36.0493 288.773 36.8227 288.141 36.8227 287.227C36.8227 286.324 36.0493 285.686 35.018 285.691C33.9692 285.686 33.2016 286.324 33.2134 287.227ZM33.893 291.129V290.391H40.6665V292.898H34.8188V294.07H41.0415V294.809H33.9165V292.207H39.7524V291.129H33.893ZM39.7524 289.887V284.531H40.6665V289.887H39.7524ZM54.6812 285.188V286.148C54.6812 287.227 54.6812 288.428 54.312 290.133H55.8999V290.906H51.6343V294.949H50.7085V290.906H46.4077V290.133H53.3921C53.5738 289.395 53.6734 288.738 53.732 288.146L47.439 288.469L47.3218 287.66L53.7847 287.438C53.8081 286.98 53.8081 286.553 53.814 286.148V285.949H47.6148V285.188H54.6812ZM65.8487 285.012V285.773H64.2432V288.164H65.8135V288.902H62.462V290.18H66.751V290.93H57.2588V290.18H61.5479V288.902H58.1846V288.164H59.7549V285.773H58.1495V285.012H65.8487ZM58.4893 294.727V291.844H59.4151V293.953H65.6963V294.727H58.4893ZM60.669 288.164H63.3291V285.773H60.669V288.164Z" fill="black"/>
<path d="M24.5781 302.838C24.583 303.8 25.252 304.771 26.3652 305.191L25.9648 305.777C25.1299 305.455 24.5293 304.835 24.2168 304.088C23.8994 304.913 23.2744 305.65 22.4199 306.021L22 305.426C23.1426 304.928 23.8408 303.805 23.8457 302.838V301.656H24.5781V302.838ZM23.582 308.229C23.5723 307.247 24.6855 306.671 26.4922 306.676C28.2891 306.671 29.4072 307.247 29.4121 308.229C29.4072 309.2 28.2891 309.771 26.4922 309.771C24.6855 309.771 23.5723 309.2 23.582 308.229ZM24.3438 308.229C24.334 308.819 25.1592 309.181 26.4922 309.176C27.8105 309.181 28.6406 308.819 28.6504 308.229C28.6406 307.628 27.8105 307.267 26.4922 307.262C25.1592 307.267 24.334 307.628 24.3438 308.229ZM26.7559 306.207V301.285H27.4785V303.453H28.6309V301.119H29.3633V306.48H28.6309V304.088H27.4785V306.207H26.7559ZM33.0938 301.432C34.3926 301.437 35.335 302.228 35.3398 303.355C35.335 304.488 34.3926 305.27 33.0938 305.27C31.7803 305.27 30.833 304.488 30.8379 303.355C30.833 302.228 31.7803 301.437 33.0938 301.432ZM31.5898 303.355C31.5801 304.117 32.2197 304.645 33.0938 304.645C33.9531 304.645 34.5977 304.117 34.5977 303.355C34.5977 302.604 33.9531 302.071 33.0938 302.076C32.2197 302.071 31.5801 302.604 31.5898 303.355ZM32.1562 306.607V305.992H37.8008V308.082H32.9277V309.059H38.1133V309.674H32.1758V307.506H37.0391V306.607H32.1562ZM37.0391 305.572V301.109H37.8008V305.572H37.0391ZM46.4336 301.119V306.236H45.6621V305.758H43.9043V305.25H45.6621V301.119H46.4336ZM39.2461 304.391C40.9258 304.4 43.0742 304.381 44.9492 304.176L44.998 304.674C44.1484 304.796 43.2646 304.869 42.4004 304.908V306.266H41.6484V304.938C40.8281 304.967 40.0371 304.967 39.334 304.967L39.2461 304.391ZM39.9199 302.594C39.9199 301.788 40.7695 301.285 42.0781 301.285C43.3721 301.285 44.2266 301.788 44.2363 302.594C44.2266 303.404 43.3721 303.888 42.0781 303.893C40.7695 303.888 39.9199 303.404 39.9199 302.594ZM40.5742 307.105V306.549H46.4336V308.346H41.3652V309.127H46.7168V309.693H40.6133V307.809H45.6719V307.105H40.5742ZM40.6426 302.594C40.6377 303.053 41.2041 303.365 42.0781 303.365C42.9424 303.365 43.5088 303.053 43.5137 302.594C43.5088 302.13 42.9424 301.817 42.0781 301.822C41.2041 301.817 40.6377 302.13 40.6426 302.594ZM57.2148 301.119V303.98H58.5234V304.625H57.2148V307.623H56.4531V301.119H57.2148ZM50.4473 302.809V302.184H52.6543V301.119H53.416V302.184H55.623V302.809H50.4473ZM50.9453 304.908C50.9404 303.922 51.7803 303.287 53.0352 303.287C54.2754 303.287 55.1152 303.922 55.125 304.908C55.1152 305.885 54.2754 306.515 53.0352 306.51C51.7803 306.515 50.9404 305.885 50.9453 304.908ZM51.6777 304.908C51.6729 305.519 52.2148 305.914 53.0352 305.904C53.8457 305.914 54.3926 305.519 54.4023 304.908C54.3926 304.288 53.8457 303.888 53.0352 303.893C52.2148 303.888 51.6729 304.288 51.6777 304.908ZM51.7852 309.605V307.105H52.5371V308.961H57.6152V309.605H51.7852ZM66.2676 301.109V306.285H65.4961V304.01H63.748V303.375H65.4961V301.109H66.2676ZM59.1094 305.592C60.3984 305.128 61.3164 303.951 61.3164 302.711V302.389H59.3535V301.744H64.0312V302.389H62.0879V302.701C62.0879 303.834 62.957 304.913 64.2266 305.348L63.8262 305.963C62.8545 305.611 62.0977 304.879 61.7217 303.985C61.3506 305.001 60.5449 305.812 59.5098 306.207L59.1094 305.592ZM60.4766 308.17C60.4717 307.149 61.5801 306.554 63.3867 306.559C65.1885 306.554 66.2969 307.149 66.2969 308.17C66.2969 309.195 65.1885 309.781 63.3867 309.791C61.5801 309.781 60.4717 309.195 60.4766 308.17ZM61.2383 308.17C61.2334 308.8 62.0537 309.181 63.3867 309.176C64.7148 309.181 65.5352 308.8 65.5352 308.17C65.5352 307.535 64.7148 307.154 63.3867 307.154C62.0537 307.154 61.2334 307.535 61.2383 308.17Z" fill="#989FA9"/>
<path d="M30 247V255H58V247M30 247V240C30 237.791 31.7909 236 34 236H54C56.2091 236 58 237.791 58 240V247M30 247H31.25C32.4926 247 33.5 245.993 33.5 244.75V244.5C33.5 243.395 34.3954 242.5 35.5 242.5V242.5C36.6046 242.5 37.5 243.395 37.5 244.5V248.5C37.5 249.881 38.6193 251 40 251V251C41.3807 251 42.5 249.881 42.5 248.5V247C42.5 245.895 43.3954 245 44.5 245V245C45.6046 245 46.5 245.895 46.5 247V247C46.5 248.105 47.3954 249 48.5 249H48.75C49.9926 249 51 247.993 51 246.75V244.5C51 243.395 51.8954 242.5 53 242.5V242.5C54.1046 242.5 55 243.395 55 244.5V244.75V244.75C55 245.993 56.0074 247 57.25 247H58" stroke="black"/>
<rect x="28" y="255" width="32" height="3" rx="1.5" stroke="black"/>
<path d="M42 231C42 229 44.0003 227 44.0003 227C44.6669 227.5 46 229 46 231C46 233 45 234 44.0003 234C43 234 42 233 42 231Z" stroke="black" stroke-linecap="round" stroke-linejoin="round"/>
<path d="M146.233 271.543V277.578H145.354V271.543H146.233ZM137.866 276.793V272.293H141.897V274.086H143.362V271.754H144.241V277.449H143.362V274.848H141.897V276.793H137.866ZM138.733 276.09H141.041V273.02H138.733V276.09ZM139.354 281.809V278.094H146.233V281.809H139.354ZM140.256 281.059H145.331V278.82H140.256V281.059ZM156.873 271.531V281.973H155.959V276.172H153.463V279.336H148.658V272.352H149.584V275.07H152.561V272.352H153.463V275.41H155.959V271.531H156.873ZM149.584 278.574H152.561V275.809H149.584V278.574ZM167.689 271.543V277.461H166.775V271.543H167.689ZM159.169 276.465C160.746 275.914 161.841 274.502 161.841 272.973V271.953H162.779V272.973C162.767 274.443 163.892 275.744 165.427 276.289L164.959 276.992C163.751 276.576 162.785 275.697 162.316 274.561C161.853 275.768 160.88 276.729 159.638 277.191L159.169 276.465ZM160.916 281.809V278.059H167.689V281.809H160.916ZM161.818 281.059H166.787V278.809H161.818V281.059ZM131.28 285.66C133.595 285.66 134.954 286.305 134.96 287.465C134.954 288.561 133.765 289.193 131.714 289.27V290.066H136.026V290.816H126.534V290.066H130.811V289.27C128.772 289.182 127.589 288.555 127.589 287.465C127.589 286.305 128.954 285.66 131.28 285.66ZM127.683 292.41V291.695H134.808V294.027H128.62V295.105H135.124V295.832H127.706V293.348H133.905V292.41H127.683ZM128.55 287.465C128.538 288.18 129.552 288.566 131.28 288.578C133.009 288.566 134.017 288.18 134.022 287.465C134.017 286.779 133.009 286.375 131.28 286.363C129.552 286.375 128.538 286.779 128.55 287.465ZM145.987 285.531V295.973H145.073V285.531H145.987ZM137.971 287.266V286.504H142.823V290.207H138.932V292.668C140.661 292.674 142.202 292.592 144.065 292.293L144.159 293.066C142.243 293.365 140.661 293.441 138.862 293.441H137.995V289.457H141.897V287.266H137.971ZM157.775 293.793V294.566H148.236V293.793H157.775ZM149.361 291.707V286.281H150.287V288.227H155.701V286.281H156.604V291.707H149.361ZM150.287 290.969H155.701V288.965H150.287V290.969ZM164.677 286.621C164.666 289.627 163.582 292.404 159.814 294.25L159.298 293.512C161.255 292.574 162.462 291.373 163.119 289.961L159.498 290.312L159.345 289.492L163.412 289.223C163.599 288.643 163.71 288.027 163.757 287.383H159.873V286.621H164.677ZM166.775 295.949V285.531H167.701V295.949H166.775ZM178.376 291.168V291.918H171.169V286.434H178.259V287.207H172.106V288.754H178.036V289.492H172.106V291.168H178.376ZM169.939 294.59V293.828H179.478V294.59H169.939Z" fill="black"/>
<path d="M122.782 303.75C122.782 304.961 123.661 306.104 124.931 306.562L124.501 307.158C123.549 306.782 122.787 306.03 122.416 305.083C122.05 306.133 121.259 306.963 120.233 307.373L119.823 306.748C121.127 306.27 122.025 305.054 122.03 303.721V302.646H122.782V303.75ZM121.396 310.605V307.881H122.167V309.961H127.206V310.605H121.396ZM124.306 304.805V304.16H126.239V302.119H127.011V308.623H126.239V304.805H124.306ZM131.415 304.004C131.42 305.083 132.289 306.069 133.573 306.455L133.202 307.061C132.206 306.748 131.435 306.084 131.054 305.229C130.673 306.167 129.877 306.885 128.856 307.227L128.466 306.621C129.76 306.221 130.658 305.181 130.663 304.004V303.809H128.7V303.193H130.663V302.08H131.435V303.193H133.378V303.809H131.415V304.004ZM129.56 308.496V307.861H135.243V310.811H134.481V308.496H129.56ZM134.481 307.412V302.109H135.243V304.434H136.552V305.088H135.243V307.412H134.481ZM141.454 302.773C141.449 303.911 143.031 304.946 144.54 305.176L144.237 305.781C142.919 305.557 141.61 304.824 141.063 303.813C140.517 304.844 139.203 305.566 137.88 305.791L137.577 305.186C139.096 304.951 140.663 303.945 140.663 302.773V302.334H141.454V302.773ZM137.089 307.168V306.533H145.038V307.168H141.503V308.945H140.741V307.168H137.089ZM138.104 310.605V308.096H138.876V309.961H144.149V310.605H138.104ZM147.167 309.346L146.405 312.002H145.683L146.22 309.346H147.167ZM158.251 302.109V310.791H157.509V306.191H156.298V310.352H155.565V302.295H156.298V305.557H157.509V302.109H158.251ZM151.132 308.457V303.125H154.452V308.457H151.132ZM151.854 307.842H153.729V303.74H151.854V307.842ZM166.61 302.119V307.236H165.839V306.758H164.081V306.25H165.839V302.119H166.61ZM159.423 305.391C161.103 305.4 163.251 305.381 165.126 305.176L165.175 305.674C164.325 305.796 163.441 305.869 162.577 305.908V307.266H161.825V305.938C161.005 305.967 160.214 305.967 159.511 305.967L159.423 305.391ZM160.097 303.594C160.097 302.788 160.946 302.285 162.255 302.285C163.549 302.285 164.403 302.788 164.413 303.594C164.403 304.404 163.549 304.888 162.255 304.893C160.946 304.888 160.097 304.404 160.097 303.594ZM160.751 308.105V307.549H166.61V309.346H161.542V310.127H166.894V310.693H160.79V308.809H165.849V308.105H160.751ZM160.819 303.594C160.814 304.053 161.381 304.365 162.255 304.365C163.119 304.365 163.686 304.053 163.69 303.594C163.686 303.13 163.119 302.817 162.255 302.822C161.381 302.817 160.814 303.13 160.819 303.594ZM173.505 303.516C173.505 304.697 174.403 305.781 175.663 306.211L175.243 306.816C174.286 306.465 173.529 305.747 173.148 304.839C172.777 305.869 172.001 306.665 170.985 307.061L170.575 306.445C171.874 305.962 172.748 304.8 172.753 303.457V302.559H173.505V303.516ZM171.728 309.189C171.732 308.198 172.821 307.617 174.608 307.617C176.391 307.617 177.47 308.198 177.47 309.189C177.47 310.2 176.391 310.771 174.608 310.771C172.821 310.771 171.732 310.2 171.728 309.189ZM172.499 309.189C172.489 309.805 173.3 310.161 174.608 310.166C175.922 310.161 176.723 309.805 176.728 309.189C176.723 308.599 175.922 308.232 174.608 308.232C173.3 308.232 172.489 308.599 172.499 309.189ZM176.63 307.393V302.109H177.392V304.375H178.7V305.02H177.392V307.393H176.63ZM186.405 302.109V310.811H185.634V302.109H186.405ZM179.569 305.811C179.574 303.965 180.492 302.788 181.786 302.783C183.075 302.788 184.008 303.965 184.003 305.811C184.008 307.661 183.075 308.833 181.786 308.828C180.492 308.833 179.574 307.661 179.569 305.811ZM180.312 305.811C180.312 307.222 180.917 308.149 181.786 308.145C182.66 308.149 183.261 307.222 183.261 305.811C183.261 304.399 182.66 303.472 181.786 303.467C180.917 303.472 180.312 304.399 180.312 305.811Z" fill="#989FA9"/>
<path d="M152 231.709H163C164.105 231.709 165 232.604 165 233.709L165.003 253C165.004 254.104 164.108 255 163.003 255H141.003C139.899 255 139.004 254.105 139.003 253L139 233.709C139 232.605 139.896 231.709 141 231.709H145M152 231.709C152 231.709 150.004 228.671 148.004 227.658C146.589 226.943 145.004 226.632 144.004 227.658C143.004 228.685 143 231.709 145 231.709M152 231.709H145M152 231.709C152 231.709 154.004 228.671 156.004 227.658C157.418 226.943 159.004 226.632 160.004 227.658C161.004 228.685 161 231.709 159 231.709" stroke="black"/>
<path d="M144 253C144 252.448 144.448 252 145 252H156C156.552 252 157 252.448 157 253V257C157 258.105 156.105 259 155 259H146C144.895 259 144 258.105 144 257V253Z" fill="white" stroke="black"/>
<path d="M145 251C145 250.448 145.448 250 146 250H155C155.552 250 156 250.448 156 251V252H145V251Z" fill="white"/>
<path d="M146 250V250C145.448 250 145 250.448 145 251V252H156V251C156 250.448 155.552 250 155 250V250M146 250C146 249.333 146.8 248.4 148 248C149.5 247.5 151 248 152 247.5C152.447 247.276 154 246 154 246C154.667 246.667 155 247.2 155 248C155 248.8 155 249.667 155 250M146 250H155" stroke="black" stroke-linejoin="round"/>
<rect x="159" y="252" width="10" height="7" rx="3" fill="white" stroke="black"/>
<rect x="162" y="244" width="4" height="8" fill="white" stroke="black"/>
<path d="M260.314 238.637V245H258.987V239.894H258.952L257.493 240.808V239.639L259.066 238.637H260.314ZM263.46 241.818C262.507 241.818 261.993 241.124 261.993 240.122C261.993 239.116 262.533 238.417 263.46 238.417C264.414 238.417 264.924 239.116 264.928 240.122C264.924 241.133 264.401 241.818 263.46 241.818ZM262.889 240.122C262.894 240.671 263.091 241.032 263.46 241.036C263.838 241.032 264.027 240.671 264.032 240.122C264.027 239.573 263.856 239.199 263.46 239.199C263.087 239.204 262.894 239.582 262.889 240.122ZM262.907 245L267.284 238.637H268.268L263.891 245H262.907ZM266.291 243.515C266.291 242.508 266.831 241.814 267.75 241.81C268.712 241.814 269.222 242.508 269.226 243.515C269.222 244.525 268.699 245.211 267.75 245.211C266.805 245.211 266.291 244.517 266.291 243.515ZM267.187 243.515C267.191 244.064 267.389 244.429 267.75 244.429C268.136 244.429 268.325 244.064 268.33 243.515C268.325 242.965 268.149 242.592 267.75 242.601C267.38 242.596 267.191 242.974 267.187 243.515Z" fill="black"/>
<path d="M247.696 274.188C247.45 273.016 246.448 272.383 245.329 272.383C243.794 272.383 242.605 273.566 242.599 275.758C242.605 277.943 243.794 279.127 245.329 279.133C246.448 279.127 247.445 278.5 247.696 277.34H248.751C248.446 279.074 247.052 280.117 245.329 280.117C243.15 280.117 241.573 278.441 241.579 275.758C241.573 273.074 243.15 271.398 245.329 271.398C247.046 271.398 248.435 272.424 248.751 274.188H247.696ZM253.954 271.516H255.02V277.574C255.014 279.203 254.065 280.117 252.583 280.117C251.176 280.117 250.157 279.314 250.157 277.996H251.2C251.206 278.717 251.786 279.18 252.583 279.18C253.456 279.18 253.954 278.623 253.954 277.574V271.516ZM268.039 275.758C268.045 278.441 266.463 280.117 264.289 280.117C262.109 280.117 260.533 278.441 260.539 275.758C260.533 273.074 262.109 271.398 264.289 271.398C266.463 271.398 268.045 273.074 268.039 275.758ZM261.558 275.758C261.564 277.943 262.754 279.127 264.289 279.133C265.824 279.127 267.013 277.943 267.019 275.758C267.013 273.566 265.824 272.383 264.289 272.383C262.754 272.383 261.564 273.566 261.558 275.758ZM276.804 271.516V280H275.796L271.202 273.391H271.12V280H270.066V271.516H271.085L275.679 278.137H275.761V271.516H276.804ZM279.159 280V271.516H284.304V272.453H280.214V275.289H284.034V276.215H280.214V279.062H284.362V280H279.159ZM244.327 292.875V293.66H234.788V292.875H239.066V290.473H235.655V289.734H237.284V286.312H235.632V285.551H243.413V286.312H241.761V289.734H243.39V290.473H239.968V292.875H244.327ZM238.198 289.734H240.859V286.312H238.198V289.734ZM254.241 284.543V292.16H253.327V284.543H254.241ZM245.885 287.824C245.88 286.324 247.057 285.275 248.616 285.27C250.175 285.275 251.341 286.324 251.346 287.824C251.341 289.342 250.175 290.396 248.616 290.391C247.057 290.396 245.88 289.342 245.885 287.824ZM246.788 287.824C246.776 288.861 247.561 289.582 248.616 289.582C249.653 289.582 250.444 288.861 250.444 287.824C250.444 286.805 249.653 286.078 248.616 286.078C247.561 286.078 246.776 286.805 246.788 287.824ZM247.514 294.727V291.387H248.428V293.953H254.569V294.727H247.514ZM264.928 290.168V290.918H257.721V285.434H264.811V286.207H258.658V287.754H264.588V288.492H258.658V290.168H264.928ZM256.49 293.59V292.828H266.03V293.59H256.49ZM274.454 286.453C274.454 287.807 275.497 289.102 277.021 289.629L276.54 290.355C275.368 289.934 274.46 289.061 274.015 287.988C273.564 289.184 272.597 290.145 271.361 290.602L270.88 289.875C272.415 289.324 273.529 287.936 273.529 286.465V286.008H271.173V285.258H276.786V286.008H274.454V286.453ZM272.462 292.09V291.328H279.47V294.949H278.544V292.09H272.462ZM276.458 288.035V287.262H278.544V284.531H279.47V290.777H278.544V288.035H276.458ZM290.286 284.543V290.262H289.372V284.543H290.286ZM282.212 285.809V285.047H286.97V287.859H283.126V289.277C284.989 289.266 286.378 289.225 288.071 288.949L288.177 289.711C286.425 289.986 285.001 290.039 283.079 290.051H282.235V287.133H286.055V285.809H282.212ZM283.513 294.809V290.789H284.438V292.031H289.372V290.789H290.286V294.809H283.513ZM284.438 294.059H289.372V292.77H284.438V294.059Z" fill="black"/>
<circle cx="262.5" cy="242.5" r="15" stroke="black"/>
<path d="M30.8379 78.6895V80.291C31.6777 80.2471 32.5273 80.1787 33.3281 80.0566L33.3867 80.623C31.3994 80.9844 29.2656 80.999 27.7031 80.9941L27.5957 80.3594C28.3232 80.3545 29.1826 80.3496 30.0859 80.3203V78.6895H30.8379ZM27.8594 78.3867C29.1436 78.0059 30.0469 77.0537 30.0664 75.8867H28.0742V75.252H30.0859V74.1777H30.8379V75.252H32.8789V75.8867H30.8379C30.8623 77.0049 31.79 77.9229 33.0742 78.2891L32.7129 78.8945C31.6729 78.582 30.8525 77.9131 30.4619 77.0342C30.0859 77.9619 29.2754 78.6553 28.2305 78.9727L27.8594 78.3867ZM33.9043 82.8105V74.1094H34.666V82.8105H33.9043ZM43.6113 74.1094V82.791H42.8789V78.2402H41.5996V82.3418H40.8965V74.3047H41.5996V77.6055H42.8789V74.1094H43.6113ZM36.5117 80.6426V75.1738H39.7637V75.8086H37.2734V79.9883C38.4697 79.9834 39.2949 79.9395 40.2617 79.7441L40.3301 80.3887C39.2852 80.6035 38.4014 80.6377 37.0684 80.6426H36.5117ZM50.0957 82.0977C48.6895 82.0977 47.6787 81.3457 47.6348 80.2227H48.5234C48.5723 80.8965 49.2412 81.3164 50.0859 81.3164C51.0186 81.3164 51.6924 80.8135 51.6973 80.0762C51.6924 79.3047 51.0771 78.7627 49.9785 78.7578H49.4023V77.9863H49.9785C50.8379 77.9863 51.4385 77.5029 51.4336 76.7754C51.4385 76.0674 50.9209 75.5986 50.1152 75.5938C49.3584 75.5986 48.6699 76.0137 48.6309 76.707H47.7812C47.8252 75.584 48.8701 74.832 50.125 74.832C51.4727 74.832 52.293 75.7158 52.2832 76.7266C52.293 77.5322 51.8242 78.1182 51.082 78.3281V78.377C52.0049 78.5186 52.5615 79.1777 52.5566 80.0762C52.5615 81.2383 51.5068 82.0977 50.0957 82.0977ZM56.4531 75.7598C56.458 76.8975 57.3076 77.9131 58.582 78.3281L58.2207 78.9336C57.2197 78.6016 56.4629 77.9131 56.0869 77.0391C55.7158 78.0352 54.915 78.8115 53.875 79.1875L53.4844 78.5723C54.7832 78.1328 55.6914 77.0146 55.7012 75.7598V75.3887H53.7188V74.7539H58.4062V75.3887H56.4531V75.7598ZM54.6367 81.1699C54.6416 80.1689 55.7305 79.5879 57.5176 79.5879C59.2998 79.5879 60.3789 80.1689 60.3789 81.1699C60.3789 82.1855 59.2998 82.7715 57.5176 82.7715C55.7305 82.7715 54.6416 82.1855 54.6367 81.1699ZM55.4082 81.1699C55.3984 81.7949 56.209 82.1611 57.5176 82.1562C58.8311 82.1611 59.6318 81.7949 59.6367 81.1699C59.6318 80.5645 58.8311 80.2031 57.5176 80.2031C56.209 80.2031 55.3984 80.5645 55.4082 81.1699ZM59.5391 79.3535V74.1094H60.3008V76.3262H61.6094V76.9707H60.3008V79.3535H59.5391Z" fill="#989FA9"/>
<path d="M30.9893 187.689V189.291C31.8291 189.247 32.6787 189.179 33.4795 189.057L33.5381 189.623C31.5508 189.984 29.417 189.999 27.8545 189.994L27.7471 189.359C28.4746 189.354 29.334 189.35 30.2373 189.32V187.689H30.9893ZM28.0107 187.387C29.2949 187.006 30.1982 186.054 30.2178 184.887H28.2256V184.252H30.2373V183.178H30.9893V184.252H33.0303V184.887H30.9893C31.0137 186.005 31.9414 186.923 33.2256 187.289L32.8643 187.895C31.8242 187.582 31.0039 186.913 30.6133 186.034C30.2373 186.962 29.4268 187.655 28.3818 187.973L28.0107 187.387ZM34.0557 191.811V183.109H34.8174V191.811H34.0557ZM43.7627 183.109V191.791H43.0303V187.24H41.751V191.342H41.0479V183.305H41.751V186.605H43.0303V183.109H43.7627ZM36.6631 189.643V184.174H39.915V184.809H37.4248V188.988C38.6211 188.983 39.4463 188.939 40.4131 188.744L40.4814 189.389C39.4365 189.604 38.5527 189.638 37.2197 189.643H36.6631ZM47.8057 191L47.7959 190.355L50.208 187.816C51.043 186.928 51.4434 186.449 51.4482 185.795C51.4434 185.067 50.8379 184.599 50.042 184.594C49.1973 184.599 48.6699 185.131 48.665 185.922H47.835C47.8252 184.672 48.792 183.832 50.0713 183.832C51.3555 183.832 52.2637 184.696 52.2686 185.795C52.2637 186.586 51.8975 187.201 50.6475 188.49L49.0264 190.16V190.219H52.3955V191H47.8057ZM56.3018 184.76C56.3066 185.897 57.1562 186.913 58.4307 187.328L58.0693 187.934C57.0684 187.602 56.3115 186.913 55.9355 186.039C55.5645 187.035 54.7637 187.812 53.7236 188.188L53.333 187.572C54.6318 187.133 55.54 186.015 55.5498 184.76V184.389H53.5674V183.754H58.2549V184.389H56.3018V184.76ZM54.4854 190.17C54.4902 189.169 55.5791 188.588 57.3662 188.588C59.1484 188.588 60.2275 189.169 60.2275 190.17C60.2275 191.186 59.1484 191.771 57.3662 191.771C55.5791 191.771 54.4902 191.186 54.4854 190.17ZM55.2568 190.17C55.2471 190.795 56.0576 191.161 57.3662 191.156C58.6797 191.161 59.4805 190.795 59.4854 190.17C59.4805 189.564 58.6797 189.203 57.3662 189.203C56.0576 189.203 55.2471 189.564 55.2568 190.17ZM59.3877 188.354V183.109H60.1494V185.326H61.458V185.971H60.1494V188.354H59.3877Z" fill="#989FA9"/>
<path d="M137.857 78.6895V80.291C138.697 80.2471 139.547 80.1787 140.348 80.0566L140.406 80.623C138.419 80.9844 136.285 80.999 134.723 80.9941L134.615 80.3594C135.343 80.3545 136.202 80.3496 137.105 80.3203V78.6895H137.857ZM134.879 78.3867C136.163 78.0059 137.066 77.0537 137.086 75.8867H135.094V75.252H137.105V74.1777H137.857V75.252H139.898V75.8867H137.857C137.882 77.0049 138.81 77.9229 140.094 78.2891L139.732 78.8945C138.692 78.582 137.872 77.9131 137.481 77.0342C137.105 77.9619 136.295 78.6553 135.25 78.9727L134.879 78.3867ZM140.924 82.8105V74.1094H141.686V82.8105H140.924ZM150.631 74.1094V82.791H149.898V78.2402H148.619V82.3418H147.916V74.3047H148.619V77.6055H149.898V74.1094H150.631ZM143.531 80.6426V75.1738H146.783V75.8086H144.293V79.9883C145.489 79.9834 146.314 79.9395 147.281 79.7441L147.35 80.3887C146.305 80.6035 145.421 80.6377 144.088 80.6426H143.531ZM157.135 82.0977C155.909 82.083 154.557 81.3555 154.557 78.7383C154.557 76.2334 155.582 74.832 157.242 74.832C158.487 74.832 159.356 75.5986 159.537 76.707H158.668C158.507 76.082 158.028 75.6133 157.242 75.6133C156.08 75.6133 155.382 76.6045 155.387 78.3086H155.475C155.88 77.7178 156.529 77.3711 157.291 77.3711C158.546 77.3711 159.596 78.3477 159.596 79.7148C159.596 81.0479 158.624 82.1123 157.135 82.0977ZM155.504 79.7344C155.509 80.5645 156.188 81.3213 157.135 81.3262C158.048 81.3213 158.741 80.6035 158.746 79.7246C158.741 78.8555 158.077 78.1475 157.154 78.1426C156.227 78.1475 155.514 78.8994 155.504 79.7344ZM163.434 75.7598C163.438 76.8975 164.288 77.9131 165.562 78.3281L165.201 78.9336C164.2 78.6016 163.443 77.9131 163.067 77.0391C162.696 78.0352 161.896 78.8115 160.855 79.1875L160.465 78.5723C161.764 78.1328 162.672 77.0146 162.682 75.7598V75.3887H160.699V74.7539H165.387V75.3887H163.434V75.7598ZM161.617 81.1699C161.622 80.1689 162.711 79.5879 164.498 79.5879C166.28 79.5879 167.359 80.1689 167.359 81.1699C167.359 82.1855 166.28 82.7715 164.498 82.7715C162.711 82.7715 161.622 82.1855 161.617 81.1699ZM162.389 81.1699C162.379 81.7949 163.189 82.1611 164.498 82.1562C165.812 82.1611 166.612 81.7949 166.617 81.1699C166.612 80.5645 165.812 80.2031 164.498 80.2031C163.189 80.2031 162.379 80.5645 162.389 81.1699ZM166.52 79.3535V74.1094H167.281V76.3262H168.59V76.9707H167.281V79.3535H166.52Z" fill="#989FA9"/>
<path d="M248.857 78.6895V80.291C249.697 80.2471 250.547 80.1787 251.348 80.0566L251.406 80.623C249.419 80.9844 247.285 80.999 245.723 80.9941L245.615 80.3594C246.343 80.3545 247.202 80.3496 248.105 80.3203V78.6895H248.857ZM245.879 78.3867C247.163 78.0059 248.066 77.0537 248.086 75.8867H246.094V75.252H248.105V74.1777H248.857V75.252H250.898V75.8867H248.857C248.882 77.0049 249.81 77.9229 251.094 78.2891L250.732 78.8945C249.692 78.582 248.872 77.9131 248.481 77.0342C248.105 77.9619 247.295 78.6553 246.25 78.9727L245.879 78.3867ZM251.924 82.8105V74.1094H252.686V82.8105H251.924ZM261.631 74.1094V82.791H260.898V78.2402H259.619V82.3418H258.916V74.3047H259.619V77.6055H260.898V74.1094H261.631ZM254.531 80.6426V75.1738H257.783V75.8086H255.293V79.9883C256.489 79.9834 257.314 79.9395 258.281 79.7441L258.35 80.3887C257.305 80.6035 256.421 80.6377 255.088 80.6426H254.531ZM268.135 82.0977C266.909 82.083 265.557 81.3555 265.557 78.7383C265.557 76.2334 266.582 74.832 268.242 74.832C269.487 74.832 270.356 75.5986 270.537 76.707H269.668C269.507 76.082 269.028 75.6133 268.242 75.6133C267.08 75.6133 266.382 76.6045 266.387 78.3086H266.475C266.88 77.7178 267.529 77.3711 268.291 77.3711C269.546 77.3711 270.596 78.3477 270.596 79.7148C270.596 81.0479 269.624 82.1123 268.135 82.0977ZM266.504 79.7344C266.509 80.5645 267.188 81.3213 268.135 81.3262C269.048 81.3213 269.741 80.6035 269.746 79.7246C269.741 78.8555 269.077 78.1475 268.154 78.1426C267.227 78.1475 266.514 78.8994 266.504 79.7344ZM274.434 75.7598C274.438 76.8975 275.288 77.9131 276.562 78.3281L276.201 78.9336C275.2 78.6016 274.443 77.9131 274.067 77.0391C273.696 78.0352 272.896 78.8115 271.855 79.1875L271.465 78.5723C272.764 78.1328 273.672 77.0146 273.682 75.7598V75.3887H271.699V74.7539H276.387V75.3887H274.434V75.7598ZM272.617 81.1699C272.622 80.1689 273.711 79.5879 275.498 79.5879C277.28 79.5879 278.359 80.1689 278.359 81.1699C278.359 82.1855 277.28 82.7715 275.498 82.7715C273.711 82.7715 272.622 82.1855 272.617 81.1699ZM273.389 81.1699C273.379 81.7949 274.189 82.1611 275.498 82.1562C276.812 82.1611 277.612 81.7949 277.617 81.1699C277.612 80.5645 276.812 80.2031 275.498 80.2031C274.189 80.2031 273.379 80.5645 273.389 81.1699ZM277.52 79.3535V74.1094H278.281V76.3262H279.59V76.9707H278.281V79.3535H277.52Z" fill="#989FA9"/>
</svg>
