<svg width="293" height="181" viewBox="0 0 293 181" fill="none" xmlns="http://www.w3.org/2000/svg">
<path d="M19.9932 20.1194V21.0159H16.8643V23.635H15.7568V21.0159H12.6719V20.1194H19.9932ZM13.5332 19.2581V16.0325H19.1143V19.2581H13.5332ZM14.6406 18.3792H17.998V16.9202H14.6406V18.3792ZM27.7803 21.8333V22.7561H20.459V21.8333H22.3311V20.6116H21.3027V17.9221H25.8291V17.0608H21.2939V16.1643H26.9365V18.8186H22.4277V19.7063H27.1211V20.6116H25.9873V21.8333H27.7803ZM23.4209 21.8333H24.8887V20.6116H23.4209V21.8333ZM29.5205 16.3577V18.1594H30.6104V16.3577H31.6475V21.7454H28.4658V16.3577H29.5205ZM29.5205 20.8489H30.6104V19.0383H29.5205V20.8489ZM32.3154 23.2747V15.76H33.3789V18.6956H34.0996V15.6458H35.1719V23.6438H34.0996V19.6096H33.3789V23.2747H32.3154ZM40.208 18.4758V19.4602H43.3105V20.3567H36.0156V19.4602H39.1006V18.4758H40.208ZM36.3936 18.0803C38.1602 17.8562 39.0786 16.9421 39.083 16.0413V15.7776H40.2256V16.0413C40.2212 16.9773 41.1177 17.8562 42.9238 18.0803L42.4932 18.9504C41.1396 18.7483 40.1465 18.1814 39.6411 17.3816C39.1313 18.177 38.1382 18.7527 36.7891 18.9504L36.3936 18.0803ZM36.8506 22.2288C36.8506 21.3191 37.9009 20.8005 39.6543 20.7961C41.3945 20.8005 42.4316 21.3191 42.4404 22.2288C42.4316 23.1384 41.3945 23.6482 39.6543 23.6438C37.9009 23.6482 36.8506 23.1384 36.8506 22.2288ZM37.9932 22.2288C37.9888 22.6199 38.5337 22.8088 39.6543 22.8088C40.7485 22.8088 41.311 22.6199 41.3154 22.2288C41.311 21.8289 40.7485 21.6531 39.6543 21.6487C38.5337 21.6531 37.9888 21.8289 37.9932 22.2288Z" fill="black"/>
<path d="M14.7058 49.2109C16.9206 49.2227 18.5144 50.3008 18.5144 51.9414C18.5144 53.4941 17.1316 54.5195 15.1511 54.6543V56.8398H19.4988V57.6133H9.95969V56.8398H14.2488V54.6543C12.28 54.5137 10.8972 53.4883 10.8972 51.9414C10.8972 50.3008 12.4968 49.2227 14.7058 49.2109ZM11.7878 51.9414C11.782 53.1426 13.0183 53.9219 14.7058 53.9336C16.3933 53.9219 17.6238 53.1426 17.6238 51.9414C17.6238 50.7637 16.3933 49.9668 14.7058 49.9727C13.0183 49.9668 11.782 50.7637 11.7878 51.9414ZM29.2131 51.0391V51.8008H22.0998V48.707H23.0022V51.0391H29.2131ZM20.7991 53.582V52.832H30.3381V53.582H20.7991ZM21.9944 55.2461V54.5195H29.1077V56.957H22.9436V58.0703H29.4827V58.8086H22.0178V56.2539H28.2053V55.2461H21.9944ZM40.0759 53.5469V54.3086H32.8806V49.5039H39.9705V50.2656H33.7947V53.5469H40.0759ZM31.6619 57.5312V56.7578H41.2009V57.5312H31.6619ZM51.1145 48.543V54.7188H50.2005V48.543H51.1145ZM43.0403 49.9141V49.1758H47.7981V52H43.9544V53.4414C45.8177 53.4531 47.2063 53.3945 48.8997 53.1133L49.0052 53.8867C47.2532 54.1562 45.8294 54.2148 43.9075 54.2148H43.0638V51.2734H46.8841V49.9141H43.0403ZM44.3411 58.8086V55.2812H51.1145V58.8086H44.3411ZM45.2434 58.0586H50.2122V56.0312H45.2434V58.0586ZM11.7412 68.4844V70.8516H14.2021V68.4844H15.1162V70.8516H17.7529V71.6133H8.21383V70.8516H10.8388V68.4844H11.7412ZM8.56539 67.5C10.3877 67.1836 12.4384 65.7363 12.4443 64.0312V63.2344H13.4052V64.0312C13.4111 65.7363 15.4736 67.2012 17.2959 67.5L16.9209 68.2617C15.2978 67.9395 13.6103 66.9082 12.9306 65.4434C12.2451 66.9023 10.5576 67.9512 8.95211 68.2617L8.56539 67.5ZM25.1704 63.4336V64.207H24.1157V67.248C24.6548 67.207 25.1821 67.1543 25.686 67.0898L25.7563 67.793C23.6177 68.127 21.1216 68.1621 19.3579 68.168L19.2407 67.3945C19.6509 67.3945 20.102 67.3945 20.5766 67.3887V64.207H19.5337V63.4336H25.1704ZM20.6938 71.0273C20.688 69.8379 22.018 69.1582 24.2095 69.1523C26.4009 69.1582 27.7368 69.8379 27.7368 71.0273C27.7368 72.2402 26.4009 72.9258 24.2095 72.9258C22.018 72.9258 20.688 72.2402 20.6938 71.0273ZM21.4673 67.3711C22.0415 67.3594 22.6333 67.3359 23.2251 67.3008V64.207H21.4673V67.3711ZM21.5962 71.0273C21.602 71.7656 22.5864 72.1992 24.2095 72.1992C25.8266 72.1992 26.8169 71.7656 26.811 71.0273C26.8169 70.3184 25.8266 69.8848 24.2095 69.8906C22.5864 69.8848 21.602 70.3184 21.5962 71.0273ZM26.7524 68.9297V62.543H27.6665V68.9297H26.7524ZM41.6812 63.1875V64.1484C41.6812 65.2266 41.6812 66.4277 41.312 68.1328H42.8999V68.9062H38.6343V72.9492H37.7085V68.9062H33.4077V68.1328H40.3921C40.5738 67.3945 40.6734 66.7383 40.732 66.1465L34.439 66.4688L34.3218 65.6602L40.7847 65.4375C40.8081 64.9805 40.8081 64.5527 40.814 64.1484V63.9492H34.6148V63.1875H41.6812ZM52.8487 63.0117V63.7734H51.2432V66.1641H52.8135V66.9023H49.462V68.1797H53.751V68.9297H44.2588V68.1797H48.5479V66.9023H45.1846V66.1641H46.7549V63.7734H45.1495V63.0117H52.8487ZM45.4893 72.7266V69.8438H46.4151V71.9531H52.6963V72.7266H45.4893ZM47.669 66.1641H50.3291V63.7734H47.669V66.1641Z" fill="black"/>
<path d="M26 12.321L27.8112 8.69867C28.4897 7.34161 30.0746 6.70478 31.5035 7.21508L47.4776 12.9201C48.9145 13.4333 49.7373 14.9433 49.3896 16.429L45.2885 33.9521C44.8724 35.73 42.9778 36.727 41.2768 36.0631L24 29.321M35 11.321C35 11.321 37 3.32099 42 5.32099C46.5 7.12098 43 14.321 43 14.321M10.5 28.821H19M17.5 34.321H28" stroke="black" stroke-linecap="round" stroke-linejoin="round"/>
<path d="M116.28 48.6602C118.595 48.6602 119.954 49.3047 119.96 50.4648C119.954 51.5605 118.765 52.1934 116.714 52.2695V53.0664H121.026V53.8164H111.534V53.0664H115.811V52.2695C113.772 52.1816 112.589 51.5547 112.589 50.4648C112.589 49.3047 113.954 48.6602 116.28 48.6602ZM112.683 55.4102V54.6953H119.808V57.0273H113.62V58.1055H120.124V58.832H112.706V56.3477H118.905V55.4102H112.683ZM113.55 50.4648C113.538 51.1797 114.552 51.5664 116.28 51.5781C118.009 51.5664 119.017 51.1797 119.022 50.4648C119.017 49.7793 118.009 49.375 116.28 49.3633C114.552 49.375 113.538 49.7793 113.55 50.4648ZM130.987 48.5312V58.9727H130.073V48.5312H130.987ZM122.971 50.2656V49.5039H127.823V53.207H123.932V55.668C125.661 55.6738 127.202 55.5918 129.065 55.293L129.159 56.0664C127.243 56.3652 125.661 56.4414 123.862 56.4414H122.995V52.457H126.897V50.2656H122.971ZM142.775 56.793V57.5664H133.236V56.793H142.775ZM134.361 54.707V49.2812H135.287V51.2266H140.701V49.2812H141.604V54.707H134.361ZM135.287 53.9688H140.701V51.9648H135.287V53.9688ZM153.005 48.5312V58.9492H152.115V48.5312H153.005ZM144.498 56.4414V49.8203H148.423V50.582H145.388V55.668C146.894 55.6562 147.843 55.6035 148.962 55.3516L149.056 56.1367C147.849 56.3828 146.83 56.4355 145.154 56.4414H144.498ZM147.72 53.2891V52.5156H149.994V48.7891H150.873V58.4102H149.994V53.2891H147.72ZM163.528 48.5312V58.9727H162.603V48.5312H163.528ZM155.325 52.9727C155.331 50.7578 156.433 49.3457 157.985 49.3398C159.532 49.3457 160.651 50.7578 160.646 52.9727C160.651 55.1934 159.532 56.5996 157.985 56.5938C156.433 56.5996 155.331 55.1934 155.325 52.9727ZM156.216 52.9727C156.216 54.666 156.942 55.7793 157.985 55.7734C159.034 55.7793 159.755 54.666 159.755 52.9727C159.755 51.2793 159.034 50.166 157.985 50.1602C156.942 50.166 156.216 51.2793 156.216 52.9727ZM115.612 67.4883V68.2617H106.109V67.4883H115.612ZM107.257 71.0508C107.251 69.8555 108.605 69.1758 110.855 69.1758C113.087 69.1758 114.429 69.8555 114.441 71.0508C114.429 72.2578 113.087 72.9258 110.855 72.9258C108.605 72.9258 107.251 72.2578 107.257 71.0508ZM107.316 66.4922V62.9531H114.429V63.7266H108.218V65.7422H114.499V66.4922H107.316ZM108.195 71.0508C108.183 71.7832 109.185 72.1992 110.855 72.1992C112.507 72.1992 113.509 71.7832 113.515 71.0508C113.509 70.3242 112.507 69.9023 110.855 69.8906C109.185 69.9023 108.183 70.3242 108.195 71.0508ZM119.116 68.4961V69.8789H124.331V68.4961H125.245V72.8086H118.202V68.4961H119.116ZM116.96 67.5586V66.7969H124.055C124.337 65.502 124.337 64.5703 124.331 63.7734H118.167V63.0117H125.245V63.7734C125.245 64.5703 125.245 65.4961 124.958 66.7969H126.499V67.5586H116.96ZM119.116 72.0586H124.331V70.6055H119.116V72.0586ZM136.436 62.5312V67.9805H135.522V66.6445H133.061V67.5586H128.338V63.0234H129.252V64.5234H132.158V63.0234H133.061V64.0312H135.522V62.5312H136.436ZM129.252 66.8086H132.158V65.25H129.252V66.8086ZM129.686 69.2227V68.4844H136.436V70.9336H130.623V72.0703H136.834V72.8086H129.709V70.2305H135.522V69.2227H129.686ZM133.061 65.918H135.522V64.7461H133.061V65.918ZM147.51 62.543V68.6367H146.631V65.9062H145.248V68.4961H144.381V62.7305H145.248V65.1445H146.631V62.543H147.51ZM138.674 67.6289C140.045 67.043 140.883 65.6953 140.888 64.5234V63.1406H141.767V64.5352C141.773 65.6836 142.576 66.8613 143.912 67.3711L143.431 68.0742C142.424 67.6816 141.703 66.9258 141.334 66.0234C140.947 67.0195 140.197 67.9043 139.177 68.3672L138.674 67.6289ZM140.631 72.8086V69.1641H147.51V72.8086H140.631ZM141.533 72.0586H146.607V69.9023H141.533V72.0586ZM158.103 62.8594V63.5859H156.497V65.6016H158.068V66.3164H150.439V65.6016H152.009V63.5859H150.404V62.8594H158.103ZM149.513 67.9336V67.1953H159.005V67.9336H149.513ZM150.661 69.5625V68.8711H157.786V71.1328H151.599V72.1289H158.103V72.832H150.685V70.4648H156.884V69.5625H150.661ZM152.923 65.6016H155.583V63.5859H152.923V65.6016ZM168.966 62.543V68.9531H168.052V62.543H168.966ZM160.891 63.9727V63.1992H165.649V66.0586H161.805V67.5352C163.669 67.5352 165.057 67.4824 166.751 67.207L166.856 67.9688C165.104 68.2559 163.68 68.3027 161.759 68.3086H160.915V65.332H164.735V63.9727H160.891ZM161.993 71.0508C161.987 69.8555 163.317 69.1641 165.509 69.1641C167.7 69.1641 169.036 69.8555 169.036 71.0508C169.036 72.2402 167.7 72.9258 165.509 72.9258C163.317 72.9258 161.987 72.2402 161.993 71.0508ZM162.895 71.0508C162.901 71.7656 163.886 72.1934 165.509 72.1875C167.126 72.1934 168.116 71.7656 168.11 71.0508C168.116 70.3359 167.126 69.9023 165.509 69.9023C163.886 69.9023 162.901 70.3359 162.895 71.0508Z" fill="black"/>
<path d="M100.14 79.071C100.14 80.282 101.019 81.4246 102.288 81.8835L101.858 82.4792C100.906 82.1033 100.145 81.3513 99.7734 80.4041C99.4072 81.4539 98.6162 82.2839 97.5908 82.6941L97.1807 82.0691C98.4844 81.5906 99.3828 80.3748 99.3877 79.0417V77.9675H100.14V79.071ZM98.7529 85.9265V83.2019H99.5244V85.282H104.563V85.9265H98.7529ZM101.663 80.1257V79.4812H103.597V77.4402H104.368V83.9441H103.597V80.1257H101.663ZM108.772 79.325C108.777 80.4041 109.646 81.3904 110.931 81.7761L110.56 82.3816C109.563 82.0691 108.792 81.405 108.411 80.5505C108.03 81.488 107.234 82.2058 106.214 82.5476L105.823 81.9421C107.117 81.5417 108.016 80.5017 108.021 79.325V79.1296H106.058V78.5144H108.021V77.4011H108.792V78.5144H110.735V79.1296H108.772V79.325ZM106.917 83.8171V83.1824H112.601V86.1316H111.839V83.8171H106.917ZM111.839 82.7332V77.4304H112.601V79.7546H113.909V80.4089H112.601V82.7332H111.839ZM118.812 78.0945C118.807 79.2322 120.389 80.2673 121.897 80.4968L121.595 81.1023C120.276 80.8777 118.968 80.1453 118.421 79.1345C117.874 80.1648 116.561 80.8875 115.237 81.1121L114.935 80.5066C116.453 80.2722 118.021 79.2664 118.021 78.0945V77.655H118.812V78.0945ZM114.446 82.489V81.8542H122.396V82.489H118.86V84.2664H118.099V82.489H114.446ZM115.462 85.9265V83.4167H116.233V85.282H121.507V85.9265H115.462ZM124.524 84.6667L123.763 87.323H123.04L123.577 84.6667H124.524ZM132.122 77.9968C133.968 78.0066 135.296 78.905 135.296 80.2722C135.296 81.5662 134.144 82.4207 132.493 82.533V84.3542H136.116V84.9988H128.167V84.3542H131.741V82.533C130.101 82.4158 128.948 81.5613 128.948 80.2722C128.948 78.905 130.281 78.0066 132.122 77.9968ZM129.69 80.2722C129.686 81.2732 130.716 81.9226 132.122 81.9324C133.528 81.9226 134.554 81.2732 134.554 80.2722C134.554 79.2908 133.528 78.6267 132.122 78.6316C130.716 78.6267 129.686 79.2908 129.69 80.2722ZM144.759 84.3445V84.9988H136.81V84.3445H144.759ZM137.513 78.9441V78.3093H143.997V78.9441H142.62V81.9812H143.978V82.6062H137.532V81.9812H138.89V78.9441H137.513ZM139.651 81.9812H141.868V78.9441H139.651V81.9812ZM152.171 77.4304V80.8875H153.626V81.532H152.171V86.1316H151.409V77.4304H152.171ZM145.794 78.8757V78.241H149.739V81.3464H146.575V83.3777C148.187 83.3826 149.314 83.3191 150.628 83.075L150.706 83.7097C149.339 83.9587 148.182 84.0222 146.507 84.032H145.813V80.7117H148.978V78.8757H145.794ZM161.263 77.4402V83.7878H160.501V77.4402H161.263ZM154.3 80.1746C154.295 78.9246 155.276 78.0505 156.575 78.0457C157.874 78.0505 158.846 78.9246 158.851 80.1746C158.846 81.4392 157.874 82.3181 156.575 82.3132C155.276 82.3181 154.295 81.4392 154.3 80.1746ZM155.052 80.1746C155.042 81.0388 155.696 81.6394 156.575 81.6394C157.439 81.6394 158.099 81.0388 158.099 80.1746C158.099 79.325 157.439 78.7195 156.575 78.7195C155.696 78.7195 155.042 79.325 155.052 80.1746ZM155.657 85.9265V83.1433H156.419V85.282H161.536V85.9265H155.657ZM172.034 77.4402V80.3015H173.343V80.946H172.034V83.9441H171.272V77.4402H172.034ZM165.267 79.1296V78.5046H167.474V77.4402H168.235V78.5046H170.442V79.1296H165.267ZM165.765 81.2292C165.76 80.2429 166.6 79.6082 167.854 79.6082C169.095 79.6082 169.935 80.2429 169.944 81.2292C169.935 82.2058 169.095 82.8357 167.854 82.8308C166.6 82.8357 165.76 82.2058 165.765 81.2292ZM166.497 81.2292C166.492 81.8396 167.034 82.2351 167.854 82.2253C168.665 82.2351 169.212 81.8396 169.222 81.2292C169.212 80.6091 168.665 80.2087 167.854 80.2136C167.034 80.2087 166.492 80.6091 166.497 81.2292ZM166.604 85.9265V83.4265H167.356V85.282H172.435V85.9265H166.604ZM181.087 77.4304V82.6062H180.315V80.3308H178.567V79.696H180.315V77.4304H181.087ZM173.929 81.9128C175.218 81.449 176.136 80.2722 176.136 79.032V78.7097H174.173V78.0652H178.851V78.7097H176.907V79.0222C176.907 80.155 177.776 81.2341 179.046 81.6687L178.646 82.2839C177.674 81.9324 176.917 81.2 176.541 80.3064C176.17 81.322 175.364 82.1326 174.329 82.5281L173.929 81.9128ZM175.296 84.491C175.291 83.4705 176.399 82.8748 178.206 82.8796C180.008 82.8748 181.116 83.4705 181.116 84.491C181.116 85.5164 180.008 86.1023 178.206 86.1121C176.399 86.1023 175.291 85.5164 175.296 84.491ZM176.058 84.491C176.053 85.1208 176.873 85.5017 178.206 85.4968C179.534 85.5017 180.354 85.1208 180.354 84.491C180.354 83.8562 179.534 83.4753 178.206 83.4753C176.873 83.4753 176.053 83.8562 176.058 84.491Z" fill="#989FA9"/>
<path d="M133 13.1512C133 13.1512 132.5 4.32104 138 4.32104C143.5 4.32104 143 13.1512 143 13.1512M129.293 30.321H146.713C148.478 30.321 149.861 28.8052 149.701 27.0478L148.365 12.444C148.224 10.8995 146.928 9.71727 145.377 9.71727H130.656C129.107 9.71727 127.813 10.8963 127.669 12.4385L126.306 27.0422C126.142 28.8016 127.526 30.321 129.293 30.321Z" stroke="black" stroke-linecap="round"/>
<path d="M144 15.321C144 14.2165 144.895 13.321 146 13.321H149C150.105 13.321 151 14.2165 151 15.321V20.321H144V15.321Z" fill="white" stroke="black"/>
<path d="M141 24.321C141 21.5596 143.239 19.321 146 19.321H149C151.761 19.321 154 21.5596 154 24.321V32.321C154 33.4256 153.105 34.321 152 34.321H143C141.895 34.321 141 33.4256 141 32.321V24.321Z" fill="white" stroke="black"/>
<path d="M241.233 45.543V51.5781H240.354V45.543H241.233ZM232.866 50.793V46.293H236.897V48.0859H238.362V45.7539H239.241V51.4492H238.362V48.8477H236.897V50.793H232.866ZM233.733 50.0898H236.041V47.0195H233.733V50.0898ZM234.354 55.8086V52.0938H241.233V55.8086H234.354ZM235.256 55.0586H240.331V52.8203H235.256V55.0586ZM251.873 45.5312V55.9727H250.959V50.1719H248.463V53.3359H243.658V46.3516H244.584V49.0703H247.561V46.3516H248.463V49.4102H250.959V45.5312H251.873ZM244.584 52.5742H247.561V49.8086H244.584V52.5742ZM262.689 45.543V51.4609H261.775V45.543H262.689ZM254.169 50.4648C255.746 49.9141 256.841 48.502 256.841 46.9727V45.9531H257.779V46.9727C257.767 48.4434 258.892 49.7441 260.427 50.2891L259.959 50.9922C258.751 50.5762 257.785 49.6973 257.316 48.5605C256.853 49.7676 255.88 50.7285 254.638 51.1914L254.169 50.4648ZM255.916 55.8086V52.0586H262.689V55.8086H255.916ZM256.818 55.0586H261.787V52.8086H256.818V55.0586ZM226.28 59.6602C228.595 59.6602 229.954 60.3047 229.96 61.4648C229.954 62.5605 228.765 63.1934 226.714 63.2695V64.0664H231.026V64.8164H221.534V64.0664H225.811V63.2695C223.772 63.1816 222.589 62.5547 222.589 61.4648C222.589 60.3047 223.954 59.6602 226.28 59.6602ZM222.683 66.4102V65.6953H229.808V68.0273H223.62V69.1055H230.124V69.832H222.706V67.3477H228.905V66.4102H222.683ZM223.55 61.4648C223.538 62.1797 224.552 62.5664 226.28 62.5781C228.009 62.5664 229.017 62.1797 229.022 61.4648C229.017 60.7793 228.009 60.375 226.28 60.3633C224.552 60.375 223.538 60.7793 223.55 61.4648ZM240.987 59.5312V69.9727H240.073V59.5312H240.987ZM232.971 61.2656V60.5039H237.823V64.207H233.932V66.668C235.661 66.6738 237.202 66.5918 239.065 66.293L239.159 67.0664C237.243 67.3652 235.661 67.4414 233.862 67.4414H232.995V63.457H236.897V61.2656H232.971ZM252.775 67.793V68.5664H243.236V67.793H252.775ZM244.361 65.707V60.2812H245.287V62.2266H250.701V60.2812H251.604V65.707H244.361ZM245.287 64.9688H250.701V62.9648H245.287V64.9688ZM259.677 60.6211C259.666 63.627 258.582 66.4043 254.814 68.25L254.298 67.5117C256.255 66.5742 257.462 65.373 258.119 63.9609L254.498 64.3125L254.345 63.4922L258.412 63.2227C258.599 62.6426 258.71 62.0273 258.757 61.3828H254.873V60.6211H259.677ZM261.775 69.9492V59.5312H262.701V69.9492H261.775ZM273.376 65.168V65.918H266.169V60.4336H273.259V61.207H267.106V62.7539H273.036V63.4922H267.106V65.168H273.376ZM264.939 68.5898V67.8281H274.478V68.5898H264.939Z" fill="black"/>
<path d="M217.782 77.75C217.782 78.9609 218.661 80.1035 219.931 80.5625L219.501 81.1582C218.549 80.7822 217.787 80.0303 217.416 79.083C217.05 80.1328 216.259 80.9629 215.233 81.373L214.823 80.748C216.127 80.2695 217.025 79.0537 217.03 77.7207V76.6465H217.782V77.75ZM216.396 84.6055V81.8809H217.167V83.9609H222.206V84.6055H216.396ZM219.306 78.8047V78.1602H221.239V76.1191H222.011V82.623H221.239V78.8047H219.306ZM226.415 78.0039C226.42 79.083 227.289 80.0693 228.573 80.4551L228.202 81.0605C227.206 80.748 226.435 80.084 226.054 79.2295C225.673 80.167 224.877 80.8848 223.856 81.2266L223.466 80.6211C224.76 80.2207 225.658 79.1807 225.663 78.0039V77.8086H223.7V77.1934H225.663V76.0801H226.435V77.1934H228.378V77.8086H226.415V78.0039ZM224.56 82.4961V81.8613H230.243V84.8105H229.481V82.4961H224.56ZM229.481 81.4121V76.1094H230.243V78.4336H231.552V79.0879H230.243V81.4121H229.481ZM236.454 76.7734C236.449 77.9111 238.031 78.9463 239.54 79.1758L239.237 79.7812C237.919 79.5566 236.61 78.8242 236.063 77.8135C235.517 78.8438 234.203 79.5664 232.88 79.791L232.577 79.1855C234.096 78.9512 235.663 77.9453 235.663 76.7734V76.334H236.454V76.7734ZM232.089 81.168V80.5332H240.038V81.168H236.503V82.9453H235.741V81.168H232.089ZM233.104 84.6055V82.0957H233.876V83.9609H239.149V84.6055H233.104ZM242.167 83.3457L241.405 86.002H240.683L241.22 83.3457H242.167ZM253.251 76.1094V84.791H252.509V80.1914H251.298V84.3516H250.565V76.2949H251.298V79.5566H252.509V76.1094H253.251ZM246.132 82.457V77.125H249.452V82.457H246.132ZM246.854 81.8418H248.729V77.7402H246.854V81.8418ZM261.61 76.1191V81.2363H260.839V80.7578H259.081V80.25H260.839V76.1191H261.61ZM254.423 79.3906C256.103 79.4004 258.251 79.3809 260.126 79.1758L260.175 79.6738C259.325 79.7959 258.441 79.8691 257.577 79.9082V81.2656H256.825V79.9375C256.005 79.9668 255.214 79.9668 254.511 79.9668L254.423 79.3906ZM255.097 77.5938C255.097 76.7881 255.946 76.2852 257.255 76.2852C258.549 76.2852 259.403 76.7881 259.413 77.5938C259.403 78.4043 258.549 78.8877 257.255 78.8926C255.946 78.8877 255.097 78.4043 255.097 77.5938ZM255.751 82.1055V81.5488H261.61V83.3457H256.542V84.127H261.894V84.6934H255.79V82.8086H260.849V82.1055H255.751ZM255.819 77.5938C255.814 78.0527 256.381 78.3652 257.255 78.3652C258.119 78.3652 258.686 78.0527 258.69 77.5938C258.686 77.1299 258.119 76.8174 257.255 76.8223C256.381 76.8174 255.814 77.1299 255.819 77.5938ZM268.505 77.5156C268.505 78.6973 269.403 79.7812 270.663 80.2109L270.243 80.8164C269.286 80.4648 268.529 79.7471 268.148 78.8389C267.777 79.8691 267.001 80.665 265.985 81.0605L265.575 80.4453C266.874 79.9619 267.748 78.7998 267.753 77.457V76.5586H268.505V77.5156ZM266.728 83.1895C266.732 82.1982 267.821 81.6172 269.608 81.6172C271.391 81.6172 272.47 82.1982 272.47 83.1895C272.47 84.2002 271.391 84.7715 269.608 84.7715C267.821 84.7715 266.732 84.2002 266.728 83.1895ZM267.499 83.1895C267.489 83.8047 268.3 84.1611 269.608 84.166C270.922 84.1611 271.723 83.8047 271.728 83.1895C271.723 82.5986 270.922 82.2324 269.608 82.2324C268.3 82.2324 267.489 82.5986 267.499 83.1895ZM271.63 81.3926V76.1094H272.392V78.375H273.7V79.0195H272.392V81.3926H271.63ZM281.405 76.1094V84.8105H280.634V76.1094H281.405ZM274.569 79.8105C274.574 77.9648 275.492 76.7881 276.786 76.7832C278.075 76.7881 279.008 77.9648 279.003 79.8105C279.008 81.6611 278.075 82.833 276.786 82.8281C275.492 82.833 274.574 81.6611 274.569 79.8105ZM275.312 79.8105C275.312 81.2217 275.917 82.1494 276.786 82.1445C277.66 82.1494 278.261 81.2217 278.261 79.8105C278.261 78.3994 277.66 77.4717 276.786 77.4668C275.917 77.4717 275.312 78.3994 275.312 79.8105Z" fill="#989FA9"/>
<path d="M247 5.70901H258C259.105 5.70901 260 6.60425 260 7.70869L260.003 26.9997C260.004 28.1044 259.108 29 258.003 29H236.003C234.899 29 234.004 28.1048 234.003 27.0003L234 7.70932C234 6.60463 234.896 5.70901 236 5.70901H240M247 5.70901C247 5.70901 245.004 2.6708 243.004 1.6584C241.589 0.942525 240.004 0.632154 239.004 1.6584C238.004 2.68464 238 5.70895 240 5.70901M247 5.70901H240M247 5.70901C247 5.70901 249.004 2.6708 251.004 1.6584C252.418 0.942525 254.004 0.632154 255.004 1.6584C256.004 2.68464 256 5.70895 254 5.70901" stroke="black"/>
<path d="M239 27C239 26.4477 239.448 26 240 26H251C251.552 26 252 26.4477 252 27V31C252 32.1046 251.105 33 250 33H241C239.895 33 239 32.1046 239 31V27Z" fill="white" stroke="black"/>
<path d="M240 25C240 24.4477 240.448 24 241 24V24H250V24C250.552 24 251 24.4477 251 25V26H240V25Z" fill="white"/>
<path d="M241 24V24C240.448 24 240 24.4477 240 25V26H251V25C251 24.4477 250.552 24 250 24V24M241 24C241 23.3333 241.8 22.4 243 22C244.5 21.5 246 22 247 21.5C247.447 21.2764 249 20 249 20C249.667 20.6667 250 21.2 250 22C250 22.8 250 23.6667 250 24M241 24H250" stroke="black" stroke-linejoin="round"/>
<rect x="254" y="26" width="10" height="7" rx="3" fill="white" stroke="black"/>
<rect x="257" y="18" width="4" height="8" fill="white" stroke="black"/>
<path d="M22.2471 129.088C20.6519 129.088 19.6895 127.901 19.6895 125.818C19.6895 123.74 20.6606 122.549 22.2471 122.549C23.8335 122.549 24.8047 123.74 24.8047 125.818C24.8047 127.91 23.8379 129.088 22.2471 129.088ZM21.043 125.818C21.0342 127.286 21.5088 127.998 22.2471 127.998C22.9854 127.998 23.4556 127.286 23.4512 125.818C23.4556 124.364 22.981 123.634 22.2471 123.63C21.5132 123.634 21.043 124.364 21.043 125.818ZM26.2285 129.079C25.8154 129.079 25.4814 128.75 25.4902 128.341C25.4814 127.937 25.8154 127.607 26.2285 127.611C26.6196 127.607 26.958 127.937 26.958 128.341C26.958 128.75 26.6196 129.079 26.2285 129.079ZM30.2803 129.088C28.9531 129.088 27.9819 128.306 27.96 127.207H29.2432C29.2739 127.704 29.7266 128.046 30.2803 128.042C30.9395 128.046 31.4097 127.581 31.4053 126.917C31.4097 126.24 30.9307 125.77 30.2627 125.766C29.7837 125.766 29.4497 125.946 29.2607 126.302H28.0654L28.4082 122.637H32.3281V123.718H29.498L29.3223 125.326H29.375C29.6079 125.014 30.0913 124.786 30.6494 124.79C31.8184 124.786 32.6885 125.66 32.6885 126.882C32.6885 128.169 31.7129 129.088 30.2803 129.088ZM35.2549 125.818C34.3013 125.818 33.7871 125.124 33.7871 124.122C33.7871 123.116 34.3276 122.417 35.2549 122.417C36.2085 122.417 36.7183 123.116 36.7227 124.122C36.7183 125.133 36.1953 125.818 35.2549 125.818ZM34.6836 124.122C34.688 124.671 34.8857 125.032 35.2549 125.036C35.6328 125.032 35.8218 124.671 35.8262 124.122C35.8218 123.573 35.6504 123.199 35.2549 123.199C34.8813 123.204 34.688 123.582 34.6836 124.122ZM34.7012 129L39.0781 122.637H40.0625L35.6855 129H34.7012ZM38.085 127.515C38.085 126.508 38.6255 125.814 39.5439 125.81C40.5063 125.814 41.0161 126.508 41.0205 127.515C41.0161 128.525 40.4932 129.211 39.5439 129.211C38.5991 129.211 38.085 128.517 38.085 127.515ZM38.9814 127.515C38.9858 128.064 39.1836 128.429 39.5439 128.429C39.9307 128.429 40.1196 128.064 40.124 127.515C40.1196 126.965 39.9438 126.592 39.5439 126.601C39.1748 126.596 38.9858 126.974 38.9814 127.515Z" fill="black"/>
<path d="M14.6965 158.188C14.4504 157.016 13.4484 156.383 12.3293 156.383C10.7941 156.383 9.60469 157.566 9.59883 159.758C9.60469 161.943 10.7941 163.127 12.3293 163.133C13.4484 163.127 14.4445 162.5 14.6965 161.34H15.7512C15.4465 163.074 14.052 164.117 12.3293 164.117C10.1496 164.117 8.57344 162.441 8.5793 159.758C8.57344 157.074 10.1496 155.398 12.3293 155.398C14.0461 155.398 15.4348 156.424 15.7512 158.188H14.6965ZM20.9538 155.516H22.0202V161.574C22.0144 163.203 21.0652 164.117 19.5827 164.117C18.1765 164.117 17.157 163.314 17.157 161.996H18.1999C18.2058 162.717 18.7859 163.18 19.5827 163.18C20.4558 163.18 20.9538 162.623 20.9538 161.574V155.516ZM35.0388 159.758C35.0447 162.441 33.4627 164.117 31.2888 164.117C29.1091 164.117 27.533 162.441 27.5388 159.758C27.533 157.074 29.1091 155.398 31.2888 155.398C33.4627 155.398 35.0447 157.074 35.0388 159.758ZM28.5584 159.758C28.5642 161.943 29.7537 163.127 31.2888 163.133C32.824 163.127 34.0134 161.943 34.0193 159.758C34.0134 157.566 32.824 156.383 31.2888 156.383C29.7537 156.383 28.5642 157.566 28.5584 159.758ZM43.804 155.516V164H42.7962L38.2024 157.391H38.1204V164H37.0657V155.516H38.0852L42.679 162.137H42.761V155.516H43.804ZM46.159 164V155.516H51.3035V156.453H47.2137V159.289H51.034V160.215H47.2137V163.062H51.3621V164H46.159ZM11.3273 176.875V177.66H1.78828V176.875H6.06562V174.473H2.65547V173.734H4.28437V170.312H2.63203V169.551H10.4133V170.312H8.76094V173.734H10.3898V174.473H6.96797V176.875H11.3273ZM5.19844 173.734H7.85859V170.312H5.19844V173.734ZM21.2409 168.543V176.16H20.3269V168.543H21.2409ZM12.8855 171.824C12.8796 170.324 14.0573 169.275 15.6159 169.27C17.1745 169.275 18.3405 170.324 18.3464 171.824C18.3405 173.342 17.1745 174.396 15.6159 174.391C14.0573 174.396 12.8796 173.342 12.8855 171.824ZM13.7878 171.824C13.7761 172.861 14.5612 173.582 15.6159 173.582C16.653 173.582 17.4441 172.861 17.4441 171.824C17.4441 170.805 16.653 170.078 15.6159 170.078C14.5612 170.078 13.7761 170.805 13.7878 171.824ZM14.5144 178.727V175.387H15.4284V177.953H21.5691V178.727H14.5144ZM31.928 174.168V174.918H24.7209V169.434H31.8108V170.207H25.6584V171.754H31.5881V172.492H25.6584V174.168H31.928ZM23.4905 177.59V176.828H33.0295V177.59H23.4905ZM41.4544 170.453C41.4544 171.807 42.4973 173.102 44.0208 173.629L43.5403 174.355C42.3684 173.934 41.4602 173.061 41.0149 171.988C40.5637 173.184 39.597 174.145 38.3606 174.602L37.8802 173.875C39.4153 173.324 40.5286 171.936 40.5286 170.465V170.008H38.1731V169.258H43.7864V170.008H41.4544V170.453ZM39.4622 176.09V175.328H46.47V178.949H45.5442V176.09H39.4622ZM43.4583 172.035V171.262H45.5442V168.531H46.47V174.777H45.5442V172.035H43.4583ZM57.2859 168.543V174.262H56.3719V168.543H57.2859ZM49.2117 169.809V169.047H53.9695V171.859H50.1258V173.277C51.9891 173.266 53.3777 173.225 55.0711 172.949L55.1766 173.711C53.4246 173.986 52.0008 174.039 50.0789 174.051H49.2352V171.133H53.0555V169.809H49.2117ZM50.5125 178.809V174.789H51.4383V176.031H56.3719V174.789H57.2859V178.809H50.5125ZM51.4383 178.059H56.3719V176.77H51.4383V178.059Z" fill="black"/>
<circle cx="29.5" cy="126.5" r="15" stroke="black"/>
</svg>
