<svg width="307" height="314" viewBox="0 0 307 314" fill="none" xmlns="http://www.w3.org/2000/svg">
<path d="M176 111.321H132.5V122.321C132.5 122.321 135.5 122.821 135.5 126.321C135.5 129.321 132.5 129.821 132.5 129.821V140.821H176V129.821C176 129.821 172.5 129.321 172.5 126.321C172.5 122.821 176 122.321 176 122.321V111.321Z" stroke="black" stroke-linejoin="round"/>
<path d="M142.796 125.594C142.714 125.048 142.293 124.716 141.716 124.713C140.947 124.716 140.438 125.304 140.438 126.346C140.438 127.413 140.954 127.977 141.709 127.98C142.273 127.977 142.697 127.669 142.796 127.133L143.835 127.139C143.722 128.055 142.953 128.889 141.695 128.889C140.373 128.889 139.392 127.956 139.392 126.346C139.392 124.73 140.39 123.803 141.695 123.803C142.837 123.803 143.698 124.456 143.835 125.594H142.796ZM149.085 126.346C149.085 127.963 148.083 128.889 146.774 128.889C145.455 128.889 144.457 127.956 144.457 126.346C144.457 124.73 145.455 123.803 146.774 123.803C148.083 123.803 149.085 124.73 149.085 126.346ZM145.503 126.346C145.503 127.403 146.005 127.977 146.774 127.98C147.537 127.977 148.042 127.403 148.039 126.346C148.042 125.287 147.537 124.716 146.774 124.713C146.005 124.716 145.503 125.287 145.503 126.346ZM152.886 123.872H153.918V127.085C153.918 128.168 153.094 128.893 151.867 128.889C150.637 128.893 149.823 128.168 149.823 127.085V123.872H150.849V127.003C150.852 127.573 151.255 127.984 151.867 127.987C152.486 127.984 152.889 127.573 152.886 127.003V123.872ZM154.752 128.821V123.872H156.693C157.818 123.872 158.464 124.566 158.464 125.54C158.464 126.528 157.808 127.208 156.666 127.208H155.777V128.821H154.752ZM155.777 126.381H156.502C157.11 126.381 157.408 126.039 157.404 125.54C157.408 125.048 157.11 124.716 156.502 124.713H155.777V126.381ZM163.646 126.346C163.646 127.963 162.644 128.889 161.335 128.889C160.016 128.889 159.018 127.956 159.018 126.346C159.018 124.73 160.016 123.803 161.335 123.803C162.644 123.803 163.646 124.73 163.646 126.346ZM160.063 126.346C160.063 127.403 160.566 127.977 161.335 127.98C162.097 127.977 162.603 127.403 162.6 126.346C162.603 125.287 162.097 124.716 161.335 124.713C160.566 124.716 160.063 125.287 160.063 126.346ZM168.513 123.872V128.821H167.624L165.45 125.677H165.409V128.821H164.384V123.872H165.286L167.446 127.016H167.494V123.872H168.513Z" fill="black"/>
<path d="M132.28 151.66C134.595 151.66 135.954 152.305 135.96 153.465C135.954 154.561 134.765 155.193 132.714 155.27V156.066H137.026V156.816H127.534V156.066H131.811V155.27C129.772 155.182 128.589 154.555 128.589 153.465C128.589 152.305 129.954 151.66 132.28 151.66ZM128.683 158.41V157.695H135.808V160.027H129.62V161.105H136.124V161.832H128.706V159.348H134.905V158.41H128.683ZM129.55 153.465C129.538 154.18 130.552 154.566 132.28 154.578C134.009 154.566 135.017 154.18 135.022 153.465C135.017 152.779 134.009 152.375 132.28 152.363C130.552 152.375 129.538 152.779 129.55 153.465ZM146.987 151.531V161.973H146.073V151.531H146.987ZM138.971 153.266V152.504H143.823V156.207H139.932V158.668C141.661 158.674 143.202 158.592 145.065 158.293L145.159 159.066C143.243 159.365 141.661 159.441 139.862 159.441H138.995V155.457H142.897V153.266H138.971ZM158.775 159.793V160.566H149.236V159.793H158.775ZM150.361 157.707V152.281H151.287V154.227H156.701V152.281H157.604V157.707H150.361ZM151.287 156.969H156.701V154.965H151.287V156.969ZM169.005 151.531V161.949H168.115V151.531H169.005ZM160.498 159.441V152.82H164.423V153.582H161.388V158.668C162.894 158.656 163.843 158.604 164.962 158.352L165.056 159.137C163.849 159.383 162.83 159.436 161.154 159.441H160.498ZM163.72 156.289V155.516H165.994V151.789H166.873V161.41H165.994V156.289H163.72ZM179.528 151.531V161.973H178.603V151.531H179.528ZM171.325 155.973C171.331 153.758 172.433 152.346 173.985 152.34C175.532 152.346 176.651 153.758 176.646 155.973C176.651 158.193 175.532 159.6 173.985 159.594C172.433 159.6 171.331 158.193 171.325 155.973ZM172.216 155.973C172.216 157.666 172.942 158.779 173.985 158.773C175.034 158.779 175.755 157.666 175.755 155.973C175.755 154.279 175.034 153.166 173.985 153.16C172.942 153.166 172.216 154.279 172.216 155.973ZM134.636 165.543V171.578H133.757V165.543H134.636ZM126.269 170.793V166.293H130.3V168.086H131.765V165.754H132.644V171.449H131.765V168.848H130.3V170.793H126.269ZM127.136 170.09H129.445V167.02H127.136V170.09ZM127.757 175.809V172.094H134.636V175.809H127.757ZM128.659 175.059H133.734V172.82H128.659V175.059ZM145.276 165.531V175.973H144.362V170.172H141.866V173.336H137.061V166.352H137.987V169.07H140.964V166.352H141.866V169.41H144.362V165.531H145.276ZM137.987 172.574H140.964V169.809H137.987V172.574ZM151.182 166.867C151.17 168.303 152.295 169.604 153.842 170.113L153.397 170.828C152.172 170.406 151.199 169.539 150.725 168.426C150.256 169.627 149.272 170.582 148.03 171.027L147.561 170.289C149.131 169.744 150.244 168.373 150.244 166.867V165.883H151.182V166.867ZM149.342 175.809V171.648H150.256V172.914H155.178V171.648H156.092V175.809H149.342ZM150.256 175.059H155.178V173.652H150.256V175.059ZM155.178 171.121V165.531H156.092V171.121H155.178ZM170.107 166.188V167.148C170.107 168.227 170.107 169.428 169.738 171.133H171.325V171.906H167.06V175.949H166.134V171.906H161.833V171.133H168.818C168.999 170.395 169.099 169.738 169.157 169.146L162.865 169.469L162.747 168.66L169.21 168.438C169.234 167.98 169.234 167.553 169.24 167.148V166.949H163.04V166.188H170.107ZM181.274 166.012V166.773H179.669V169.164H181.239V169.902H177.888V171.18H182.177V171.93H172.684V171.18H176.973V169.902H173.61V169.164H175.18V166.773H173.575V166.012H181.274ZM173.915 175.727V172.844H174.841V174.953H181.122V175.727H173.915ZM176.095 169.164H178.755V166.773H176.095V169.164Z" fill="black"/>
<path d="M66.5 2H23V13C23 13 26 13.5 26 17C26 20 23 20.5 23 20.5V31.5H66.5V20.5C66.5 20.5 63 20 63 17C63 13.5 66.5 13 66.5 13V2Z" stroke="black" stroke-linejoin="round"/>
<path d="M33.7959 16.2734C33.7139 15.7266 33.2935 15.395 32.7158 15.3916C31.9468 15.395 31.4375 15.9829 31.4375 17.0254C31.4375 18.0918 31.9536 18.6558 32.709 18.6592C33.2729 18.6558 33.6968 18.3481 33.7959 17.8115L34.835 17.8184C34.7222 18.7344 33.9531 19.5684 32.6953 19.5684C31.3726 19.5684 30.3916 18.6353 30.3916 17.0254C30.3916 15.4087 31.3896 14.4824 32.6953 14.4824C33.8369 14.4824 34.6982 15.1353 34.835 16.2734H33.7959ZM40.085 17.0254C40.085 18.6421 39.0835 19.5684 37.7744 19.5684C36.4551 19.5684 35.457 18.6353 35.457 17.0254C35.457 15.4087 36.4551 14.4824 37.7744 14.4824C39.0835 14.4824 40.085 15.4087 40.085 17.0254ZM36.5029 17.0254C36.5029 18.0815 37.0054 18.6558 37.7744 18.6592C38.5366 18.6558 39.0425 18.0815 39.0391 17.0254C39.0425 15.9658 38.5366 15.395 37.7744 15.3916C37.0054 15.395 36.5029 15.9658 36.5029 17.0254ZM43.8857 14.5508H44.918V17.7637C44.918 18.8472 44.0942 19.5718 42.8672 19.5684C41.6367 19.5718 40.8232 18.8472 40.8232 17.7637V14.5508H41.8486V17.6816C41.8521 18.2524 42.2554 18.6626 42.8672 18.666C43.4858 18.6626 43.8892 18.2524 43.8857 17.6816V14.5508ZM45.752 19.5V14.5508H47.6934C48.8179 14.5508 49.4639 15.2446 49.4639 16.2188C49.4639 17.2065 48.8076 17.8867 47.666 17.8867H46.7773V19.5H45.752ZM46.7773 17.0596H47.502C48.1104 17.0596 48.4077 16.7178 48.4043 16.2188C48.4077 15.7266 48.1104 15.395 47.502 15.3916H46.7773V17.0596ZM54.6455 17.0254C54.6455 18.6421 53.644 19.5684 52.335 19.5684C51.0156 19.5684 50.0176 18.6353 50.0176 17.0254C50.0176 15.4087 51.0156 14.4824 52.335 14.4824C53.644 14.4824 54.6455 15.4087 54.6455 17.0254ZM51.0635 17.0254C51.0635 18.0815 51.5659 18.6558 52.335 18.6592C53.0972 18.6558 53.603 18.0815 53.5996 17.0254C53.603 15.9658 53.0972 15.395 52.335 15.3916C51.5659 15.395 51.0635 15.9658 51.0635 17.0254ZM59.5127 14.5508V19.5H58.624L56.4502 16.3555H56.4092V19.5H55.3838V14.5508H56.2861L58.4463 17.6953H58.4941V14.5508H59.5127Z" fill="black"/>
<path d="M38.2329 44.543V50.5781H37.354V44.543H38.2329ZM29.8657 49.793V45.293H33.897V47.0859H35.3618V44.7539H36.2407V50.4492H35.3618V47.8477H33.897V49.793H29.8657ZM30.7329 49.0898H33.0415V46.0195H30.7329V49.0898ZM31.354 54.8086V51.0938H38.2329V54.8086H31.354ZM32.2563 54.0586H37.3305V51.8203H32.2563V54.0586ZM48.873 44.5312V54.9727H47.959V49.1719H45.4629V52.3359H40.6582V45.3516H41.584V48.0703H44.5605V45.3516H45.4629V48.4102H47.959V44.5312H48.873ZM41.584 51.5742H44.5605V48.8086H41.584V51.5742ZM54.7788 45.8672C54.7671 47.3027 55.8921 48.6035 57.439 49.1133L56.9937 49.8281C55.7691 49.4062 54.7964 48.5391 54.3218 47.4258C53.853 48.627 52.8687 49.582 51.6265 50.0273L51.1577 49.2891C52.728 48.7441 53.8413 47.373 53.8413 45.8672V44.8828H54.7788V45.8672ZM52.939 54.8086V50.6484H53.853V51.9141H58.7749V50.6484H59.689V54.8086H52.939ZM53.853 54.0586H58.7749V52.6523H53.853V54.0586ZM58.7749 50.1211V44.5312H59.689V50.1211H58.7749ZM25.7412 64.4844V66.8516H28.2021V64.4844H29.1162V66.8516H31.7529V67.6133H22.2138V66.8516H24.8388V64.4844H25.7412ZM22.5654 63.5C24.3877 63.1836 26.4384 61.7363 26.4443 60.0312V59.2344H27.4052V60.0312C27.4111 61.7363 29.4736 63.2012 31.2959 63.5L30.9209 64.2617C29.2978 63.9395 27.6103 62.9082 26.9306 61.4434C26.2451 62.9023 24.5576 63.9512 22.9521 64.2617L22.5654 63.5ZM39.1704 59.4336V60.207H38.1157V63.248C38.6548 63.207 39.1821 63.1543 39.686 63.0898L39.7563 63.793C37.6177 64.127 35.1216 64.1621 33.3579 64.168L33.2407 63.3945C33.6509 63.3945 34.102 63.3945 34.5766 63.3887V60.207H33.5337V59.4336H39.1704ZM34.6938 67.0273C34.688 65.8379 36.018 65.1582 38.2095 65.1523C40.4009 65.1582 41.7368 65.8379 41.7368 67.0273C41.7368 68.2402 40.4009 68.9258 38.2095 68.9258C36.018 68.9258 34.688 68.2402 34.6938 67.0273ZM35.4673 63.3711C36.0415 63.3594 36.6333 63.3359 37.2251 63.3008V60.207H35.4673V63.3711ZM35.5962 67.0273C35.602 67.7656 36.5864 68.1992 38.2095 68.1992C39.8266 68.1992 40.8169 67.7656 40.811 67.0273C40.8169 66.3184 39.8266 65.8848 38.2095 65.8906C36.5864 65.8848 35.602 66.3184 35.5962 67.0273ZM40.7524 64.9297V58.543H41.6665V64.9297H40.7524ZM55.6812 59.1875V60.1484C55.6812 61.2266 55.6812 62.4277 55.312 64.1328H56.8999V64.9062H52.6343V68.9492H51.7085V64.9062H47.4077V64.1328H54.3921C54.5738 63.3945 54.6734 62.7383 54.732 62.1465L48.439 62.4688L48.3218 61.6602L54.7847 61.4375C54.8081 60.9805 54.8081 60.5527 54.814 60.1484V59.9492H48.6148V59.1875H55.6812ZM66.8487 59.0117V59.7734H65.2432V62.1641H66.8135V62.9023H63.462V64.1797H67.751V64.9297H58.2588V64.1797H62.5479V62.9023H59.1846V62.1641H60.7549V59.7734H59.1495V59.0117H66.8487ZM59.4893 68.7266V65.8438H60.4151V67.9531H66.6963V68.7266H59.4893ZM61.669 62.1641H64.3291V59.7734H61.669V62.1641Z" fill="black"/>
<path d="M143.993 14.2842V15.1807H140.864V17.7998H139.757V15.1807H136.672V14.2842H143.993ZM137.533 13.4229V10.1973H143.114V13.4229H137.533ZM138.641 12.5439H141.998V11.085H138.641V12.5439ZM151.78 15.998V16.9209H144.459V15.998H146.331V14.7764H145.303V12.0869H149.829V11.2256H145.294V10.3291H150.937V12.9834H146.428V13.8711H151.121V14.7764H149.987V15.998H151.78ZM147.421 15.998H148.889V14.7764H147.421V15.998ZM153.521 10.5225V12.3242H154.61V10.5225H155.647V15.9102H152.466V10.5225H153.521ZM153.521 15.0137H154.61V13.2031H153.521V15.0137ZM156.315 17.4395V9.9248H157.379V12.8604H158.1V9.81055H159.172V17.8086H158.1V13.7744H157.379V17.4395H156.315ZM164.208 12.6406V13.625H167.311V14.5215H160.016V13.625H163.101V12.6406H164.208ZM160.394 12.2451C162.16 12.021 163.079 11.1069 163.083 10.2061V9.94238H164.226V10.2061C164.221 11.1421 165.118 12.021 166.924 12.2451L166.493 13.1152C165.14 12.9131 164.146 12.3462 163.641 11.5464C163.131 12.3418 162.138 12.9175 160.789 13.1152L160.394 12.2451ZM160.851 16.3936C160.851 15.4839 161.901 14.9653 163.654 14.9609C165.395 14.9653 166.432 15.4839 166.44 16.3936C166.432 17.3032 165.395 17.813 163.654 17.8086C161.901 17.813 160.851 17.3032 160.851 16.3936ZM161.993 16.3936C161.989 16.7847 162.534 16.9736 163.654 16.9736C164.749 16.9736 165.311 16.7847 165.315 16.3936C165.311 15.9937 164.749 15.8179 163.654 15.8135C162.534 15.8179 161.989 15.9937 161.993 16.3936Z" fill="black"/>
<path d="M142.452 49.0859V49.8477H132.96V49.0859H137.249V47.9961C135.251 47.8906 134.014 47.1406 134.014 45.9102C134.014 44.627 135.444 43.8535 137.706 43.8477C139.944 43.8535 141.38 44.627 141.385 45.9102C141.38 47.1406 140.137 47.8906 138.163 47.9961V49.0859H142.452ZM134.19 53.7266V50.6914H135.116V52.9531H141.397V53.7266H134.19ZM134.964 45.9102C134.958 46.7598 136.024 47.2461 137.706 47.2461C139.376 47.2461 140.442 46.7598 140.448 45.9102C140.442 45.1133 139.376 44.5977 137.706 44.5977C136.024 44.5977 134.958 45.1133 134.964 45.9102ZM151.873 43.5312V47.6797H153.619V48.4531H151.873V53.9727H150.959V43.5312H151.873ZM144.221 45.2656V44.5039H148.955V48.2305H145.158V50.668C147.092 50.6738 148.446 50.5977 150.022 50.3047L150.115 51.0664C148.475 51.3652 147.086 51.4414 145.076 51.4531H144.244V47.4688H148.041V45.2656H144.221ZM163.263 43.543V51.1602H162.349V43.543H163.263ZM154.908 46.8242C154.902 45.3242 156.08 44.2754 157.638 44.2695C159.197 44.2754 160.363 45.3242 160.369 46.8242C160.363 48.3418 159.197 49.3965 157.638 49.3906C156.08 49.3965 154.902 48.3418 154.908 46.8242ZM155.81 46.8242C155.799 47.8613 156.584 48.582 157.638 48.582C158.676 48.582 159.467 47.8613 159.467 46.8242C159.467 45.8047 158.676 45.0781 157.638 45.0781C156.584 45.0781 155.799 45.8047 155.81 46.8242ZM156.537 53.7266V50.3867H157.451V52.9531H163.592V53.7266H156.537ZM175.005 48.0898V48.8516H165.513V48.0898H169.79V47.0586H166.743V43.8828H173.775V47.0586H170.693V48.0898H175.005ZM166.661 50.4336V49.7188H173.786V52.0508H167.599V53.1055H174.103V53.832H166.685V51.3594H172.884V50.4336H166.661ZM167.658 46.3203H172.861V44.6211H167.658V46.3203ZM132.479 58.5273V61.0703H134.741V58.5273H135.597V65.3477H131.601V58.5273H132.479ZM132.479 64.5859H134.741V61.8203H132.479V64.5859ZM136.921 67.4219V57.7539H137.8V61.668H139.253V57.5312H140.144V67.9492H139.253V62.4297H137.8V67.4219H136.921ZM147.256 61.1758V62.7109H151.557V63.4609H142.065V62.7109H146.354V61.1758H147.256ZM142.639 60.9883C144.479 60.7363 146.342 59.5762 146.342 58.1875V57.6953H147.268V58.1875C147.268 59.5762 149.143 60.7363 150.983 60.9883L150.608 61.7266C149.032 61.4512 147.461 60.6133 146.811 59.4121C146.155 60.625 144.59 61.4512 142.991 61.7266L142.639 60.9883ZM143.213 66.1328C143.208 64.9785 144.549 64.334 146.811 64.3281C149.049 64.334 150.385 64.9785 150.397 66.1328C150.385 67.293 149.049 67.9258 146.811 67.9258C144.549 67.9258 143.208 67.293 143.213 66.1328ZM144.151 66.1328C144.139 66.8184 145.124 67.2168 146.811 67.2109C148.481 67.2168 149.465 66.8184 149.471 66.1328C149.465 65.4414 148.481 65.0547 146.811 65.0547C145.124 65.0547 144.139 65.4414 144.151 66.1328ZM164.681 58.1875V59.1484C164.681 60.2266 164.681 61.4277 164.312 63.1328H165.9V63.9062H161.634V67.9492H160.709V63.9062H156.408V63.1328H163.392C163.574 62.3945 163.673 61.7383 163.732 61.1465L157.439 61.4688L157.322 60.6602L163.785 60.4375C163.808 59.9805 163.808 59.5527 163.814 59.1484V58.9492H157.615V58.1875H164.681ZM175.849 58.0117V58.7734H174.243V61.1641H175.814V61.9023H172.462V63.1797H176.751V63.9297H167.259V63.1797H171.548V61.9023H168.185V61.1641H169.755V58.7734H168.149V58.0117H175.849ZM168.489 67.7266V64.8438H169.415V66.9531H175.696V67.7266H168.489ZM170.669 61.1641H173.329V58.7734H170.669V61.1641Z" fill="black"/>
<path d="M170 5V6L176 15V21.5C176 23.7091 174.209 25.5 172 25.5H170V28H135C132.791 28 131 26.2091 131 24V5C131 2.79086 132.791 1 135 1H166C168.209 1 170 2.79086 170 5Z" stroke="black"/>
<circle cx="165" cy="27" r="5" fill="white" stroke="black"/>
<circle cx="139" cy="27" r="5" fill="white" stroke="black"/>
<path d="M251.993 17.1194V18.0159H248.864V20.635H247.757V18.0159H244.672V17.1194H251.993ZM245.533 16.2581V13.0325H251.114V16.2581H245.533ZM246.641 15.3792H249.998V13.9202H246.641V15.3792ZM259.78 18.8333V19.7561H252.459V18.8333H254.331V17.6116H253.303V14.9221H257.829V14.0608H253.294V13.1643H258.937V15.8186H254.428V16.7063H259.121V17.6116H257.987V18.8333H259.78ZM255.421 18.8333H256.889V17.6116H255.421V18.8333ZM261.521 13.3577V15.1594H262.61V13.3577H263.647V18.7454H260.466V13.3577H261.521ZM261.521 17.8489H262.61V16.0383H261.521V17.8489ZM264.315 20.2747V12.76H265.379V15.6956H266.1V12.6458H267.172V20.6438H266.1V16.6096H265.379V20.2747H264.315ZM272.208 15.4758V16.4602H275.311V17.3567H268.016V16.4602H271.101V15.4758H272.208ZM268.394 15.0803C270.16 14.8562 271.079 13.9421 271.083 13.0413V12.7776H272.226V13.0413C272.221 13.9773 273.118 14.8562 274.924 15.0803L274.493 15.9504C273.14 15.7483 272.146 15.1814 271.641 14.3816C271.131 15.177 270.138 15.7527 268.789 15.9504L268.394 15.0803ZM268.851 19.2288C268.851 18.3191 269.901 17.8005 271.654 17.7961C273.395 17.8005 274.432 18.3191 274.44 19.2288C274.432 20.1384 273.395 20.6482 271.654 20.6438C269.901 20.6482 268.851 20.1384 268.851 19.2288ZM269.993 19.2288C269.989 19.6199 270.534 19.8088 271.654 19.8088C272.749 19.8088 273.311 19.6199 273.315 19.2288C273.311 18.8289 272.749 18.6531 271.654 18.6487C270.534 18.6531 269.989 18.8289 269.993 19.2288Z" fill="black"/>
<path d="M246.706 46.2109C248.921 46.2227 250.514 47.3008 250.514 48.9414C250.514 50.4941 249.132 51.5195 247.151 51.6543V53.8398H251.499V54.6133H241.96V53.8398H246.249V51.6543C244.28 51.5137 242.897 50.4883 242.897 48.9414C242.897 47.3008 244.497 46.2227 246.706 46.2109ZM243.788 48.9414C243.782 50.1426 245.018 50.9219 246.706 50.9336C248.393 50.9219 249.624 50.1426 249.624 48.9414C249.624 47.7637 248.393 46.9668 246.706 46.9727C245.018 46.9668 243.782 47.7637 243.788 48.9414ZM261.213 48.0391V48.8008H254.1V45.707H255.002V48.0391H261.213ZM252.799 50.582V49.832H262.338V50.582H252.799ZM253.994 52.2461V51.5195H261.108V53.957H254.944V55.0703H261.483V55.8086H254.018V53.2539H260.205V52.2461H253.994ZM272.076 50.5469V51.3086H264.881V46.5039H271.97V47.2656H265.795V50.5469H272.076ZM263.662 54.5312V53.7578H273.201V54.5312H263.662ZM283.115 45.543V51.7188H282.2V45.543H283.115ZM275.04 46.9141V46.1758H279.798V49H275.954V50.4414C277.818 50.4531 279.206 50.3945 280.9 50.1133L281.005 50.8867C279.253 51.1562 277.829 51.2148 275.908 51.2148H275.064V48.2734H278.884V46.9141H275.04ZM276.341 55.8086V52.2812H283.115V55.8086H276.341ZM277.243 55.0586H282.212V53.0312H277.243V55.0586ZM243.741 65.4844V67.8516H246.202V65.4844H247.116V67.8516H249.753V68.6133H240.214V67.8516H242.839V65.4844H243.741ZM240.565 64.5C242.388 64.1836 244.438 62.7363 244.444 61.0312V60.2344H245.405V61.0312C245.411 62.7363 247.474 64.2012 249.296 64.5L248.921 65.2617C247.298 64.9395 245.61 63.9082 244.931 62.4434C244.245 63.9023 242.558 64.9512 240.952 65.2617L240.565 64.5ZM257.17 60.4336V61.207H256.116V64.248C256.655 64.207 257.182 64.1543 257.686 64.0898L257.756 64.793C255.618 65.127 253.122 65.1621 251.358 65.168L251.241 64.3945C251.651 64.3945 252.102 64.3945 252.577 64.3887V61.207H251.534V60.4336H257.17ZM252.694 68.0273C252.688 66.8379 254.018 66.1582 256.209 66.1523C258.401 66.1582 259.737 66.8379 259.737 68.0273C259.737 69.2402 258.401 69.9258 256.209 69.9258C254.018 69.9258 252.688 69.2402 252.694 68.0273ZM253.467 64.3711C254.041 64.3594 254.633 64.3359 255.225 64.3008V61.207H253.467V64.3711ZM253.596 68.0273C253.602 68.7656 254.586 69.1992 256.209 69.1992C257.827 69.1992 258.817 68.7656 258.811 68.0273C258.817 67.3184 257.827 66.8848 256.209 66.8906C254.586 66.8848 253.602 67.3184 253.596 68.0273ZM258.752 65.9297V59.543H259.666V65.9297H258.752ZM273.681 60.1875V61.1484C273.681 62.2266 273.681 63.4277 273.312 65.1328H274.9V65.9062H270.634V69.9492H269.709V65.9062H265.408V65.1328H272.392C272.574 64.3945 272.673 63.7383 272.732 63.1465L266.439 63.4688L266.322 62.6602L272.785 62.4375C272.808 61.9805 272.808 61.5527 272.814 61.1484V60.9492H266.615V60.1875H273.681ZM284.849 60.0117V60.7734H283.243V63.1641H284.814V63.9023H281.462V65.1797H285.751V65.9297H276.259V65.1797H280.548V63.9023H277.185V63.1641H278.755V60.7734H277.149V60.0117H284.849ZM277.489 69.7266V66.8438H278.415V68.9531H284.696V69.7266H277.489ZM279.669 63.1641H282.329V60.7734H279.669V63.1641Z" fill="black"/>
<path d="M258 9.32099L259.811 5.69867C260.49 4.34161 262.075 3.70478 263.503 4.21508L279.478 9.92012C280.914 10.4333 281.737 11.9433 281.39 13.429L277.288 30.9521C276.872 32.73 274.978 33.727 273.277 33.0631L256 26.321M267 8.32099C267 8.32099 269 0.32099 274 2.32099C278.5 4.12098 275 11.321 275 11.321M242.5 25.821H251M249.5 31.321H260" stroke="black" stroke-linecap="round" stroke-linejoin="round"/>
<path d="M33.4988 161.613H23.9597V160.828H33.4988V161.613ZM32.5847 154.348H24.8034V153.586H32.5847V154.348ZM32.5613 158.742H24.8269V157.992H32.5613V158.742ZM27.3698 158.086H26.4558V154.277H27.3698V158.086ZM30.9323 158.086H30.03V154.277H30.9323V158.086ZM43.4123 162.973H42.4983V152.531H43.4123V162.973ZM36.2873 159.668C37.2327 159.672 38.1116 159.646 38.9241 159.592C39.7405 159.537 40.5959 159.438 41.4905 159.293L41.5842 160.066C40.678 160.207 39.8108 160.305 38.9827 160.359C38.1545 160.414 37.2561 160.441 36.2873 160.441H35.4202V159.668H36.2873ZM40.2483 157.207H36.3577V159.961H35.4202V156.457H39.3225V154.266H35.3967V153.504H40.2483V157.207ZM51.0877 160.336H46.2712V153.562H51.0877V160.336ZM47.1736 159.586H50.1853V154.301H47.1736V159.586ZM54.2517 162.973H53.3259V152.531H54.2517V162.973ZM64.4934 155.941H61.6809V155.18H64.4934V155.941ZM59.3841 153.141C59.8958 153.141 60.3548 153.244 60.761 153.451C61.1712 153.658 61.4915 153.947 61.722 154.318C61.9563 154.689 62.0755 155.113 62.0794 155.59C62.0755 156.07 61.9563 156.498 61.722 156.873C61.4915 157.244 61.1712 157.533 60.761 157.74C60.3548 157.947 59.8958 158.051 59.3841 158.051C58.8645 158.051 58.3977 157.947 57.9837 157.74C57.5735 157.533 57.2532 157.244 57.0227 156.873C56.7923 156.498 56.677 156.07 56.677 155.59C56.677 155.113 56.7923 154.689 57.0227 154.318C57.2532 153.947 57.5735 153.658 57.9837 153.451C58.3977 153.244 58.8645 153.141 59.3841 153.141ZM59.3841 153.914C59.0325 153.914 58.718 153.984 58.4407 154.125C58.1634 154.266 57.9466 154.465 57.7903 154.723C57.6341 154.977 57.5559 155.266 57.5559 155.59C57.5559 155.918 57.6341 156.209 57.7903 156.463C57.9466 156.717 58.1634 156.916 58.4407 157.061C58.718 157.201 59.0325 157.273 59.3841 157.277C59.7239 157.273 60.0305 157.201 60.304 157.061C60.5813 156.916 60.7981 156.717 60.9544 156.463C61.1106 156.205 61.1888 155.914 61.1888 155.59C61.1888 155.266 61.1106 154.977 60.9544 154.723C60.7981 154.465 60.5813 154.266 60.304 154.125C60.0305 153.984 59.7239 153.914 59.3841 153.914ZM65.1497 158.52H64.2239V152.531H65.1497V158.52ZM65.1497 162.809H58.3411V159.059H65.1497V162.809ZM59.2552 162.059H64.2473V159.809H59.2552V162.059ZM26.3273 175.566H16.7883V174.793H26.3273V175.566ZM18.8391 169.227H24.2531V167.281H25.1555V172.707H17.9133V167.281H18.8391V169.227ZM24.2531 171.969V169.965H18.8391V171.969H24.2531ZM36.487 174.301H35.6081V166.543H36.487V174.301ZM35.8894 170.434H33.8855V169.66H35.8894V170.434ZM34.1433 173.996H33.2878V166.742H34.1433V173.996ZM36.8034 176.727H29.655V175.953H36.8034V176.727ZM30.5691 176.234H29.655V173.586H30.5691V176.234ZM28.7995 171.992C29.6042 171.988 30.2976 171.965 30.8796 171.922C31.4616 171.879 32.0573 171.797 32.6667 171.676L32.7722 172.414C32.1277 172.539 31.5046 172.625 30.903 172.672C30.3054 172.715 29.6042 172.734 28.7995 172.73H28.1198V171.992H28.7995ZM32.0456 170.41H29.0105V172.379H28.1198V169.684H31.1667V168.184H28.0964V167.434H32.0456V170.41ZM46.9045 172.309H39.7092V171.547H46.9045V172.309ZM48.0295 175.531H38.4905V174.758H48.0295V175.531ZM46.7991 168.266H40.6233V171.887H39.7092V167.504H46.7991V168.266ZM53.8645 170.469L53.7473 169.66L60.4622 169.426V170.129L53.8645 170.469ZM60.6028 167.949H54.0403V167.188H60.6028V167.949ZM62.3255 172.906H52.8333V172.133H62.3255V172.906ZM58.0598 176.949H57.1341V172.707H58.0598V176.949ZM61.1067 168.195C61.1067 168.695 61.0989 169.135 61.0833 169.514C61.0677 169.893 61.0286 170.326 60.9661 170.814C60.9075 171.299 60.8137 171.82 60.6848 172.379L59.7825 172.262C59.9153 171.742 60.0149 171.252 60.0813 170.791C60.1477 170.326 60.1887 169.912 60.2044 169.549C60.2239 169.182 60.2356 168.746 60.2395 168.242V168.148V167.188H61.1067V168.148V168.195ZM72.2742 167.773H64.575V167.012H72.2742V167.773ZM72.2391 170.902H64.6102V170.164H72.2391V170.902ZM67.0945 170.492H66.1805V167.375H67.0945V170.492ZM70.6688 170.492H69.7547V167.375H70.6688V170.492ZM73.1766 172.93H63.6844V172.18H73.1766V172.93ZM68.8875 172.648H67.9734V170.656H68.8875V172.648ZM72.1219 176.727H64.9148V175.953H72.1219V176.727ZM65.8406 176.211H64.9148V173.844H65.8406V176.211Z" fill="black"/>
<path d="M33 126.321C33 124.112 34.7909 122.321 37 122.321H43C45.2091 122.321 47 124.112 47 126.321V138.321C47 138.873 46.5523 139.321 46 139.321H34C33.4477 139.321 33 138.873 33 138.321V126.321Z" stroke="black" stroke-linejoin="round"/>
<path d="M37 118.321C37 117.769 37.4477 117.321 38 117.321H42C42.5523 117.321 43 117.769 43 118.321V122.321H37V118.321Z" stroke="black"/>
<path d="M38 113.321C38 112.216 38.8954 111.321 40 111.321V111.321C41.1046 111.321 42 112.216 42 113.321V117.321H38V113.321Z" stroke="black"/>
<rect x="50" y="126.321" width="8" height="13" rx="1" stroke="black" stroke-linejoin="round"/>
<path d="M52 116.59V126.321H57V119.151C57 119.151 57 118.331 55 117.102C53 115.873 52.1667 116.419 52 116.59Z" stroke="black" stroke-linecap="round" stroke-linejoin="round"/>
<path d="M58 112.321V116.321" stroke="black" stroke-linecap="round" stroke-linejoin="round"/>
<path d="M60 114.321L56 114.321" stroke="black" stroke-linecap="round" stroke-linejoin="round"/>
<path d="M239.28 151.66C241.595 151.66 242.954 152.305 242.96 153.465C242.954 154.561 241.765 155.193 239.714 155.27V156.066H244.026V156.816H234.534V156.066H238.811V155.27C236.772 155.182 235.589 154.555 235.589 153.465C235.589 152.305 236.954 151.66 239.28 151.66ZM235.683 158.41V157.695H242.808V160.027H236.62V161.105H243.124V161.832H235.706V159.348H241.905V158.41H235.683ZM236.55 153.465C236.538 154.18 237.552 154.566 239.28 154.578C241.009 154.566 242.017 154.18 242.022 153.465C242.017 152.779 241.009 152.375 239.28 152.363C237.552 152.375 236.538 152.779 236.55 153.465ZM253.987 151.531V161.973H253.073V151.531H253.987ZM245.971 153.266V152.504H250.823V156.207H246.932V158.668C248.661 158.674 250.202 158.592 252.065 158.293L252.159 159.066C250.243 159.365 248.661 159.441 246.862 159.441H245.995V155.457H249.897V153.266H245.971ZM265.775 159.793V160.566H256.236V159.793H265.775ZM257.361 157.707V152.281H258.287V154.227H263.701V152.281H264.604V157.707H257.361ZM258.287 156.969H263.701V154.965H258.287V156.969ZM276.005 151.531V161.949H275.115V151.531H276.005ZM267.498 159.441V152.82H271.423V153.582H268.388V158.668C269.894 158.656 270.843 158.604 271.962 158.352L272.056 159.137C270.849 159.383 269.83 159.436 268.154 159.441H267.498ZM270.72 156.289V155.516H272.994V151.789H273.873V161.41H272.994V156.289H270.72ZM286.528 151.531V161.973H285.603V151.531H286.528ZM278.325 155.973C278.331 153.758 279.433 152.346 280.985 152.34C282.532 152.346 283.651 153.758 283.646 155.973C283.651 158.193 282.532 159.6 280.985 159.594C279.433 159.6 278.331 158.193 278.325 155.973ZM279.216 155.973C279.216 157.666 279.942 158.779 280.985 158.773C282.034 158.779 282.755 157.666 282.755 155.973C282.755 154.279 282.034 153.166 280.985 153.16C279.942 153.166 279.216 154.279 279.216 155.973ZM238.612 170.488V171.262H229.109V170.488H238.612ZM230.257 174.051C230.251 172.855 231.605 172.176 233.855 172.176C236.087 172.176 237.429 172.855 237.441 174.051C237.429 175.258 236.087 175.926 233.855 175.926C231.605 175.926 230.251 175.258 230.257 174.051ZM230.316 169.492V165.953H237.429V166.727H231.218V168.742H237.499V169.492H230.316ZM231.195 174.051C231.183 174.783 232.185 175.199 233.855 175.199C235.507 175.199 236.509 174.783 236.515 174.051C236.509 173.324 235.507 172.902 233.855 172.891C232.185 172.902 231.183 173.324 231.195 174.051ZM242.116 171.496V172.879H247.331V171.496H248.245V175.809H241.202V171.496H242.116ZM239.96 170.559V169.797H247.055C247.337 168.502 247.337 167.57 247.331 166.773H241.167V166.012H248.245V166.773C248.245 167.57 248.245 168.496 247.958 169.797H249.499V170.559H239.96ZM242.116 175.059H247.331V173.605H242.116V175.059ZM259.436 165.531V170.98H258.522V169.645H256.061V170.559H251.338V166.023H252.252V167.523H255.158V166.023H256.061V167.031H258.522V165.531H259.436ZM252.252 169.809H255.158V168.25H252.252V169.809ZM252.686 172.223V171.484H259.436V173.934H253.623V175.07H259.834V175.809H252.709V173.23H258.522V172.223H252.686ZM256.061 168.918H258.522V167.746H256.061V168.918ZM270.51 165.543V171.637H269.631V168.906H268.248V171.496H267.381V165.73H268.248V168.145H269.631V165.543H270.51ZM261.674 170.629C263.045 170.043 263.883 168.695 263.888 167.523V166.141H264.767V167.535C264.773 168.684 265.576 169.861 266.912 170.371L266.431 171.074C265.424 170.682 264.703 169.926 264.334 169.023C263.947 170.02 263.197 170.904 262.177 171.367L261.674 170.629ZM263.631 175.809V172.164H270.51V175.809H263.631ZM264.533 175.059H269.607V172.902H264.533V175.059ZM281.103 165.859V166.586H279.497V168.602H281.068V169.316H273.439V168.602H275.009V166.586H273.404V165.859H281.103ZM272.513 170.934V170.195H282.005V170.934H272.513ZM273.661 172.562V171.871H280.786V174.133H274.599V175.129H281.103V175.832H273.685V173.465H279.884V172.562H273.661ZM275.923 168.602H278.583V166.586H275.923V168.602ZM291.966 165.543V171.953H291.052V165.543H291.966ZM283.891 166.973V166.199H288.649V169.059H284.805V170.535C286.669 170.535 288.057 170.482 289.751 170.207L289.856 170.969C288.104 171.256 286.68 171.303 284.759 171.309H283.915V168.332H287.735V166.973H283.891ZM284.993 174.051C284.987 172.855 286.317 172.164 288.509 172.164C290.7 172.164 292.036 172.855 292.036 174.051C292.036 175.24 290.7 175.926 288.509 175.926C286.317 175.926 284.987 175.24 284.993 174.051ZM285.895 174.051C285.901 174.766 286.886 175.193 288.509 175.188C290.126 175.193 291.116 174.766 291.11 174.051C291.116 173.336 290.126 172.902 288.509 172.902C286.886 172.902 285.901 173.336 285.895 174.051Z" fill="black"/>
<path d="M223.14 186.071C223.14 187.282 224.019 188.425 225.288 188.884L224.858 189.479C223.906 189.103 223.145 188.351 222.773 187.404C222.407 188.454 221.616 189.284 220.591 189.694L220.181 189.069C221.484 188.591 222.383 187.375 222.388 186.042V184.968H223.14V186.071ZM221.753 192.927V190.202H222.524V192.282H227.563V192.927H221.753ZM224.663 187.126V186.481H226.597V184.44H227.368V190.944H226.597V187.126H224.663ZM231.772 186.325C231.777 187.404 232.646 188.39 233.931 188.776L233.56 189.382C232.563 189.069 231.792 188.405 231.411 187.551C231.03 188.488 230.234 189.206 229.214 189.548L228.823 188.942C230.117 188.542 231.016 187.502 231.021 186.325V186.13H229.058V185.514H231.021V184.401H231.792V185.514H233.735V186.13H231.772V186.325ZM229.917 190.817V190.182H235.601V193.132H234.839V190.817H229.917ZM234.839 189.733V184.43H235.601V186.755H236.909V187.409H235.601V189.733H234.839ZM241.812 185.094C241.807 186.232 243.389 187.267 244.897 187.497L244.595 188.102C243.276 187.878 241.968 187.145 241.421 186.135C240.874 187.165 239.561 187.887 238.237 188.112L237.935 187.507C239.453 187.272 241.021 186.266 241.021 185.094V184.655H241.812V185.094ZM237.446 189.489V188.854H245.396V189.489H241.86V191.266H241.099V189.489H237.446ZM238.462 192.927V190.417H239.233V192.282H244.507V192.927H238.462ZM247.524 191.667L246.763 194.323H246.04L246.577 191.667H247.524ZM255.122 184.997C256.968 185.007 258.296 185.905 258.296 187.272C258.296 188.566 257.144 189.421 255.493 189.533V191.354H259.116V191.999H251.167V191.354H254.741V189.533C253.101 189.416 251.948 188.561 251.948 187.272C251.948 185.905 253.281 185.007 255.122 184.997ZM252.69 187.272C252.686 188.273 253.716 188.923 255.122 188.932C256.528 188.923 257.554 188.273 257.554 187.272C257.554 186.291 256.528 185.627 255.122 185.632C253.716 185.627 252.686 186.291 252.69 187.272ZM267.759 191.344V191.999H259.81V191.344H267.759ZM260.513 185.944V185.309H266.997V185.944H265.62V188.981H266.978V189.606H260.532V188.981H261.89V185.944H260.513ZM262.651 188.981H264.868V185.944H262.651V188.981ZM275.171 184.43V187.887H276.626V188.532H275.171V193.132H274.409V184.43H275.171ZM268.794 185.876V185.241H272.739V188.346H269.575V190.378C271.187 190.383 272.314 190.319 273.628 190.075L273.706 190.71C272.339 190.959 271.182 191.022 269.507 191.032H268.813V187.712H271.978V185.876H268.794ZM284.263 184.44V190.788H283.501V184.44H284.263ZM277.3 187.175C277.295 185.925 278.276 185.051 279.575 185.046C280.874 185.051 281.846 185.925 281.851 187.175C281.846 188.439 280.874 189.318 279.575 189.313C278.276 189.318 277.295 188.439 277.3 187.175ZM278.052 187.175C278.042 188.039 278.696 188.639 279.575 188.639C280.439 188.639 281.099 188.039 281.099 187.175C281.099 186.325 280.439 185.719 279.575 185.719C278.696 185.719 278.042 186.325 278.052 187.175ZM278.657 192.927V190.143H279.419V192.282H284.536V192.927H278.657ZM295.034 184.44V187.302H296.343V187.946H295.034V190.944H294.272V184.44H295.034ZM288.267 186.13V185.505H290.474V184.44H291.235V185.505H293.442V186.13H288.267ZM288.765 188.229C288.76 187.243 289.6 186.608 290.854 186.608C292.095 186.608 292.935 187.243 292.944 188.229C292.935 189.206 292.095 189.836 290.854 189.831C289.6 189.836 288.76 189.206 288.765 188.229ZM289.497 188.229C289.492 188.84 290.034 189.235 290.854 189.225C291.665 189.235 292.212 188.84 292.222 188.229C292.212 187.609 291.665 187.209 290.854 187.214C290.034 187.209 289.492 187.609 289.497 188.229ZM289.604 192.927V190.427H290.356V192.282H295.435V192.927H289.604ZM304.087 184.43V189.606H303.315V187.331H301.567V186.696H303.315V184.43H304.087ZM296.929 188.913C298.218 188.449 299.136 187.272 299.136 186.032V185.71H297.173V185.065H301.851V185.71H299.907V186.022C299.907 187.155 300.776 188.234 302.046 188.669L301.646 189.284C300.674 188.932 299.917 188.2 299.541 187.306C299.17 188.322 298.364 189.133 297.329 189.528L296.929 188.913ZM298.296 191.491C298.291 190.47 299.399 189.875 301.206 189.88C303.008 189.875 304.116 190.47 304.116 191.491C304.116 192.516 303.008 193.102 301.206 193.112C299.399 193.102 298.291 192.516 298.296 191.491ZM299.058 191.491C299.053 192.121 299.873 192.502 301.206 192.497C302.534 192.502 303.354 192.121 303.354 191.491C303.354 190.856 302.534 190.475 301.206 190.475C299.873 190.475 299.053 190.856 299.058 191.491Z" fill="#989FA9"/>
<path d="M256 120.151C256 120.151 255.5 111.321 261 111.321C266.5 111.321 266 120.151 266 120.151M252.293 137.321H269.713C271.478 137.321 272.861 135.805 272.701 134.048L271.365 119.444C271.224 117.899 269.928 116.717 268.377 116.717H253.656C252.107 116.717 250.813 117.896 250.669 119.438L249.306 134.042C249.142 135.802 250.526 137.321 252.293 137.321Z" stroke="black" stroke-linecap="round"/>
<path d="M267 122.321C267 121.216 267.895 120.321 269 120.321H272C273.105 120.321 274 121.216 274 122.321V127.321H267V122.321Z" fill="white" stroke="black"/>
<path d="M264 131.321C264 128.56 266.239 126.321 269 126.321H272C274.761 126.321 277 128.56 277 131.321V139.321C277 140.426 276.105 141.321 275 141.321H266C264.895 141.321 264 140.426 264 139.321V131.321Z" fill="white" stroke="black"/>
<path d="M37.2329 271.543V277.578H36.354V271.543H37.2329ZM28.8657 276.793V272.293H32.897V274.086H34.3618V271.754H35.2407V277.449H34.3618V274.848H32.897V276.793H28.8657ZM29.7329 276.09H32.0415V273.02H29.7329V276.09ZM30.354 281.809V278.094H37.2329V281.809H30.354ZM31.2563 281.059H36.3305V278.82H31.2563V281.059ZM47.873 271.531V281.973H46.959V276.172H44.4629V279.336H39.6582V272.352H40.584V275.07H43.5605V272.352H44.4629V275.41H46.959V271.531H47.873ZM40.584 278.574H43.5605V275.809H40.584V278.574ZM58.689 271.543V277.461H57.7749V271.543H58.689ZM50.1695 276.465C51.7456 275.914 52.8413 274.502 52.8413 272.973V271.953H53.7788V272.973C53.7671 274.443 54.8921 275.744 56.4273 276.289L55.9585 276.992C54.7515 276.576 53.7847 275.697 53.3159 274.561C52.853 275.768 51.8804 276.729 50.6382 277.191L50.1695 276.465ZM51.9155 281.809V278.059H58.689V281.809H51.9155ZM52.8179 281.059H57.7866V278.809H52.8179V281.059ZM24.3193 287.605C24.3252 288.76 25.1279 289.926 26.4638 290.43L25.9834 291.133C24.9814 290.746 24.2607 290.002 23.8857 289.105C23.5048 290.096 22.7548 290.98 21.7295 291.426L21.2255 290.711C22.5966 290.113 23.4345 288.766 23.4404 287.605V286.188H24.3193V287.605ZM23.124 294.074C23.1123 292.896 24.4482 292.205 26.6162 292.211C28.7724 292.205 30.1142 292.896 30.1201 294.074C30.1142 295.24 28.7724 295.926 26.6162 295.926C24.4482 295.926 23.1123 295.24 23.124 294.074ZM24.038 294.074C24.0263 294.783 25.0166 295.217 26.6162 295.211C28.1982 295.217 29.1943 294.783 29.206 294.074C29.1943 293.354 28.1982 292.92 26.6162 292.914C25.0166 292.92 24.0263 293.354 24.038 294.074ZM26.9326 291.648V285.742H27.7998V288.344H29.1826V285.543H30.0615V291.977H29.1826V289.105H27.7998V291.648H26.9326ZM35.018 285.918C36.5766 285.924 37.7075 286.873 37.7134 288.227C37.7075 289.586 36.5766 290.523 35.018 290.523C33.4419 290.523 32.3052 289.586 32.311 288.227C32.3052 286.873 33.4419 285.924 35.018 285.918ZM33.2134 288.227C33.2016 289.141 33.9692 289.773 35.018 289.773C36.0493 289.773 36.8227 289.141 36.8227 288.227C36.8227 287.324 36.0493 286.686 35.018 286.691C33.9692 286.686 33.2016 287.324 33.2134 288.227ZM33.893 292.129V291.391H40.6665V293.898H34.8188V295.07H41.0415V295.809H33.9165V293.207H39.7524V292.129H33.893ZM39.7524 290.887V285.531H40.6665V290.887H39.7524ZM54.6812 286.188V287.148C54.6812 288.227 54.6812 289.428 54.312 291.133H55.8999V291.906H51.6343V295.949H50.7085V291.906H46.4077V291.133H53.3921C53.5738 290.395 53.6734 289.738 53.732 289.146L47.439 289.469L47.3218 288.66L53.7847 288.438C53.8081 287.98 53.8081 287.553 53.814 287.148V286.949H47.6148V286.188H54.6812ZM65.8487 286.012V286.773H64.2432V289.164H65.8135V289.902H62.462V291.18H66.751V291.93H57.2588V291.18H61.5479V289.902H58.1846V289.164H59.7549V286.773H58.1495V286.012H65.8487ZM58.4893 295.727V292.844H59.4151V294.953H65.6963V295.727H58.4893ZM60.669 289.164H63.3291V286.773H60.669V289.164Z" fill="black"/>
<path d="M24.5781 303.838C24.583 304.8 25.252 305.771 26.3652 306.191L25.9648 306.777C25.1299 306.455 24.5293 305.835 24.2168 305.088C23.8994 305.913 23.2744 306.65 22.4199 307.021L22 306.426C23.1426 305.928 23.8408 304.805 23.8457 303.838V302.656H24.5781V303.838ZM23.582 309.229C23.5723 308.247 24.6855 307.671 26.4922 307.676C28.2891 307.671 29.4072 308.247 29.4121 309.229C29.4072 310.2 28.2891 310.771 26.4922 310.771C24.6855 310.771 23.5723 310.2 23.582 309.229ZM24.3438 309.229C24.334 309.819 25.1592 310.181 26.4922 310.176C27.8105 310.181 28.6406 309.819 28.6504 309.229C28.6406 308.628 27.8105 308.267 26.4922 308.262C25.1592 308.267 24.334 308.628 24.3438 309.229ZM26.7559 307.207V302.285H27.4785V304.453H28.6309V302.119H29.3633V307.48H28.6309V305.088H27.4785V307.207H26.7559ZM33.0938 302.432C34.3926 302.437 35.335 303.228 35.3398 304.355C35.335 305.488 34.3926 306.27 33.0938 306.27C31.7803 306.27 30.833 305.488 30.8379 304.355C30.833 303.228 31.7803 302.437 33.0938 302.432ZM31.5898 304.355C31.5801 305.117 32.2197 305.645 33.0938 305.645C33.9531 305.645 34.5977 305.117 34.5977 304.355C34.5977 303.604 33.9531 303.071 33.0938 303.076C32.2197 303.071 31.5801 303.604 31.5898 304.355ZM32.1562 307.607V306.992H37.8008V309.082H32.9277V310.059H38.1133V310.674H32.1758V308.506H37.0391V307.607H32.1562ZM37.0391 306.572V302.109H37.8008V306.572H37.0391ZM46.4336 302.119V307.236H45.6621V306.758H43.9043V306.25H45.6621V302.119H46.4336ZM39.2461 305.391C40.9258 305.4 43.0742 305.381 44.9492 305.176L44.998 305.674C44.1484 305.796 43.2646 305.869 42.4004 305.908V307.266H41.6484V305.938C40.8281 305.967 40.0371 305.967 39.334 305.967L39.2461 305.391ZM39.9199 303.594C39.9199 302.788 40.7695 302.285 42.0781 302.285C43.3721 302.285 44.2266 302.788 44.2363 303.594C44.2266 304.404 43.3721 304.888 42.0781 304.893C40.7695 304.888 39.9199 304.404 39.9199 303.594ZM40.5742 308.105V307.549H46.4336V309.346H41.3652V310.127H46.7168V310.693H40.6133V308.809H45.6719V308.105H40.5742ZM40.6426 303.594C40.6377 304.053 41.2041 304.365 42.0781 304.365C42.9424 304.365 43.5088 304.053 43.5137 303.594C43.5088 303.13 42.9424 302.817 42.0781 302.822C41.2041 302.817 40.6377 303.13 40.6426 303.594ZM57.2148 302.119V304.98H58.5234V305.625H57.2148V308.623H56.4531V302.119H57.2148ZM50.4473 303.809V303.184H52.6543V302.119H53.416V303.184H55.623V303.809H50.4473ZM50.9453 305.908C50.9404 304.922 51.7803 304.287 53.0352 304.287C54.2754 304.287 55.1152 304.922 55.125 305.908C55.1152 306.885 54.2754 307.515 53.0352 307.51C51.7803 307.515 50.9404 306.885 50.9453 305.908ZM51.6777 305.908C51.6729 306.519 52.2148 306.914 53.0352 306.904C53.8457 306.914 54.3926 306.519 54.4023 305.908C54.3926 305.288 53.8457 304.888 53.0352 304.893C52.2148 304.888 51.6729 305.288 51.6777 305.908ZM51.7852 310.605V308.105H52.5371V309.961H57.6152V310.605H51.7852ZM66.2676 302.109V307.285H65.4961V305.01H63.748V304.375H65.4961V302.109H66.2676ZM59.1094 306.592C60.3984 306.128 61.3164 304.951 61.3164 303.711V303.389H59.3535V302.744H64.0312V303.389H62.0879V303.701C62.0879 304.834 62.957 305.913 64.2266 306.348L63.8262 306.963C62.8545 306.611 62.0977 305.879 61.7217 304.985C61.3506 306.001 60.5449 306.812 59.5098 307.207L59.1094 306.592ZM60.4766 309.17C60.4717 308.149 61.5801 307.554 63.3867 307.559C65.1885 307.554 66.2969 308.149 66.2969 309.17C66.2969 310.195 65.1885 310.781 63.3867 310.791C61.5801 310.781 60.4717 310.195 60.4766 309.17ZM61.2383 309.17C61.2334 309.8 62.0537 310.181 63.3867 310.176C64.7148 310.181 65.5352 309.8 65.5352 309.17C65.5352 308.535 64.7148 308.154 63.3867 308.154C62.0537 308.154 61.2334 308.535 61.2383 309.17Z" fill="#989FA9"/>
<path d="M30 248V256H58V248M30 248V241C30 238.791 31.7909 237 34 237H54C56.2091 237 58 238.791 58 241V248M30 248H31.25C32.4926 248 33.5 246.993 33.5 245.75V245.5C33.5 244.395 34.3954 243.5 35.5 243.5V243.5C36.6046 243.5 37.5 244.395 37.5 245.5V249.5C37.5 250.881 38.6193 252 40 252V252C41.3807 252 42.5 250.881 42.5 249.5V248C42.5 246.895 43.3954 246 44.5 246V246C45.6046 246 46.5 246.895 46.5 248V248C46.5 249.105 47.3954 250 48.5 250H48.75C49.9926 250 51 248.993 51 247.75V245.5C51 244.395 51.8954 243.5 53 243.5V243.5C54.1046 243.5 55 244.395 55 245.5V245.75V245.75C55 246.993 56.0074 248 57.25 248H58" stroke="black"/>
<rect x="28" y="256" width="32" height="3" rx="1.5" stroke="black"/>
<path d="M42 232C42 230 44.0003 228 44.0003 228C44.6669 228.5 46 230 46 232C46 234 45 235 44.0003 235C43 235 42 234 42 232Z" stroke="black" stroke-linecap="round" stroke-linejoin="round"/>
<path d="M146.233 272.543V278.578H145.354V272.543H146.233ZM137.866 277.793V273.293H141.897V275.086H143.362V272.754H144.241V278.449H143.362V275.848H141.897V277.793H137.866ZM138.733 277.09H141.041V274.02H138.733V277.09ZM139.354 282.809V279.094H146.233V282.809H139.354ZM140.256 282.059H145.331V279.82H140.256V282.059ZM156.873 272.531V282.973H155.959V277.172H153.463V280.336H148.658V273.352H149.584V276.07H152.561V273.352H153.463V276.41H155.959V272.531H156.873ZM149.584 279.574H152.561V276.809H149.584V279.574ZM167.689 272.543V278.461H166.775V272.543H167.689ZM159.169 277.465C160.746 276.914 161.841 275.502 161.841 273.973V272.953H162.779V273.973C162.767 275.443 163.892 276.744 165.427 277.289L164.959 277.992C163.751 277.576 162.785 276.697 162.316 275.561C161.853 276.768 160.88 277.729 159.638 278.191L159.169 277.465ZM160.916 282.809V279.059H167.689V282.809H160.916ZM161.818 282.059H166.787V279.809H161.818V282.059ZM131.28 286.66C133.595 286.66 134.954 287.305 134.96 288.465C134.954 289.561 133.765 290.193 131.714 290.27V291.066H136.026V291.816H126.534V291.066H130.811V290.27C128.772 290.182 127.589 289.555 127.589 288.465C127.589 287.305 128.954 286.66 131.28 286.66ZM127.683 293.41V292.695H134.808V295.027H128.62V296.105H135.124V296.832H127.706V294.348H133.905V293.41H127.683ZM128.55 288.465C128.538 289.18 129.552 289.566 131.28 289.578C133.009 289.566 134.017 289.18 134.022 288.465C134.017 287.779 133.009 287.375 131.28 287.363C129.552 287.375 128.538 287.779 128.55 288.465ZM145.987 286.531V296.973H145.073V286.531H145.987ZM137.971 288.266V287.504H142.823V291.207H138.932V293.668C140.661 293.674 142.202 293.592 144.065 293.293L144.159 294.066C142.243 294.365 140.661 294.441 138.862 294.441H137.995V290.457H141.897V288.266H137.971ZM157.775 294.793V295.566H148.236V294.793H157.775ZM149.361 292.707V287.281H150.287V289.227H155.701V287.281H156.604V292.707H149.361ZM150.287 291.969H155.701V289.965H150.287V291.969ZM164.677 287.621C164.666 290.627 163.582 293.404 159.814 295.25L159.298 294.512C161.255 293.574 162.462 292.373 163.119 290.961L159.498 291.312L159.345 290.492L163.412 290.223C163.599 289.643 163.71 289.027 163.757 288.383H159.873V287.621H164.677ZM166.775 296.949V286.531H167.701V296.949H166.775ZM178.376 292.168V292.918H171.169V287.434H178.259V288.207H172.106V289.754H178.036V290.492H172.106V292.168H178.376ZM169.939 295.59V294.828H179.478V295.59H169.939Z" fill="black"/>
<path d="M122.782 304.75C122.782 305.961 123.661 307.104 124.931 307.562L124.501 308.158C123.549 307.782 122.787 307.03 122.416 306.083C122.05 307.133 121.259 307.963 120.233 308.373L119.823 307.748C121.127 307.27 122.025 306.054 122.03 304.721V303.646H122.782V304.75ZM121.396 311.605V308.881H122.167V310.961H127.206V311.605H121.396ZM124.306 305.805V305.16H126.239V303.119H127.011V309.623H126.239V305.805H124.306ZM131.415 305.004C131.42 306.083 132.289 307.069 133.573 307.455L133.202 308.061C132.206 307.748 131.435 307.084 131.054 306.229C130.673 307.167 129.877 307.885 128.856 308.227L128.466 307.621C129.76 307.221 130.658 306.181 130.663 305.004V304.809H128.7V304.193H130.663V303.08H131.435V304.193H133.378V304.809H131.415V305.004ZM129.56 309.496V308.861H135.243V311.811H134.481V309.496H129.56ZM134.481 308.412V303.109H135.243V305.434H136.552V306.088H135.243V308.412H134.481ZM141.454 303.773C141.449 304.911 143.031 305.946 144.54 306.176L144.237 306.781C142.919 306.557 141.61 305.824 141.063 304.813C140.517 305.844 139.203 306.566 137.88 306.791L137.577 306.186C139.096 305.951 140.663 304.945 140.663 303.773V303.334H141.454V303.773ZM137.089 308.168V307.533H145.038V308.168H141.503V309.945H140.741V308.168H137.089ZM138.104 311.605V309.096H138.876V310.961H144.149V311.605H138.104ZM147.167 310.346L146.405 313.002H145.683L146.22 310.346H147.167ZM158.251 303.109V311.791H157.509V307.191H156.298V311.352H155.565V303.295H156.298V306.557H157.509V303.109H158.251ZM151.132 309.457V304.125H154.452V309.457H151.132ZM151.854 308.842H153.729V304.74H151.854V308.842ZM166.61 303.119V308.236H165.839V307.758H164.081V307.25H165.839V303.119H166.61ZM159.423 306.391C161.103 306.4 163.251 306.381 165.126 306.176L165.175 306.674C164.325 306.796 163.441 306.869 162.577 306.908V308.266H161.825V306.938C161.005 306.967 160.214 306.967 159.511 306.967L159.423 306.391ZM160.097 304.594C160.097 303.788 160.946 303.285 162.255 303.285C163.549 303.285 164.403 303.788 164.413 304.594C164.403 305.404 163.549 305.888 162.255 305.893C160.946 305.888 160.097 305.404 160.097 304.594ZM160.751 309.105V308.549H166.61V310.346H161.542V311.127H166.894V311.693H160.79V309.809H165.849V309.105H160.751ZM160.819 304.594C160.814 305.053 161.381 305.365 162.255 305.365C163.119 305.365 163.686 305.053 163.69 304.594C163.686 304.13 163.119 303.817 162.255 303.822C161.381 303.817 160.814 304.13 160.819 304.594ZM173.505 304.516C173.505 305.697 174.403 306.781 175.663 307.211L175.243 307.816C174.286 307.465 173.529 306.747 173.148 305.839C172.777 306.869 172.001 307.665 170.985 308.061L170.575 307.445C171.874 306.962 172.748 305.8 172.753 304.457V303.559H173.505V304.516ZM171.728 310.189C171.732 309.198 172.821 308.617 174.608 308.617C176.391 308.617 177.47 309.198 177.47 310.189C177.47 311.2 176.391 311.771 174.608 311.771C172.821 311.771 171.732 311.2 171.728 310.189ZM172.499 310.189C172.489 310.805 173.3 311.161 174.608 311.166C175.922 311.161 176.723 310.805 176.728 310.189C176.723 309.599 175.922 309.232 174.608 309.232C173.3 309.232 172.489 309.599 172.499 310.189ZM176.63 308.393V303.109H177.392V305.375H178.7V306.02H177.392V308.393H176.63ZM186.405 303.109V311.811H185.634V303.109H186.405ZM179.569 306.811C179.574 304.965 180.492 303.788 181.786 303.783C183.075 303.788 184.008 304.965 184.003 306.811C184.008 308.661 183.075 309.833 181.786 309.828C180.492 309.833 179.574 308.661 179.569 306.811ZM180.312 306.811C180.312 308.222 180.917 309.149 181.786 309.145C182.66 309.149 183.261 308.222 183.261 306.811C183.261 305.399 182.66 304.472 181.786 304.467C180.917 304.472 180.312 305.399 180.312 306.811Z" fill="#989FA9"/>
<path d="M152 232.709H163C164.105 232.709 165 233.604 165 234.709L165.003 254C165.004 255.104 164.108 256 163.003 256H141.003C139.899 256 139.004 255.105 139.003 254L139 234.709C139 233.605 139.896 232.709 141 232.709H145M152 232.709C152 232.709 150.004 229.671 148.004 228.658C146.589 227.943 145.004 227.632 144.004 228.658C143.004 229.685 143 232.709 145 232.709M152 232.709H145M152 232.709C152 232.709 154.004 229.671 156.004 228.658C157.418 227.943 159.004 227.632 160.004 228.658C161.004 229.685 161 232.709 159 232.709" stroke="black"/>
<path d="M144 254C144 253.448 144.448 253 145 253H156C156.552 253 157 253.448 157 254V258C157 259.105 156.105 260 155 260H146C144.895 260 144 259.105 144 258V254Z" fill="white" stroke="black"/>
<path d="M145 252C145 251.448 145.448 251 146 251H155C155.552 251 156 251.448 156 252V253H145V252Z" fill="white"/>
<path d="M146 251V251C145.448 251 145 251.448 145 252V253H156V252C156 251.448 155.552 251 155 251V251M146 251C146 250.333 146.8 249.4 148 249C149.5 248.5 151 249 152 248.5C152.447 248.276 154 247 154 247C154.667 247.667 155 248.2 155 249C155 249.8 155 250.667 155 251M146 251H155" stroke="black" stroke-linejoin="round"/>
<rect x="159" y="253" width="10" height="7" rx="3" fill="white" stroke="black"/>
<rect x="162" y="245" width="4" height="8" fill="white" stroke="black"/>
<path d="M260.314 239.637V246H258.987V240.894H258.952L257.493 241.808V240.639L259.066 239.637H260.314ZM263.46 242.818C262.507 242.818 261.993 242.124 261.993 241.122C261.993 240.116 262.533 239.417 263.46 239.417C264.414 239.417 264.924 240.116 264.928 241.122C264.924 242.133 264.401 242.818 263.46 242.818ZM262.889 241.122C262.894 241.671 263.091 242.032 263.46 242.036C263.838 242.032 264.027 241.671 264.032 241.122C264.027 240.573 263.856 240.199 263.46 240.199C263.087 240.204 262.894 240.582 262.889 241.122ZM262.907 246L267.284 239.637H268.268L263.891 246H262.907ZM266.291 244.515C266.291 243.508 266.831 242.814 267.75 242.81C268.712 242.814 269.222 243.508 269.226 244.515C269.222 245.525 268.699 246.211 267.75 246.211C266.805 246.211 266.291 245.517 266.291 244.515ZM267.187 244.515C267.191 245.064 267.389 245.429 267.75 245.429C268.136 245.429 268.325 245.064 268.33 244.515C268.325 243.965 268.149 243.592 267.75 243.601C267.38 243.596 267.191 243.974 267.187 244.515Z" fill="black"/>
<path d="M247.696 275.188C247.45 274.016 246.448 273.383 245.329 273.383C243.794 273.383 242.605 274.566 242.599 276.758C242.605 278.943 243.794 280.127 245.329 280.133C246.448 280.127 247.445 279.5 247.696 278.34H248.751C248.446 280.074 247.052 281.117 245.329 281.117C243.15 281.117 241.573 279.441 241.579 276.758C241.573 274.074 243.15 272.398 245.329 272.398C247.046 272.398 248.435 273.424 248.751 275.188H247.696ZM253.954 272.516H255.02V278.574C255.014 280.203 254.065 281.117 252.583 281.117C251.176 281.117 250.157 280.314 250.157 278.996H251.2C251.206 279.717 251.786 280.18 252.583 280.18C253.456 280.18 253.954 279.623 253.954 278.574V272.516ZM268.039 276.758C268.045 279.441 266.463 281.117 264.289 281.117C262.109 281.117 260.533 279.441 260.539 276.758C260.533 274.074 262.109 272.398 264.289 272.398C266.463 272.398 268.045 274.074 268.039 276.758ZM261.558 276.758C261.564 278.943 262.754 280.127 264.289 280.133C265.824 280.127 267.013 278.943 267.019 276.758C267.013 274.566 265.824 273.383 264.289 273.383C262.754 273.383 261.564 274.566 261.558 276.758ZM276.804 272.516V281H275.796L271.202 274.391H271.12V281H270.066V272.516H271.085L275.679 279.137H275.761V272.516H276.804ZM279.159 281V272.516H284.304V273.453H280.214V276.289H284.034V277.215H280.214V280.062H284.362V281H279.159ZM244.327 293.875V294.66H234.788V293.875H239.066V291.473H235.655V290.734H237.284V287.312H235.632V286.551H243.413V287.312H241.761V290.734H243.39V291.473H239.968V293.875H244.327ZM238.198 290.734H240.859V287.312H238.198V290.734ZM254.241 285.543V293.16H253.327V285.543H254.241ZM245.885 288.824C245.88 287.324 247.057 286.275 248.616 286.27C250.175 286.275 251.341 287.324 251.346 288.824C251.341 290.342 250.175 291.396 248.616 291.391C247.057 291.396 245.88 290.342 245.885 288.824ZM246.788 288.824C246.776 289.861 247.561 290.582 248.616 290.582C249.653 290.582 250.444 289.861 250.444 288.824C250.444 287.805 249.653 287.078 248.616 287.078C247.561 287.078 246.776 287.805 246.788 288.824ZM247.514 295.727V292.387H248.428V294.953H254.569V295.727H247.514ZM264.928 291.168V291.918H257.721V286.434H264.811V287.207H258.658V288.754H264.588V289.492H258.658V291.168H264.928ZM256.49 294.59V293.828H266.03V294.59H256.49ZM274.454 287.453C274.454 288.807 275.497 290.102 277.021 290.629L276.54 291.355C275.368 290.934 274.46 290.061 274.015 288.988C273.564 290.184 272.597 291.145 271.361 291.602L270.88 290.875C272.415 290.324 273.529 288.936 273.529 287.465V287.008H271.173V286.258H276.786V287.008H274.454V287.453ZM272.462 293.09V292.328H279.47V295.949H278.544V293.09H272.462ZM276.458 289.035V288.262H278.544V285.531H279.47V291.777H278.544V289.035H276.458ZM290.286 285.543V291.262H289.372V285.543H290.286ZM282.212 286.809V286.047H286.97V288.859H283.126V290.277C284.989 290.266 286.378 290.225 288.071 289.949L288.177 290.711C286.425 290.986 285.001 291.039 283.079 291.051H282.235V288.133H286.055V286.809H282.212ZM283.513 295.809V291.789H284.438V293.031H289.372V291.789H290.286V295.809H283.513ZM284.438 295.059H289.372V293.77H284.438V295.059Z" fill="black"/>
<circle cx="262.5" cy="243.5" r="15" stroke="black"/>
<path d="M30.8037 79.6895V81.291C31.6436 81.2471 32.4932 81.1787 33.2939 81.0566L33.3525 81.623C31.3652 81.9844 29.2314 81.999 27.6689 81.9941L27.5615 81.3594C28.2891 81.3545 29.1484 81.3496 30.0518 81.3203V79.6895H30.8037ZM27.8252 79.3867C29.1094 79.0059 30.0127 78.0537 30.0322 76.8867H28.04V76.252H30.0518V75.1777H30.8037V76.252H32.8447V76.8867H30.8037C30.8281 78.0049 31.7559 78.9229 33.04 79.2891L32.6787 79.8945C31.6387 79.582 30.8184 78.9131 30.4277 78.0342C30.0518 78.9619 29.2412 79.6553 28.1963 79.9727L27.8252 79.3867ZM33.8701 83.8105V75.1094H34.6318V83.8105H33.8701ZM43.5771 75.1094V83.791H42.8447V79.2402H41.5654V83.3418H40.8623V75.3047H41.5654V78.6055H42.8447V75.1094H43.5771ZM36.4775 81.6426V76.1738H39.7295V76.8086H37.2393V80.9883C38.4355 80.9834 39.2607 80.9395 40.2275 80.7441L40.2959 81.3887C39.251 81.6035 38.3672 81.6377 37.0342 81.6426H36.4775ZM47.4443 81.5547V80.832L50.6279 75.9297H51.7119V80.7832H52.6982V81.5547H51.7119V83H50.8721V81.5547H47.4443ZM48.3916 80.7832H50.8721V77.043H50.7842L48.3916 80.7246V80.7832ZM56.4873 76.7598C56.4922 77.8975 57.3418 78.9131 58.6162 79.3281L58.2549 79.9336C57.2539 79.6016 56.4971 78.9131 56.1211 78.0391C55.75 79.0352 54.9492 79.8115 53.9092 80.1875L53.5186 79.5723C54.8174 79.1328 55.7256 78.0146 55.7354 76.7598V76.3887H53.7529V75.7539H58.4404V76.3887H56.4873V76.7598ZM54.6709 82.1699C54.6758 81.1689 55.7646 80.5879 57.5518 80.5879C59.334 80.5879 60.4131 81.1689 60.4131 82.1699C60.4131 83.1855 59.334 83.7715 57.5518 83.7715C55.7646 83.7715 54.6758 83.1855 54.6709 82.1699ZM55.4424 82.1699C55.4326 82.7949 56.2432 83.1611 57.5518 83.1562C58.8652 83.1611 59.666 82.7949 59.6709 82.1699C59.666 81.5645 58.8652 81.2031 57.5518 81.2031C56.2432 81.2031 55.4326 81.5645 55.4424 82.1699ZM59.5732 80.3535V75.1094H60.335V77.3262H61.6436V77.9707H60.335V80.3535H59.5732Z" fill="#989FA9"/>
<path d="M30.8379 188.689V190.291C31.6777 190.247 32.5273 190.179 33.3281 190.057L33.3867 190.623C31.3994 190.984 29.2656 190.999 27.7031 190.994L27.5957 190.359C28.3232 190.354 29.1826 190.35 30.0859 190.32V188.689H30.8379ZM27.8594 188.387C29.1436 188.006 30.0469 187.054 30.0664 185.887H28.0742V185.252H30.0859V184.178H30.8379V185.252H32.8789V185.887H30.8379C30.8623 187.005 31.79 187.923 33.0742 188.289L32.7129 188.895C31.6729 188.582 30.8525 187.913 30.4619 187.034C30.0859 187.962 29.2754 188.655 28.2305 188.973L27.8594 188.387ZM33.9043 192.811V184.109H34.666V192.811H33.9043ZM43.6113 184.109V192.791H42.8789V188.24H41.5996V192.342H40.8965V184.305H41.5996V187.605H42.8789V184.109H43.6113ZM36.5117 190.643V185.174H39.7637V185.809H37.2734V189.988C38.4697 189.983 39.2949 189.939 40.2617 189.744L40.3301 190.389C39.2852 190.604 38.4014 190.638 37.0684 190.643H36.5117ZM50.0957 192.098C48.6895 192.098 47.6787 191.346 47.6348 190.223H48.5234C48.5723 190.896 49.2412 191.316 50.0859 191.316C51.0186 191.316 51.6924 190.813 51.6973 190.076C51.6924 189.305 51.0771 188.763 49.9785 188.758H49.4023V187.986H49.9785C50.8379 187.986 51.4385 187.503 51.4336 186.775C51.4385 186.067 50.9209 185.599 50.1152 185.594C49.3584 185.599 48.6699 186.014 48.6309 186.707H47.7812C47.8252 185.584 48.8701 184.832 50.125 184.832C51.4727 184.832 52.293 185.716 52.2832 186.727C52.293 187.532 51.8242 188.118 51.082 188.328V188.377C52.0049 188.519 52.5615 189.178 52.5566 190.076C52.5615 191.238 51.5068 192.098 50.0957 192.098ZM56.4531 185.76C56.458 186.897 57.3076 187.913 58.582 188.328L58.2207 188.934C57.2197 188.602 56.4629 187.913 56.0869 187.039C55.7158 188.035 54.915 188.812 53.875 189.188L53.4844 188.572C54.7832 188.133 55.6914 187.015 55.7012 185.76V185.389H53.7188V184.754H58.4062V185.389H56.4531V185.76ZM54.6367 191.17C54.6416 190.169 55.7305 189.588 57.5176 189.588C59.2998 189.588 60.3789 190.169 60.3789 191.17C60.3789 192.186 59.2998 192.771 57.5176 192.771C55.7305 192.771 54.6416 192.186 54.6367 191.17ZM55.4082 191.17C55.3984 191.795 56.209 192.161 57.5176 192.156C58.8311 192.161 59.6318 191.795 59.6367 191.17C59.6318 190.564 58.8311 190.203 57.5176 190.203C56.209 190.203 55.3984 190.564 55.4082 191.17ZM59.5391 189.354V184.109H60.3008V186.326H61.6094V186.971H60.3008V189.354H59.5391Z" fill="#989FA9"/>
<path d="M137.857 79.6895V81.291C138.697 81.2471 139.547 81.1787 140.348 81.0566L140.406 81.623C138.419 81.9844 136.285 81.999 134.723 81.9941L134.615 81.3594C135.343 81.3545 136.202 81.3496 137.105 81.3203V79.6895H137.857ZM134.879 79.3867C136.163 79.0059 137.066 78.0537 137.086 76.8867H135.094V76.252H137.105V75.1777H137.857V76.252H139.898V76.8867H137.857C137.882 78.0049 138.81 78.9229 140.094 79.2891L139.732 79.8945C138.692 79.582 137.872 78.9131 137.481 78.0342C137.105 78.9619 136.295 79.6553 135.25 79.9727L134.879 79.3867ZM140.924 83.8105V75.1094H141.686V83.8105H140.924ZM150.631 75.1094V83.791H149.898V79.2402H148.619V83.3418H147.916V75.3047H148.619V78.6055H149.898V75.1094H150.631ZM143.531 81.6426V76.1738H146.783V76.8086H144.293V80.9883C145.489 80.9834 146.314 80.9395 147.281 80.7441L147.35 81.3887C146.305 81.6035 145.421 81.6377 144.088 81.6426H143.531ZM157.135 83.0977C155.909 83.083 154.557 82.3555 154.557 79.7383C154.557 77.2334 155.582 75.832 157.242 75.832C158.487 75.832 159.356 76.5986 159.537 77.707H158.668C158.507 77.082 158.028 76.6133 157.242 76.6133C156.08 76.6133 155.382 77.6045 155.387 79.3086H155.475C155.88 78.7178 156.529 78.3711 157.291 78.3711C158.546 78.3711 159.596 79.3477 159.596 80.7148C159.596 82.0479 158.624 83.1123 157.135 83.0977ZM155.504 80.7344C155.509 81.5645 156.188 82.3213 157.135 82.3262C158.048 82.3213 158.741 81.6035 158.746 80.7246C158.741 79.8555 158.077 79.1475 157.154 79.1426C156.227 79.1475 155.514 79.8994 155.504 80.7344ZM163.434 76.7598C163.438 77.8975 164.288 78.9131 165.562 79.3281L165.201 79.9336C164.2 79.6016 163.443 78.9131 163.067 78.0391C162.696 79.0352 161.896 79.8115 160.855 80.1875L160.465 79.5723C161.764 79.1328 162.672 78.0146 162.682 76.7598V76.3887H160.699V75.7539H165.387V76.3887H163.434V76.7598ZM161.617 82.1699C161.622 81.1689 162.711 80.5879 164.498 80.5879C166.28 80.5879 167.359 81.1689 167.359 82.1699C167.359 83.1855 166.28 83.7715 164.498 83.7715C162.711 83.7715 161.622 83.1855 161.617 82.1699ZM162.389 82.1699C162.379 82.7949 163.189 83.1611 164.498 83.1562C165.812 83.1611 166.612 82.7949 166.617 82.1699C166.612 81.5645 165.812 81.2031 164.498 81.2031C163.189 81.2031 162.379 81.5645 162.389 82.1699ZM166.52 80.3535V75.1094H167.281V77.3262H168.59V77.9707H167.281V80.3535H166.52Z" fill="#989FA9"/>
<path d="M248.857 79.6895V81.291C249.697 81.2471 250.547 81.1787 251.348 81.0566L251.406 81.623C249.419 81.9844 247.285 81.999 245.723 81.9941L245.615 81.3594C246.343 81.3545 247.202 81.3496 248.105 81.3203V79.6895H248.857ZM245.879 79.3867C247.163 79.0059 248.066 78.0537 248.086 76.8867H246.094V76.252H248.105V75.1777H248.857V76.252H250.898V76.8867H248.857C248.882 78.0049 249.81 78.9229 251.094 79.2891L250.732 79.8945C249.692 79.582 248.872 78.9131 248.481 78.0342C248.105 78.9619 247.295 79.6553 246.25 79.9727L245.879 79.3867ZM251.924 83.8105V75.1094H252.686V83.8105H251.924ZM261.631 75.1094V83.791H260.898V79.2402H259.619V83.3418H258.916V75.3047H259.619V78.6055H260.898V75.1094H261.631ZM254.531 81.6426V76.1738H257.783V76.8086H255.293V80.9883C256.489 80.9834 257.314 80.9395 258.281 80.7441L258.35 81.3887C257.305 81.6035 256.421 81.6377 255.088 81.6426H254.531ZM268.135 83.0977C266.909 83.083 265.557 82.3555 265.557 79.7383C265.557 77.2334 266.582 75.832 268.242 75.832C269.487 75.832 270.356 76.5986 270.537 77.707H269.668C269.507 77.082 269.028 76.6133 268.242 76.6133C267.08 76.6133 266.382 77.6045 266.387 79.3086H266.475C266.88 78.7178 267.529 78.3711 268.291 78.3711C269.546 78.3711 270.596 79.3477 270.596 80.7148C270.596 82.0479 269.624 83.1123 268.135 83.0977ZM266.504 80.7344C266.509 81.5645 267.188 82.3213 268.135 82.3262C269.048 82.3213 269.741 81.6035 269.746 80.7246C269.741 79.8555 269.077 79.1475 268.154 79.1426C267.227 79.1475 266.514 79.8994 266.504 80.7344ZM274.434 76.7598C274.438 77.8975 275.288 78.9131 276.562 79.3281L276.201 79.9336C275.2 79.6016 274.443 78.9131 274.067 78.0391C273.696 79.0352 272.896 79.8115 271.855 80.1875L271.465 79.5723C272.764 79.1328 273.672 78.0146 273.682 76.7598V76.3887H271.699V75.7539H276.387V76.3887H274.434V76.7598ZM272.617 82.1699C272.622 81.1689 273.711 80.5879 275.498 80.5879C277.28 80.5879 278.359 81.1689 278.359 82.1699C278.359 83.1855 277.28 83.7715 275.498 83.7715C273.711 83.7715 272.622 83.1855 272.617 82.1699ZM273.389 82.1699C273.379 82.7949 274.189 83.1611 275.498 83.1562C276.812 83.1611 277.612 82.7949 277.617 82.1699C277.612 81.5645 276.812 81.2031 275.498 81.2031C274.189 81.2031 273.379 81.5645 273.389 82.1699ZM277.52 80.3535V75.1094H278.281V77.3262H279.59V77.9707H278.281V80.3535H277.52Z" fill="#989FA9"/>
</svg>
