<svg width="307" height="312" viewBox="0 0 307 312" fill="none" xmlns="http://www.w3.org/2000/svg">
<path d="M176 109.321H132.5V120.321C132.5 120.321 135.5 120.821 135.5 124.321C135.5 127.321 132.5 127.821 132.5 127.821V138.821H176V127.821C176 127.821 172.5 127.321 172.5 124.321C172.5 120.821 176 120.321 176 120.321V109.321Z" stroke="black" stroke-linejoin="round"/>
<path d="M142.796 123.594C142.714 123.048 142.293 122.716 141.716 122.713C140.947 122.716 140.438 123.304 140.438 124.346C140.438 125.413 140.954 125.977 141.709 125.98C142.273 125.977 142.697 125.669 142.796 125.133L143.835 125.139C143.722 126.055 142.953 126.889 141.695 126.889C140.373 126.889 139.392 125.956 139.392 124.346C139.392 122.73 140.39 121.803 141.695 121.803C142.837 121.803 143.698 122.456 143.835 123.594H142.796ZM149.085 124.346C149.085 125.963 148.083 126.889 146.774 126.889C145.455 126.889 144.457 125.956 144.457 124.346C144.457 122.73 145.455 121.803 146.774 121.803C148.083 121.803 149.085 122.73 149.085 124.346ZM145.503 124.346C145.503 125.403 146.005 125.977 146.774 125.98C147.537 125.977 148.042 125.403 148.039 124.346C148.042 123.287 147.537 122.716 146.774 122.713C146.005 122.716 145.503 123.287 145.503 124.346ZM152.886 121.872H153.918V125.085C153.918 126.168 153.094 126.893 151.867 126.889C150.637 126.893 149.823 126.168 149.823 125.085V121.872H150.849V125.003C150.852 125.573 151.255 125.984 151.867 125.987C152.486 125.984 152.889 125.573 152.886 125.003V121.872ZM154.752 126.821V121.872H156.693C157.818 121.872 158.464 122.566 158.464 123.54C158.464 124.528 157.808 125.208 156.666 125.208H155.777V126.821H154.752ZM155.777 124.381H156.502C157.11 124.381 157.408 124.039 157.404 123.54C157.408 123.048 157.11 122.716 156.502 122.713H155.777V124.381ZM163.646 124.346C163.646 125.963 162.644 126.889 161.335 126.889C160.016 126.889 159.018 125.956 159.018 124.346C159.018 122.73 160.016 121.803 161.335 121.803C162.644 121.803 163.646 122.73 163.646 124.346ZM160.063 124.346C160.063 125.403 160.566 125.977 161.335 125.98C162.097 125.977 162.603 125.403 162.6 124.346C162.603 123.287 162.097 122.716 161.335 122.713C160.566 122.716 160.063 123.287 160.063 124.346ZM168.513 121.872V126.821H167.624L165.45 123.677H165.409V126.821H164.384V121.872H165.286L167.446 125.016H167.494V121.872H168.513Z" fill="black"/>
<path d="M132.28 149.66C134.595 149.66 135.954 150.305 135.96 151.465C135.954 152.561 134.765 153.193 132.714 153.27V154.066H137.026V154.816H127.534V154.066H131.811V153.27C129.772 153.182 128.589 152.555 128.589 151.465C128.589 150.305 129.954 149.66 132.28 149.66ZM128.683 156.41V155.695H135.808V158.027H129.62V159.105H136.124V159.832H128.706V157.348H134.905V156.41H128.683ZM129.55 151.465C129.538 152.18 130.552 152.566 132.28 152.578C134.009 152.566 135.017 152.18 135.022 151.465C135.017 150.779 134.009 150.375 132.28 150.363C130.552 150.375 129.538 150.779 129.55 151.465ZM146.987 149.531V159.973H146.073V149.531H146.987ZM138.971 151.266V150.504H143.823V154.207H139.932V156.668C141.661 156.674 143.202 156.592 145.065 156.293L145.159 157.066C143.243 157.365 141.661 157.441 139.862 157.441H138.995V153.457H142.897V151.266H138.971ZM158.775 157.793V158.566H149.236V157.793H158.775ZM150.361 155.707V150.281H151.287V152.227H156.701V150.281H157.604V155.707H150.361ZM151.287 154.969H156.701V152.965H151.287V154.969ZM169.005 149.531V159.949H168.115V149.531H169.005ZM160.498 157.441V150.82H164.423V151.582H161.388V156.668C162.894 156.656 163.843 156.604 164.962 156.352L165.056 157.137C163.849 157.383 162.83 157.436 161.154 157.441H160.498ZM163.72 154.289V153.516H165.994V149.789H166.873V159.41H165.994V154.289H163.72ZM179.528 149.531V159.973H178.603V149.531H179.528ZM171.325 153.973C171.331 151.758 172.433 150.346 173.985 150.34C175.532 150.346 176.651 151.758 176.646 153.973C176.651 156.193 175.532 157.6 173.985 157.594C172.433 157.6 171.331 156.193 171.325 153.973ZM172.216 153.973C172.216 155.666 172.942 156.779 173.985 156.773C175.034 156.779 175.755 155.666 175.755 153.973C175.755 152.279 175.034 151.166 173.985 151.16C172.942 151.166 172.216 152.279 172.216 153.973ZM134.636 163.543V169.578H133.757V163.543H134.636ZM126.269 168.793V164.293H130.3V166.086H131.765V163.754H132.644V169.449H131.765V166.848H130.3V168.793H126.269ZM127.136 168.09H129.445V165.02H127.136V168.09ZM127.757 173.809V170.094H134.636V173.809H127.757ZM128.659 173.059H133.734V170.82H128.659V173.059ZM145.276 163.531V173.973H144.362V168.172H141.866V171.336H137.061V164.352H137.987V167.07H140.964V164.352H141.866V167.41H144.362V163.531H145.276ZM137.987 170.574H140.964V167.809H137.987V170.574ZM151.182 164.867C151.17 166.303 152.295 167.604 153.842 168.113L153.397 168.828C152.172 168.406 151.199 167.539 150.725 166.426C150.256 167.627 149.272 168.582 148.03 169.027L147.561 168.289C149.131 167.744 150.244 166.373 150.244 164.867V163.883H151.182V164.867ZM149.342 173.809V169.648H150.256V170.914H155.178V169.648H156.092V173.809H149.342ZM150.256 173.059H155.178V171.652H150.256V173.059ZM155.178 169.121V163.531H156.092V169.121H155.178ZM170.107 164.188V165.148C170.107 166.227 170.107 167.428 169.738 169.133H171.325V169.906H167.06V173.949H166.134V169.906H161.833V169.133H168.818C168.999 168.395 169.099 167.738 169.157 167.146L162.865 167.469L162.747 166.66L169.21 166.438C169.234 165.98 169.234 165.553 169.24 165.148V164.949H163.04V164.188H170.107ZM181.274 164.012V164.773H179.669V167.164H181.239V167.902H177.888V169.18H182.177V169.93H172.684V169.18H176.973V167.902H173.61V167.164H175.18V164.773H173.575V164.012H181.274ZM173.915 173.727V170.844H174.841V172.953H181.122V173.727H173.915ZM176.095 167.164H178.755V164.773H176.095V167.164Z" fill="black"/>
<path d="M66.5 2H23V13C23 13 26 13.5 26 17C26 20 23 20.5 23 20.5V31.5H66.5V20.5C66.5 20.5 63 20 63 17C63 13.5 66.5 13 66.5 13V2Z" stroke="black" stroke-linejoin="round"/>
<path d="M33.7959 16.2734C33.7139 15.7266 33.2935 15.395 32.7158 15.3916C31.9468 15.395 31.4375 15.9829 31.4375 17.0254C31.4375 18.0918 31.9536 18.6558 32.709 18.6592C33.2729 18.6558 33.6968 18.3481 33.7959 17.8115L34.835 17.8184C34.7222 18.7344 33.9531 19.5684 32.6953 19.5684C31.3726 19.5684 30.3916 18.6353 30.3916 17.0254C30.3916 15.4087 31.3896 14.4824 32.6953 14.4824C33.8369 14.4824 34.6982 15.1353 34.835 16.2734H33.7959ZM40.085 17.0254C40.085 18.6421 39.0835 19.5684 37.7744 19.5684C36.4551 19.5684 35.457 18.6353 35.457 17.0254C35.457 15.4087 36.4551 14.4824 37.7744 14.4824C39.0835 14.4824 40.085 15.4087 40.085 17.0254ZM36.5029 17.0254C36.5029 18.0815 37.0054 18.6558 37.7744 18.6592C38.5366 18.6558 39.0425 18.0815 39.0391 17.0254C39.0425 15.9658 38.5366 15.395 37.7744 15.3916C37.0054 15.395 36.5029 15.9658 36.5029 17.0254ZM43.8857 14.5508H44.918V17.7637C44.918 18.8472 44.0942 19.5718 42.8672 19.5684C41.6367 19.5718 40.8232 18.8472 40.8232 17.7637V14.5508H41.8486V17.6816C41.8521 18.2524 42.2554 18.6626 42.8672 18.666C43.4858 18.6626 43.8892 18.2524 43.8857 17.6816V14.5508ZM45.752 19.5V14.5508H47.6934C48.8179 14.5508 49.4639 15.2446 49.4639 16.2188C49.4639 17.2065 48.8076 17.8867 47.666 17.8867H46.7773V19.5H45.752ZM46.7773 17.0596H47.502C48.1104 17.0596 48.4077 16.7178 48.4043 16.2188C48.4077 15.7266 48.1104 15.395 47.502 15.3916H46.7773V17.0596ZM54.6455 17.0254C54.6455 18.6421 53.644 19.5684 52.335 19.5684C51.0156 19.5684 50.0176 18.6353 50.0176 17.0254C50.0176 15.4087 51.0156 14.4824 52.335 14.4824C53.644 14.4824 54.6455 15.4087 54.6455 17.0254ZM51.0635 17.0254C51.0635 18.0815 51.5659 18.6558 52.335 18.6592C53.0972 18.6558 53.603 18.0815 53.5996 17.0254C53.603 15.9658 53.0972 15.395 52.335 15.3916C51.5659 15.395 51.0635 15.9658 51.0635 17.0254ZM59.5127 14.5508V19.5H58.624L56.4502 16.3555H56.4092V19.5H55.3838V14.5508H56.2861L58.4463 17.6953H58.4941V14.5508H59.5127Z" fill="black"/>
<path d="M38.2329 44.543V50.5781H37.354V44.543H38.2329ZM29.8657 49.793V45.293H33.897V47.0859H35.3618V44.7539H36.2407V50.4492H35.3618V47.8477H33.897V49.793H29.8657ZM30.7329 49.0898H33.0415V46.0195H30.7329V49.0898ZM31.354 54.8086V51.0938H38.2329V54.8086H31.354ZM32.2563 54.0586H37.3305V51.8203H32.2563V54.0586ZM48.873 44.5312V54.9727H47.959V49.1719H45.4629V52.3359H40.6582V45.3516H41.584V48.0703H44.5605V45.3516H45.4629V48.4102H47.959V44.5312H48.873ZM41.584 51.5742H44.5605V48.8086H41.584V51.5742ZM54.7788 45.8672C54.7671 47.3027 55.8921 48.6035 57.439 49.1133L56.9937 49.8281C55.7691 49.4062 54.7964 48.5391 54.3218 47.4258C53.853 48.627 52.8687 49.582 51.6265 50.0273L51.1577 49.2891C52.728 48.7441 53.8413 47.373 53.8413 45.8672V44.8828H54.7788V45.8672ZM52.939 54.8086V50.6484H53.853V51.9141H58.7749V50.6484H59.689V54.8086H52.939ZM53.853 54.0586H58.7749V52.6523H53.853V54.0586ZM58.7749 50.1211V44.5312H59.689V50.1211H58.7749ZM25.7412 64.4844V66.8516H28.2021V64.4844H29.1162V66.8516H31.7529V67.6133H22.2138V66.8516H24.8388V64.4844H25.7412ZM22.5654 63.5C24.3877 63.1836 26.4384 61.7363 26.4443 60.0312V59.2344H27.4052V60.0312C27.4111 61.7363 29.4736 63.2012 31.2959 63.5L30.9209 64.2617C29.2978 63.9395 27.6103 62.9082 26.9306 61.4434C26.2451 62.9023 24.5576 63.9512 22.9521 64.2617L22.5654 63.5ZM39.1704 59.4336V60.207H38.1157V63.248C38.6548 63.207 39.1821 63.1543 39.686 63.0898L39.7563 63.793C37.6177 64.127 35.1216 64.1621 33.3579 64.168L33.2407 63.3945C33.6509 63.3945 34.102 63.3945 34.5766 63.3887V60.207H33.5337V59.4336H39.1704ZM34.6938 67.0273C34.688 65.8379 36.018 65.1582 38.2095 65.1523C40.4009 65.1582 41.7368 65.8379 41.7368 67.0273C41.7368 68.2402 40.4009 68.9258 38.2095 68.9258C36.018 68.9258 34.688 68.2402 34.6938 67.0273ZM35.4673 63.3711C36.0415 63.3594 36.6333 63.3359 37.2251 63.3008V60.207H35.4673V63.3711ZM35.5962 67.0273C35.602 67.7656 36.5864 68.1992 38.2095 68.1992C39.8266 68.1992 40.8169 67.7656 40.811 67.0273C40.8169 66.3184 39.8266 65.8848 38.2095 65.8906C36.5864 65.8848 35.602 66.3184 35.5962 67.0273ZM40.7524 64.9297V58.543H41.6665V64.9297H40.7524ZM55.6812 59.1875V60.1484C55.6812 61.2266 55.6812 62.4277 55.312 64.1328H56.8999V64.9062H52.6343V68.9492H51.7085V64.9062H47.4077V64.1328H54.3921C54.5738 63.3945 54.6734 62.7383 54.732 62.1465L48.439 62.4688L48.3218 61.6602L54.7847 61.4375C54.8081 60.9805 54.8081 60.5527 54.814 60.1484V59.9492H48.6148V59.1875H55.6812ZM66.8487 59.0117V59.7734H65.2432V62.1641H66.8135V62.9023H63.462V64.1797H67.751V64.9297H58.2588V64.1797H62.5479V62.9023H59.1846V62.1641H60.7549V59.7734H59.1495V59.0117H66.8487ZM59.4893 68.7266V65.8438H60.4151V67.9531H66.6963V68.7266H59.4893ZM61.669 62.1641H64.3291V59.7734H61.669V62.1641Z" fill="black"/>
<path d="M30.9893 77.6895V79.291C31.8291 79.2471 32.6787 79.1787 33.4795 79.0566L33.5381 79.623C31.5508 79.9844 29.417 79.999 27.8545 79.9941L27.7471 79.3594C28.4746 79.3545 29.334 79.3496 30.2373 79.3203V77.6895H30.9893ZM28.0107 77.3867C29.2949 77.0059 30.1982 76.0537 30.2178 74.8867H28.2256V74.252H30.2373V73.1777H30.9893V74.252H33.0303V74.8867H30.9893C31.0137 76.0049 31.9414 76.9229 33.2256 77.2891L32.8643 77.8945C31.8242 77.582 31.0039 76.9131 30.6133 76.0342C30.2373 76.9619 29.4268 77.6553 28.3818 77.9727L28.0107 77.3867ZM34.0557 81.8105V73.1094H34.8174V81.8105H34.0557ZM43.7627 73.1094V81.791H43.0303V77.2402H41.751V81.3418H41.0479V73.3047H41.751V76.6055H43.0303V73.1094H43.7627ZM36.6631 79.6426V74.1738H39.915V74.8086H37.4248V78.9883C38.6211 78.9834 39.4463 78.9395 40.4131 78.7441L40.4814 79.3887C39.4365 79.6035 38.5527 79.6377 37.2197 79.6426H36.6631ZM47.8057 81L47.7959 80.3555L50.208 77.8164C51.043 76.9277 51.4434 76.4492 51.4482 75.7949C51.4434 75.0674 50.8379 74.5986 50.042 74.5938C49.1973 74.5986 48.6699 75.1309 48.665 75.9219H47.835C47.8252 74.6719 48.792 73.832 50.0713 73.832C51.3555 73.832 52.2637 74.6963 52.2686 75.7949C52.2637 76.5859 51.8975 77.2012 50.6475 78.4902L49.0264 80.1602V80.2188H52.3955V81H47.8057ZM56.3018 74.7598C56.3066 75.8975 57.1562 76.9131 58.4307 77.3281L58.0693 77.9336C57.0684 77.6016 56.3115 76.9131 55.9355 76.0391C55.5645 77.0352 54.7637 77.8115 53.7236 78.1875L53.333 77.5723C54.6318 77.1328 55.54 76.0146 55.5498 74.7598V74.3887H53.5674V73.7539H58.2549V74.3887H56.3018V74.7598ZM54.4854 80.1699C54.4902 79.1689 55.5791 78.5879 57.3662 78.5879C59.1484 78.5879 60.2275 79.1689 60.2275 80.1699C60.2275 81.1855 59.1484 81.7715 57.3662 81.7715C55.5791 81.7715 54.4902 81.1855 54.4854 80.1699ZM55.2568 80.1699C55.2471 80.7949 56.0576 81.1611 57.3662 81.1562C58.6797 81.1611 59.4805 80.7949 59.4854 80.1699C59.4805 79.5645 58.6797 79.2031 57.3662 79.2031C56.0576 79.2031 55.2471 79.5645 55.2568 80.1699ZM59.3877 78.3535V73.1094H60.1494V75.3262H61.458V75.9707H60.1494V78.3535H59.3877Z" fill="#989FA9"/>
<path d="M139.857 77.6895V79.291C140.697 79.2471 141.547 79.1787 142.348 79.0566L142.406 79.623C140.419 79.9844 138.285 79.999 136.723 79.9941L136.615 79.3594C137.343 79.3545 138.202 79.3496 139.105 79.3203V77.6895H139.857ZM136.879 77.3867C138.163 77.0059 139.066 76.0537 139.086 74.8867H137.094V74.252H139.105V73.1777H139.857V74.252H141.898V74.8867H139.857C139.882 76.0049 140.81 76.9229 142.094 77.2891L141.732 77.8945C140.692 77.582 139.872 76.9131 139.481 76.0342C139.105 76.9619 138.295 77.6553 137.25 77.9727L136.879 77.3867ZM142.924 81.8105V73.1094H143.686V81.8105H142.924ZM152.631 73.1094V81.791H151.898V77.2402H150.619V81.3418H149.916V73.3047H150.619V76.6055H151.898V73.1094H152.631ZM145.531 79.6426V74.1738H148.783V74.8086H146.293V78.9883C147.489 78.9834 148.314 78.9395 149.281 78.7441L149.35 79.3887C148.305 79.6035 147.421 79.6377 146.088 79.6426H145.531ZM159.135 81.0977C157.909 81.083 156.557 80.3555 156.557 77.7383C156.557 75.2334 157.582 73.832 159.242 73.832C160.487 73.832 161.356 74.5986 161.537 75.707H160.668C160.507 75.082 160.028 74.6133 159.242 74.6133C158.08 74.6133 157.382 75.6045 157.387 77.3086H157.475C157.88 76.7178 158.529 76.3711 159.291 76.3711C160.546 76.3711 161.596 77.3477 161.596 78.7148C161.596 80.0479 160.624 81.1123 159.135 81.0977ZM157.504 78.7344C157.509 79.5645 158.188 80.3213 159.135 80.3262C160.048 80.3213 160.741 79.6035 160.746 78.7246C160.741 77.8555 160.077 77.1475 159.154 77.1426C158.227 77.1475 157.514 77.8994 157.504 78.7344ZM165.434 74.7598C165.438 75.8975 166.288 76.9131 167.562 77.3281L167.201 77.9336C166.2 77.6016 165.443 76.9131 165.067 76.0391C164.696 77.0352 163.896 77.8115 162.855 78.1875L162.465 77.5723C163.764 77.1328 164.672 76.0146 164.682 74.7598V74.3887H162.699V73.7539H167.387V74.3887H165.434V74.7598ZM163.617 80.1699C163.622 79.1689 164.711 78.5879 166.498 78.5879C168.28 78.5879 169.359 79.1689 169.359 80.1699C169.359 81.1855 168.28 81.7715 166.498 81.7715C164.711 81.7715 163.622 81.1855 163.617 80.1699ZM164.389 80.1699C164.379 80.7949 165.189 81.1611 166.498 81.1562C167.812 81.1611 168.612 80.7949 168.617 80.1699C168.612 79.5645 167.812 79.2031 166.498 79.2031C165.189 79.2031 164.379 79.5645 164.389 80.1699ZM168.52 78.3535V73.1094H169.281V75.3262H170.59V75.9707H169.281V78.3535H168.52Z" fill="#989FA9"/>
<path d="M143.993 14.2842V15.1807H140.864V17.7998H139.757V15.1807H136.672V14.2842H143.993ZM137.533 13.4229V10.1973H143.114V13.4229H137.533ZM138.641 12.5439H141.998V11.085H138.641V12.5439ZM151.78 15.998V16.9209H144.459V15.998H146.331V14.7764H145.303V12.0869H149.829V11.2256H145.294V10.3291H150.937V12.9834H146.428V13.8711H151.121V14.7764H149.987V15.998H151.78ZM147.421 15.998H148.889V14.7764H147.421V15.998ZM153.521 10.5225V12.3242H154.61V10.5225H155.647V15.9102H152.466V10.5225H153.521ZM153.521 15.0137H154.61V13.2031H153.521V15.0137ZM156.315 17.4395V9.9248H157.379V12.8604H158.1V9.81055H159.172V17.8086H158.1V13.7744H157.379V17.4395H156.315ZM164.208 12.6406V13.625H167.311V14.5215H160.016V13.625H163.101V12.6406H164.208ZM160.394 12.2451C162.16 12.021 163.079 11.1069 163.083 10.2061V9.94238H164.226V10.2061C164.221 11.1421 165.118 12.021 166.924 12.2451L166.493 13.1152C165.14 12.9131 164.146 12.3462 163.641 11.5464C163.131 12.3418 162.138 12.9175 160.789 13.1152L160.394 12.2451ZM160.851 16.3936C160.851 15.4839 161.901 14.9653 163.654 14.9609C165.395 14.9653 166.432 15.4839 166.44 16.3936C166.432 17.3032 165.395 17.813 163.654 17.8086C161.901 17.813 160.851 17.3032 160.851 16.3936ZM161.993 16.3936C161.989 16.7847 162.534 16.9736 163.654 16.9736C164.749 16.9736 165.311 16.7847 165.315 16.3936C165.311 15.9937 164.749 15.8179 163.654 15.8135C162.534 15.8179 161.989 15.9937 161.993 16.3936Z" fill="black"/>
<path d="M142.452 49.0859V49.8477H132.96V49.0859H137.249V47.9961C135.251 47.8906 134.014 47.1406 134.014 45.9102C134.014 44.627 135.444 43.8535 137.706 43.8477C139.944 43.8535 141.38 44.627 141.385 45.9102C141.38 47.1406 140.137 47.8906 138.163 47.9961V49.0859H142.452ZM134.19 53.7266V50.6914H135.116V52.9531H141.397V53.7266H134.19ZM134.964 45.9102C134.958 46.7598 136.024 47.2461 137.706 47.2461C139.376 47.2461 140.442 46.7598 140.448 45.9102C140.442 45.1133 139.376 44.5977 137.706 44.5977C136.024 44.5977 134.958 45.1133 134.964 45.9102ZM151.873 43.5312V47.6797H153.619V48.4531H151.873V53.9727H150.959V43.5312H151.873ZM144.221 45.2656V44.5039H148.955V48.2305H145.158V50.668C147.092 50.6738 148.446 50.5977 150.022 50.3047L150.115 51.0664C148.475 51.3652 147.086 51.4414 145.076 51.4531H144.244V47.4688H148.041V45.2656H144.221ZM163.263 43.543V51.1602H162.349V43.543H163.263ZM154.908 46.8242C154.902 45.3242 156.08 44.2754 157.638 44.2695C159.197 44.2754 160.363 45.3242 160.369 46.8242C160.363 48.3418 159.197 49.3965 157.638 49.3906C156.08 49.3965 154.902 48.3418 154.908 46.8242ZM155.81 46.8242C155.799 47.8613 156.584 48.582 157.638 48.582C158.676 48.582 159.467 47.8613 159.467 46.8242C159.467 45.8047 158.676 45.0781 157.638 45.0781C156.584 45.0781 155.799 45.8047 155.81 46.8242ZM156.537 53.7266V50.3867H157.451V52.9531H163.592V53.7266H156.537ZM175.005 48.0898V48.8516H165.513V48.0898H169.79V47.0586H166.743V43.8828H173.775V47.0586H170.693V48.0898H175.005ZM166.661 50.4336V49.7188H173.786V52.0508H167.599V53.1055H174.103V53.832H166.685V51.3594H172.884V50.4336H166.661ZM167.658 46.3203H172.861V44.6211H167.658V46.3203ZM132.479 58.5273V61.0703H134.741V58.5273H135.597V65.3477H131.601V58.5273H132.479ZM132.479 64.5859H134.741V61.8203H132.479V64.5859ZM136.921 67.4219V57.7539H137.8V61.668H139.253V57.5312H140.144V67.9492H139.253V62.4297H137.8V67.4219H136.921ZM147.256 61.1758V62.7109H151.557V63.4609H142.065V62.7109H146.354V61.1758H147.256ZM142.639 60.9883C144.479 60.7363 146.342 59.5762 146.342 58.1875V57.6953H147.268V58.1875C147.268 59.5762 149.143 60.7363 150.983 60.9883L150.608 61.7266C149.032 61.4512 147.461 60.6133 146.811 59.4121C146.155 60.625 144.59 61.4512 142.991 61.7266L142.639 60.9883ZM143.213 66.1328C143.208 64.9785 144.549 64.334 146.811 64.3281C149.049 64.334 150.385 64.9785 150.397 66.1328C150.385 67.293 149.049 67.9258 146.811 67.9258C144.549 67.9258 143.208 67.293 143.213 66.1328ZM144.151 66.1328C144.139 66.8184 145.124 67.2168 146.811 67.2109C148.481 67.2168 149.465 66.8184 149.471 66.1328C149.465 65.4414 148.481 65.0547 146.811 65.0547C145.124 65.0547 144.139 65.4414 144.151 66.1328ZM164.681 58.1875V59.1484C164.681 60.2266 164.681 61.4277 164.312 63.1328H165.9V63.9062H161.634V67.9492H160.709V63.9062H156.408V63.1328H163.392C163.574 62.3945 163.673 61.7383 163.732 61.1465L157.439 61.4688L157.322 60.6602L163.785 60.4375C163.808 59.9805 163.808 59.5527 163.814 59.1484V58.9492H157.615V58.1875H164.681ZM175.849 58.0117V58.7734H174.243V61.1641H175.814V61.9023H172.462V63.1797H176.751V63.9297H167.259V63.1797H171.548V61.9023H168.185V61.1641H169.755V58.7734H168.149V58.0117H175.849ZM168.489 67.7266V64.8438H169.415V66.9531H175.696V67.7266H168.489ZM170.669 61.1641H173.329V58.7734H170.669V61.1641Z" fill="black"/>
<path d="M170 5V6L176 15V21.5C176 23.7091 174.209 25.5 172 25.5H170V28H135C132.791 28 131 26.2091 131 24V5C131 2.79086 132.791 1 135 1H166C168.209 1 170 2.79086 170 5Z" stroke="black"/>
<circle cx="165" cy="27" r="5" fill="white" stroke="black"/>
<circle cx="139" cy="27" r="5" fill="white" stroke="black"/>
<path d="M251.993 17.1194V18.0159H248.864V20.635H247.757V18.0159H244.672V17.1194H251.993ZM245.533 16.2581V13.0325H251.114V16.2581H245.533ZM246.641 15.3792H249.998V13.9202H246.641V15.3792ZM259.78 18.8333V19.7561H252.459V18.8333H254.331V17.6116H253.303V14.9221H257.829V14.0608H253.294V13.1643H258.937V15.8186H254.428V16.7063H259.121V17.6116H257.987V18.8333H259.78ZM255.421 18.8333H256.889V17.6116H255.421V18.8333ZM261.521 13.3577V15.1594H262.61V13.3577H263.647V18.7454H260.466V13.3577H261.521ZM261.521 17.8489H262.61V16.0383H261.521V17.8489ZM264.315 20.2747V12.76H265.379V15.6956H266.1V12.6458H267.172V20.6438H266.1V16.6096H265.379V20.2747H264.315ZM272.208 15.4758V16.4602H275.311V17.3567H268.016V16.4602H271.101V15.4758H272.208ZM268.394 15.0803C270.16 14.8562 271.079 13.9421 271.083 13.0413V12.7776H272.226V13.0413C272.221 13.9773 273.118 14.8562 274.924 15.0803L274.493 15.9504C273.14 15.7483 272.146 15.1814 271.641 14.3816C271.131 15.177 270.138 15.7527 268.789 15.9504L268.394 15.0803ZM268.851 19.2288C268.851 18.3191 269.901 17.8005 271.654 17.7961C273.395 17.8005 274.432 18.3191 274.44 19.2288C274.432 20.1384 273.395 20.6482 271.654 20.6438C269.901 20.6482 268.851 20.1384 268.851 19.2288ZM269.993 19.2288C269.989 19.6199 270.534 19.8088 271.654 19.8088C272.749 19.8088 273.311 19.6199 273.315 19.2288C273.311 18.8289 272.749 18.6531 271.654 18.6487C270.534 18.6531 269.989 18.8289 269.993 19.2288Z" fill="black"/>
<path d="M246.706 46.2109C248.921 46.2227 250.514 47.3008 250.514 48.9414C250.514 50.4941 249.132 51.5195 247.151 51.6543V53.8398H251.499V54.6133H241.96V53.8398H246.249V51.6543C244.28 51.5137 242.897 50.4883 242.897 48.9414C242.897 47.3008 244.497 46.2227 246.706 46.2109ZM243.788 48.9414C243.782 50.1426 245.018 50.9219 246.706 50.9336C248.393 50.9219 249.624 50.1426 249.624 48.9414C249.624 47.7637 248.393 46.9668 246.706 46.9727C245.018 46.9668 243.782 47.7637 243.788 48.9414ZM261.213 48.0391V48.8008H254.1V45.707H255.002V48.0391H261.213ZM252.799 50.582V49.832H262.338V50.582H252.799ZM253.994 52.2461V51.5195H261.108V53.957H254.944V55.0703H261.483V55.8086H254.018V53.2539H260.205V52.2461H253.994ZM272.076 50.5469V51.3086H264.881V46.5039H271.97V47.2656H265.795V50.5469H272.076ZM263.662 54.5312V53.7578H273.201V54.5312H263.662ZM283.115 45.543V51.7188H282.2V45.543H283.115ZM275.04 46.9141V46.1758H279.798V49H275.954V50.4414C277.818 50.4531 279.206 50.3945 280.9 50.1133L281.005 50.8867C279.253 51.1562 277.829 51.2148 275.908 51.2148H275.064V48.2734H278.884V46.9141H275.04ZM276.341 55.8086V52.2812H283.115V55.8086H276.341ZM277.243 55.0586H282.212V53.0312H277.243V55.0586ZM243.741 65.4844V67.8516H246.202V65.4844H247.116V67.8516H249.753V68.6133H240.214V67.8516H242.839V65.4844H243.741ZM240.565 64.5C242.388 64.1836 244.438 62.7363 244.444 61.0312V60.2344H245.405V61.0312C245.411 62.7363 247.474 64.2012 249.296 64.5L248.921 65.2617C247.298 64.9395 245.61 63.9082 244.931 62.4434C244.245 63.9023 242.558 64.9512 240.952 65.2617L240.565 64.5ZM257.17 60.4336V61.207H256.116V64.248C256.655 64.207 257.182 64.1543 257.686 64.0898L257.756 64.793C255.618 65.127 253.122 65.1621 251.358 65.168L251.241 64.3945C251.651 64.3945 252.102 64.3945 252.577 64.3887V61.207H251.534V60.4336H257.17ZM252.694 68.0273C252.688 66.8379 254.018 66.1582 256.209 66.1523C258.401 66.1582 259.737 66.8379 259.737 68.0273C259.737 69.2402 258.401 69.9258 256.209 69.9258C254.018 69.9258 252.688 69.2402 252.694 68.0273ZM253.467 64.3711C254.041 64.3594 254.633 64.3359 255.225 64.3008V61.207H253.467V64.3711ZM253.596 68.0273C253.602 68.7656 254.586 69.1992 256.209 69.1992C257.827 69.1992 258.817 68.7656 258.811 68.0273C258.817 67.3184 257.827 66.8848 256.209 66.8906C254.586 66.8848 253.602 67.3184 253.596 68.0273ZM258.752 65.9297V59.543H259.666V65.9297H258.752ZM273.681 60.1875V61.1484C273.681 62.2266 273.681 63.4277 273.312 65.1328H274.9V65.9062H270.634V69.9492H269.709V65.9062H265.408V65.1328H272.392C272.574 64.3945 272.673 63.7383 272.732 63.1465L266.439 63.4688L266.322 62.6602L272.785 62.4375C272.808 61.9805 272.808 61.5527 272.814 61.1484V60.9492H266.615V60.1875H273.681ZM284.849 60.0117V60.7734H283.243V63.1641H284.814V63.9023H281.462V65.1797H285.751V65.9297H276.259V65.1797H280.548V63.9023H277.185V63.1641H278.755V60.7734H277.149V60.0117H284.849ZM277.489 69.7266V66.8438H278.415V68.9531H284.696V69.7266H277.489ZM279.669 63.1641H282.329V60.7734H279.669V63.1641Z" fill="black"/>
<path d="M258 9.32099L259.811 5.69867C260.49 4.34161 262.075 3.70478 263.503 4.21508L279.478 9.92012C280.914 10.4333 281.737 11.9433 281.39 13.429L277.288 30.9521C276.872 32.73 274.978 33.727 273.277 33.0631L256 26.321M267 8.32099C267 8.32099 269 0.32099 274 2.32099C278.5 4.12098 275 11.321 275 11.321M242.5 25.821H251M249.5 31.321H260" stroke="black" stroke-linecap="round" stroke-linejoin="round"/>
<path d="M33.4988 159.613H23.9597V158.828H33.4988V159.613ZM32.5847 152.348H24.8034V151.586H32.5847V152.348ZM32.5613 156.742H24.8269V155.992H32.5613V156.742ZM27.3698 156.086H26.4558V152.277H27.3698V156.086ZM30.9323 156.086H30.03V152.277H30.9323V156.086ZM43.4123 160.973H42.4983V150.531H43.4123V160.973ZM36.2873 157.668C37.2327 157.672 38.1116 157.646 38.9241 157.592C39.7405 157.537 40.5959 157.438 41.4905 157.293L41.5842 158.066C40.678 158.207 39.8108 158.305 38.9827 158.359C38.1545 158.414 37.2561 158.441 36.2873 158.441H35.4202V157.668H36.2873ZM40.2483 155.207H36.3577V157.961H35.4202V154.457H39.3225V152.266H35.3967V151.504H40.2483V155.207ZM51.0877 158.336H46.2712V151.562H51.0877V158.336ZM47.1736 157.586H50.1853V152.301H47.1736V157.586ZM54.2517 160.973H53.3259V150.531H54.2517V160.973ZM64.4934 153.941H61.6809V153.18H64.4934V153.941ZM59.3841 151.141C59.8958 151.141 60.3548 151.244 60.761 151.451C61.1712 151.658 61.4915 151.947 61.722 152.318C61.9563 152.689 62.0755 153.113 62.0794 153.59C62.0755 154.07 61.9563 154.498 61.722 154.873C61.4915 155.244 61.1712 155.533 60.761 155.74C60.3548 155.947 59.8958 156.051 59.3841 156.051C58.8645 156.051 58.3977 155.947 57.9837 155.74C57.5735 155.533 57.2532 155.244 57.0227 154.873C56.7923 154.498 56.677 154.07 56.677 153.59C56.677 153.113 56.7923 152.689 57.0227 152.318C57.2532 151.947 57.5735 151.658 57.9837 151.451C58.3977 151.244 58.8645 151.141 59.3841 151.141ZM59.3841 151.914C59.0325 151.914 58.718 151.984 58.4407 152.125C58.1634 152.266 57.9466 152.465 57.7903 152.723C57.6341 152.977 57.5559 153.266 57.5559 153.59C57.5559 153.918 57.6341 154.209 57.7903 154.463C57.9466 154.717 58.1634 154.916 58.4407 155.061C58.718 155.201 59.0325 155.273 59.3841 155.277C59.7239 155.273 60.0305 155.201 60.304 155.061C60.5813 154.916 60.7981 154.717 60.9544 154.463C61.1106 154.205 61.1888 153.914 61.1888 153.59C61.1888 153.266 61.1106 152.977 60.9544 152.723C60.7981 152.465 60.5813 152.266 60.304 152.125C60.0305 151.984 59.7239 151.914 59.3841 151.914ZM65.1497 156.52H64.2239V150.531H65.1497V156.52ZM65.1497 160.809H58.3411V157.059H65.1497V160.809ZM59.2552 160.059H64.2473V157.809H59.2552V160.059ZM26.3273 173.566H16.7883V172.793H26.3273V173.566ZM18.8391 167.227H24.2531V165.281H25.1555V170.707H17.9133V165.281H18.8391V167.227ZM24.2531 169.969V167.965H18.8391V169.969H24.2531ZM36.487 172.301H35.6081V164.543H36.487V172.301ZM35.8894 168.434H33.8855V167.66H35.8894V168.434ZM34.1433 171.996H33.2878V164.742H34.1433V171.996ZM36.8034 174.727H29.655V173.953H36.8034V174.727ZM30.5691 174.234H29.655V171.586H30.5691V174.234ZM28.7995 169.992C29.6042 169.988 30.2976 169.965 30.8796 169.922C31.4616 169.879 32.0573 169.797 32.6667 169.676L32.7722 170.414C32.1277 170.539 31.5046 170.625 30.903 170.672C30.3054 170.715 29.6042 170.734 28.7995 170.73H28.1198V169.992H28.7995ZM32.0456 168.41H29.0105V170.379H28.1198V167.684H31.1667V166.184H28.0964V165.434H32.0456V168.41ZM46.9045 170.309H39.7092V169.547H46.9045V170.309ZM48.0295 173.531H38.4905V172.758H48.0295V173.531ZM46.7991 166.266H40.6233V169.887H39.7092V165.504H46.7991V166.266ZM53.8645 168.469L53.7473 167.66L60.4622 167.426V168.129L53.8645 168.469ZM60.6028 165.949H54.0403V165.188H60.6028V165.949ZM62.3255 170.906H52.8333V170.133H62.3255V170.906ZM58.0598 174.949H57.1341V170.707H58.0598V174.949ZM61.1067 166.195C61.1067 166.695 61.0989 167.135 61.0833 167.514C61.0677 167.893 61.0286 168.326 60.9661 168.814C60.9075 169.299 60.8137 169.82 60.6848 170.379L59.7825 170.262C59.9153 169.742 60.0149 169.252 60.0813 168.791C60.1477 168.326 60.1887 167.912 60.2044 167.549C60.2239 167.182 60.2356 166.746 60.2395 166.242V166.148V165.188H61.1067V166.148V166.195ZM72.2742 165.773H64.575V165.012H72.2742V165.773ZM72.2391 168.902H64.6102V168.164H72.2391V168.902ZM67.0945 168.492H66.1805V165.375H67.0945V168.492ZM70.6688 168.492H69.7547V165.375H70.6688V168.492ZM73.1766 170.93H63.6844V170.18H73.1766V170.93ZM68.8875 170.648H67.9734V168.656H68.8875V170.648ZM72.1219 174.727H64.9148V173.953H72.1219V174.727ZM65.8406 174.211H64.9148V171.844H65.8406V174.211Z" fill="black"/>
<path d="M33 124.321C33 122.112 34.7909 120.321 37 120.321H43C45.2091 120.321 47 122.112 47 124.321V136.321C47 136.873 46.5523 137.321 46 137.321H34C33.4477 137.321 33 136.873 33 136.321V124.321Z" stroke="black" stroke-linejoin="round"/>
<path d="M37 116.321C37 115.769 37.4477 115.321 38 115.321H42C42.5523 115.321 43 115.769 43 116.321V120.321H37V116.321Z" stroke="black"/>
<path d="M38 111.321C38 110.216 38.8954 109.321 40 109.321V109.321C41.1046 109.321 42 110.216 42 111.321V115.321H38V111.321Z" stroke="black"/>
<rect x="50" y="124.321" width="8" height="13" rx="1" stroke="black" stroke-linejoin="round"/>
<path d="M52 114.59V124.321H57V117.151C57 117.151 57 116.331 55 115.102C53 113.873 52.1667 114.419 52 114.59Z" stroke="black" stroke-linecap="round" stroke-linejoin="round"/>
<path d="M58 110.321V114.321" stroke="black" stroke-linecap="round" stroke-linejoin="round"/>
<path d="M60 112.321L56 112.321" stroke="black" stroke-linecap="round" stroke-linejoin="round"/>
<path d="M239.28 149.66C241.595 149.66 242.954 150.305 242.96 151.465C242.954 152.561 241.765 153.193 239.714 153.27V154.066H244.026V154.816H234.534V154.066H238.811V153.27C236.772 153.182 235.589 152.555 235.589 151.465C235.589 150.305 236.954 149.66 239.28 149.66ZM235.683 156.41V155.695H242.808V158.027H236.62V159.105H243.124V159.832H235.706V157.348H241.905V156.41H235.683ZM236.55 151.465C236.538 152.18 237.552 152.566 239.28 152.578C241.009 152.566 242.017 152.18 242.022 151.465C242.017 150.779 241.009 150.375 239.28 150.363C237.552 150.375 236.538 150.779 236.55 151.465ZM253.987 149.531V159.973H253.073V149.531H253.987ZM245.971 151.266V150.504H250.823V154.207H246.932V156.668C248.661 156.674 250.202 156.592 252.065 156.293L252.159 157.066C250.243 157.365 248.661 157.441 246.862 157.441H245.995V153.457H249.897V151.266H245.971ZM265.775 157.793V158.566H256.236V157.793H265.775ZM257.361 155.707V150.281H258.287V152.227H263.701V150.281H264.604V155.707H257.361ZM258.287 154.969H263.701V152.965H258.287V154.969ZM276.005 149.531V159.949H275.115V149.531H276.005ZM267.498 157.441V150.82H271.423V151.582H268.388V156.668C269.894 156.656 270.843 156.604 271.962 156.352L272.056 157.137C270.849 157.383 269.83 157.436 268.154 157.441H267.498ZM270.72 154.289V153.516H272.994V149.789H273.873V159.41H272.994V154.289H270.72ZM286.528 149.531V159.973H285.603V149.531H286.528ZM278.325 153.973C278.331 151.758 279.433 150.346 280.985 150.34C282.532 150.346 283.651 151.758 283.646 153.973C283.651 156.193 282.532 157.6 280.985 157.594C279.433 157.6 278.331 156.193 278.325 153.973ZM279.216 153.973C279.216 155.666 279.942 156.779 280.985 156.773C282.034 156.779 282.755 155.666 282.755 153.973C282.755 152.279 282.034 151.166 280.985 151.16C279.942 151.166 279.216 152.279 279.216 153.973ZM238.612 168.488V169.262H229.109V168.488H238.612ZM230.257 172.051C230.251 170.855 231.605 170.176 233.855 170.176C236.087 170.176 237.429 170.855 237.441 172.051C237.429 173.258 236.087 173.926 233.855 173.926C231.605 173.926 230.251 173.258 230.257 172.051ZM230.316 167.492V163.953H237.429V164.727H231.218V166.742H237.499V167.492H230.316ZM231.195 172.051C231.183 172.783 232.185 173.199 233.855 173.199C235.507 173.199 236.509 172.783 236.515 172.051C236.509 171.324 235.507 170.902 233.855 170.891C232.185 170.902 231.183 171.324 231.195 172.051ZM242.116 169.496V170.879H247.331V169.496H248.245V173.809H241.202V169.496H242.116ZM239.96 168.559V167.797H247.055C247.337 166.502 247.337 165.57 247.331 164.773H241.167V164.012H248.245V164.773C248.245 165.57 248.245 166.496 247.958 167.797H249.499V168.559H239.96ZM242.116 173.059H247.331V171.605H242.116V173.059ZM259.436 163.531V168.98H258.522V167.645H256.061V168.559H251.338V164.023H252.252V165.523H255.158V164.023H256.061V165.031H258.522V163.531H259.436ZM252.252 167.809H255.158V166.25H252.252V167.809ZM252.686 170.223V169.484H259.436V171.934H253.623V173.07H259.834V173.809H252.709V171.23H258.522V170.223H252.686ZM256.061 166.918H258.522V165.746H256.061V166.918ZM270.51 163.543V169.637H269.631V166.906H268.248V169.496H267.381V163.73H268.248V166.145H269.631V163.543H270.51ZM261.674 168.629C263.045 168.043 263.883 166.695 263.888 165.523V164.141H264.767V165.535C264.773 166.684 265.576 167.861 266.912 168.371L266.431 169.074C265.424 168.682 264.703 167.926 264.334 167.023C263.947 168.02 263.197 168.904 262.177 169.367L261.674 168.629ZM263.631 173.809V170.164H270.51V173.809H263.631ZM264.533 173.059H269.607V170.902H264.533V173.059ZM281.103 163.859V164.586H279.497V166.602H281.068V167.316H273.439V166.602H275.009V164.586H273.404V163.859H281.103ZM272.513 168.934V168.195H282.005V168.934H272.513ZM273.661 170.562V169.871H280.786V172.133H274.599V173.129H281.103V173.832H273.685V171.465H279.884V170.562H273.661ZM275.923 166.602H278.583V164.586H275.923V166.602ZM291.966 163.543V169.953H291.052V163.543H291.966ZM283.891 164.973V164.199H288.649V167.059H284.805V168.535C286.669 168.535 288.057 168.482 289.751 168.207L289.856 168.969C288.104 169.256 286.68 169.303 284.759 169.309H283.915V166.332H287.735V164.973H283.891ZM284.993 172.051C284.987 170.855 286.317 170.164 288.509 170.164C290.7 170.164 292.036 170.855 292.036 172.051C292.036 173.24 290.7 173.926 288.509 173.926C286.317 173.926 284.987 173.24 284.993 172.051ZM285.895 172.051C285.901 172.766 286.886 173.193 288.509 173.188C290.126 173.193 291.116 172.766 291.11 172.051C291.116 171.336 290.126 170.902 288.509 170.902C286.886 170.902 285.901 171.336 285.895 172.051Z" fill="black"/>
<path d="M223.14 184.071C223.14 185.282 224.019 186.425 225.288 186.884L224.858 187.479C223.906 187.103 223.145 186.351 222.773 185.404C222.407 186.454 221.616 187.284 220.591 187.694L220.181 187.069C221.484 186.591 222.383 185.375 222.388 184.042V182.968H223.14V184.071ZM221.753 190.927V188.202H222.524V190.282H227.563V190.927H221.753ZM224.663 185.126V184.481H226.597V182.44H227.368V188.944H226.597V185.126H224.663ZM231.772 184.325C231.777 185.404 232.646 186.39 233.931 186.776L233.56 187.382C232.563 187.069 231.792 186.405 231.411 185.551C231.03 186.488 230.234 187.206 229.214 187.548L228.823 186.942C230.117 186.542 231.016 185.502 231.021 184.325V184.13H229.058V183.514H231.021V182.401H231.792V183.514H233.735V184.13H231.772V184.325ZM229.917 188.817V188.182H235.601V191.132H234.839V188.817H229.917ZM234.839 187.733V182.43H235.601V184.755H236.909V185.409H235.601V187.733H234.839ZM241.812 183.094C241.807 184.232 243.389 185.267 244.897 185.497L244.595 186.102C243.276 185.878 241.968 185.145 241.421 184.135C240.874 185.165 239.561 185.887 238.237 186.112L237.935 185.507C239.453 185.272 241.021 184.266 241.021 183.094V182.655H241.812V183.094ZM237.446 187.489V186.854H245.396V187.489H241.86V189.266H241.099V187.489H237.446ZM238.462 190.927V188.417H239.233V190.282H244.507V190.927H238.462ZM247.524 189.667L246.763 192.323H246.04L246.577 189.667H247.524ZM255.122 182.997C256.968 183.007 258.296 183.905 258.296 185.272C258.296 186.566 257.144 187.421 255.493 187.533V189.354H259.116V189.999H251.167V189.354H254.741V187.533C253.101 187.416 251.948 186.561 251.948 185.272C251.948 183.905 253.281 183.007 255.122 182.997ZM252.69 185.272C252.686 186.273 253.716 186.923 255.122 186.932C256.528 186.923 257.554 186.273 257.554 185.272C257.554 184.291 256.528 183.627 255.122 183.632C253.716 183.627 252.686 184.291 252.69 185.272ZM267.759 189.344V189.999H259.81V189.344H267.759ZM260.513 183.944V183.309H266.997V183.944H265.62V186.981H266.978V187.606H260.532V186.981H261.89V183.944H260.513ZM262.651 186.981H264.868V183.944H262.651V186.981ZM275.171 182.43V185.887H276.626V186.532H275.171V191.132H274.409V182.43H275.171ZM268.794 183.876V183.241H272.739V186.346H269.575V188.378C271.187 188.383 272.314 188.319 273.628 188.075L273.706 188.71C272.339 188.959 271.182 189.022 269.507 189.032H268.813V185.712H271.978V183.876H268.794ZM284.263 182.44V188.788H283.501V182.44H284.263ZM277.3 185.175C277.295 183.925 278.276 183.051 279.575 183.046C280.874 183.051 281.846 183.925 281.851 185.175C281.846 186.439 280.874 187.318 279.575 187.313C278.276 187.318 277.295 186.439 277.3 185.175ZM278.052 185.175C278.042 186.039 278.696 186.639 279.575 186.639C280.439 186.639 281.099 186.039 281.099 185.175C281.099 184.325 280.439 183.719 279.575 183.719C278.696 183.719 278.042 184.325 278.052 185.175ZM278.657 190.927V188.143H279.419V190.282H284.536V190.927H278.657ZM295.034 182.44V185.302H296.343V185.946H295.034V188.944H294.272V182.44H295.034ZM288.267 184.13V183.505H290.474V182.44H291.235V183.505H293.442V184.13H288.267ZM288.765 186.229C288.76 185.243 289.6 184.608 290.854 184.608C292.095 184.608 292.935 185.243 292.944 186.229C292.935 187.206 292.095 187.836 290.854 187.831C289.6 187.836 288.76 187.206 288.765 186.229ZM289.497 186.229C289.492 186.84 290.034 187.235 290.854 187.225C291.665 187.235 292.212 186.84 292.222 186.229C292.212 185.609 291.665 185.209 290.854 185.214C290.034 185.209 289.492 185.609 289.497 186.229ZM289.604 190.927V188.427H290.356V190.282H295.435V190.927H289.604ZM304.087 182.43V187.606H303.315V185.331H301.567V184.696H303.315V182.43H304.087ZM296.929 186.913C298.218 186.449 299.136 185.272 299.136 184.032V183.71H297.173V183.065H301.851V183.71H299.907V184.022C299.907 185.155 300.776 186.234 302.046 186.669L301.646 187.284C300.674 186.932 299.917 186.2 299.541 185.306C299.17 186.322 298.364 187.133 297.329 187.528L296.929 186.913ZM298.296 189.491C298.291 188.47 299.399 187.875 301.206 187.88C303.008 187.875 304.116 188.47 304.116 189.491C304.116 190.516 303.008 191.102 301.206 191.112C299.399 191.102 298.291 190.516 298.296 189.491ZM299.058 189.491C299.053 190.121 299.873 190.502 301.206 190.497C302.534 190.502 303.354 190.121 303.354 189.491C303.354 188.856 302.534 188.475 301.206 188.475C299.873 188.475 299.053 188.856 299.058 189.491Z" fill="#989FA9"/>
<path d="M256 118.151C256 118.151 255.5 109.321 261 109.321C266.5 109.321 266 118.151 266 118.151M252.293 135.321H269.713C271.478 135.321 272.861 133.805 272.701 132.048L271.365 117.444C271.224 115.899 269.928 114.717 268.377 114.717H253.656C252.107 114.717 250.813 115.896 250.669 117.438L249.306 132.042C249.142 133.802 250.526 135.321 252.293 135.321Z" stroke="black" stroke-linecap="round"/>
<path d="M267 120.321C267 119.216 267.895 118.321 269 118.321H272C273.105 118.321 274 119.216 274 120.321V125.321H267V120.321Z" fill="white" stroke="black"/>
<path d="M264 129.321C264 126.56 266.239 124.321 269 124.321H272C274.761 124.321 277 126.56 277 129.321V137.321C277 138.426 276.105 139.321 275 139.321H266C264.895 139.321 264 138.426 264 137.321V129.321Z" fill="white" stroke="black"/>
<path d="M37.2329 269.543V275.578H36.354V269.543H37.2329ZM28.8657 274.793V270.293H32.897V272.086H34.3618V269.754H35.2407V275.449H34.3618V272.848H32.897V274.793H28.8657ZM29.7329 274.09H32.0415V271.02H29.7329V274.09ZM30.354 279.809V276.094H37.2329V279.809H30.354ZM31.2563 279.059H36.3305V276.82H31.2563V279.059ZM47.873 269.531V279.973H46.959V274.172H44.4629V277.336H39.6582V270.352H40.584V273.07H43.5605V270.352H44.4629V273.41H46.959V269.531H47.873ZM40.584 276.574H43.5605V273.809H40.584V276.574ZM58.689 269.543V275.461H57.7749V269.543H58.689ZM50.1695 274.465C51.7456 273.914 52.8413 272.502 52.8413 270.973V269.953H53.7788V270.973C53.7671 272.443 54.8921 273.744 56.4273 274.289L55.9585 274.992C54.7515 274.576 53.7847 273.697 53.3159 272.561C52.853 273.768 51.8804 274.729 50.6382 275.191L50.1695 274.465ZM51.9155 279.809V276.059H58.689V279.809H51.9155ZM52.8179 279.059H57.7866V276.809H52.8179V279.059ZM24.3193 285.605C24.3252 286.76 25.1279 287.926 26.4638 288.43L25.9834 289.133C24.9814 288.746 24.2607 288.002 23.8857 287.105C23.5048 288.096 22.7548 288.98 21.7295 289.426L21.2255 288.711C22.5966 288.113 23.4345 286.766 23.4404 285.605V284.188H24.3193V285.605ZM23.124 292.074C23.1123 290.896 24.4482 290.205 26.6162 290.211C28.7724 290.205 30.1142 290.896 30.1201 292.074C30.1142 293.24 28.7724 293.926 26.6162 293.926C24.4482 293.926 23.1123 293.24 23.124 292.074ZM24.038 292.074C24.0263 292.783 25.0166 293.217 26.6162 293.211C28.1982 293.217 29.1943 292.783 29.206 292.074C29.1943 291.354 28.1982 290.92 26.6162 290.914C25.0166 290.92 24.0263 291.354 24.038 292.074ZM26.9326 289.648V283.742H27.7998V286.344H29.1826V283.543H30.0615V289.977H29.1826V287.105H27.7998V289.648H26.9326ZM35.018 283.918C36.5766 283.924 37.7075 284.873 37.7134 286.227C37.7075 287.586 36.5766 288.523 35.018 288.523C33.4419 288.523 32.3052 287.586 32.311 286.227C32.3052 284.873 33.4419 283.924 35.018 283.918ZM33.2134 286.227C33.2016 287.141 33.9692 287.773 35.018 287.773C36.0493 287.773 36.8227 287.141 36.8227 286.227C36.8227 285.324 36.0493 284.686 35.018 284.691C33.9692 284.686 33.2016 285.324 33.2134 286.227ZM33.893 290.129V289.391H40.6665V291.898H34.8188V293.07H41.0415V293.809H33.9165V291.207H39.7524V290.129H33.893ZM39.7524 288.887V283.531H40.6665V288.887H39.7524ZM54.6812 284.188V285.148C54.6812 286.227 54.6812 287.428 54.312 289.133H55.8999V289.906H51.6343V293.949H50.7085V289.906H46.4077V289.133H53.3921C53.5738 288.395 53.6734 287.738 53.732 287.146L47.439 287.469L47.3218 286.66L53.7847 286.438C53.8081 285.98 53.8081 285.553 53.814 285.148V284.949H47.6148V284.188H54.6812ZM65.8487 284.012V284.773H64.2432V287.164H65.8135V287.902H62.462V289.18H66.751V289.93H57.2588V289.18H61.5479V287.902H58.1846V287.164H59.7549V284.773H58.1495V284.012H65.8487ZM58.4893 293.727V290.844H59.4151V292.953H65.6963V293.727H58.4893ZM60.669 287.164H63.3291V284.773H60.669V287.164Z" fill="black"/>
<path d="M24.5781 301.838C24.583 302.8 25.252 303.771 26.3652 304.191L25.9648 304.777C25.1299 304.455 24.5293 303.835 24.2168 303.088C23.8994 303.913 23.2744 304.65 22.4199 305.021L22 304.426C23.1426 303.928 23.8408 302.805 23.8457 301.838V300.656H24.5781V301.838ZM23.582 307.229C23.5723 306.247 24.6855 305.671 26.4922 305.676C28.2891 305.671 29.4072 306.247 29.4121 307.229C29.4072 308.2 28.2891 308.771 26.4922 308.771C24.6855 308.771 23.5723 308.2 23.582 307.229ZM24.3438 307.229C24.334 307.819 25.1592 308.181 26.4922 308.176C27.8105 308.181 28.6406 307.819 28.6504 307.229C28.6406 306.628 27.8105 306.267 26.4922 306.262C25.1592 306.267 24.334 306.628 24.3438 307.229ZM26.7559 305.207V300.285H27.4785V302.453H28.6309V300.119H29.3633V305.48H28.6309V303.088H27.4785V305.207H26.7559ZM33.0938 300.432C34.3926 300.437 35.335 301.228 35.3398 302.355C35.335 303.488 34.3926 304.27 33.0938 304.27C31.7803 304.27 30.833 303.488 30.8379 302.355C30.833 301.228 31.7803 300.437 33.0938 300.432ZM31.5898 302.355C31.5801 303.117 32.2197 303.645 33.0938 303.645C33.9531 303.645 34.5977 303.117 34.5977 302.355C34.5977 301.604 33.9531 301.071 33.0938 301.076C32.2197 301.071 31.5801 301.604 31.5898 302.355ZM32.1562 305.607V304.992H37.8008V307.082H32.9277V308.059H38.1133V308.674H32.1758V306.506H37.0391V305.607H32.1562ZM37.0391 304.572V300.109H37.8008V304.572H37.0391ZM46.4336 300.119V305.236H45.6621V304.758H43.9043V304.25H45.6621V300.119H46.4336ZM39.2461 303.391C40.9258 303.4 43.0742 303.381 44.9492 303.176L44.998 303.674C44.1484 303.796 43.2646 303.869 42.4004 303.908V305.266H41.6484V303.938C40.8281 303.967 40.0371 303.967 39.334 303.967L39.2461 303.391ZM39.9199 301.594C39.9199 300.788 40.7695 300.285 42.0781 300.285C43.3721 300.285 44.2266 300.788 44.2363 301.594C44.2266 302.404 43.3721 302.888 42.0781 302.893C40.7695 302.888 39.9199 302.404 39.9199 301.594ZM40.5742 306.105V305.549H46.4336V307.346H41.3652V308.127H46.7168V308.693H40.6133V306.809H45.6719V306.105H40.5742ZM40.6426 301.594C40.6377 302.053 41.2041 302.365 42.0781 302.365C42.9424 302.365 43.5088 302.053 43.5137 301.594C43.5088 301.13 42.9424 300.817 42.0781 300.822C41.2041 300.817 40.6377 301.13 40.6426 301.594ZM57.2148 300.119V302.98H58.5234V303.625H57.2148V306.623H56.4531V300.119H57.2148ZM50.4473 301.809V301.184H52.6543V300.119H53.416V301.184H55.623V301.809H50.4473ZM50.9453 303.908C50.9404 302.922 51.7803 302.287 53.0352 302.287C54.2754 302.287 55.1152 302.922 55.125 303.908C55.1152 304.885 54.2754 305.515 53.0352 305.51C51.7803 305.515 50.9404 304.885 50.9453 303.908ZM51.6777 303.908C51.6729 304.519 52.2148 304.914 53.0352 304.904C53.8457 304.914 54.3926 304.519 54.4023 303.908C54.3926 303.288 53.8457 302.888 53.0352 302.893C52.2148 302.888 51.6729 303.288 51.6777 303.908ZM51.7852 308.605V306.105H52.5371V307.961H57.6152V308.605H51.7852ZM66.2676 300.109V305.285H65.4961V303.01H63.748V302.375H65.4961V300.109H66.2676ZM59.1094 304.592C60.3984 304.128 61.3164 302.951 61.3164 301.711V301.389H59.3535V300.744H64.0312V301.389H62.0879V301.701C62.0879 302.834 62.957 303.913 64.2266 304.348L63.8262 304.963C62.8545 304.611 62.0977 303.879 61.7217 302.985C61.3506 304.001 60.5449 304.812 59.5098 305.207L59.1094 304.592ZM60.4766 307.17C60.4717 306.149 61.5801 305.554 63.3867 305.559C65.1885 305.554 66.2969 306.149 66.2969 307.17C66.2969 308.195 65.1885 308.781 63.3867 308.791C61.5801 308.781 60.4717 308.195 60.4766 307.17ZM61.2383 307.17C61.2334 307.8 62.0537 308.181 63.3867 308.176C64.7148 308.181 65.5352 307.8 65.5352 307.17C65.5352 306.535 64.7148 306.154 63.3867 306.154C62.0537 306.154 61.2334 306.535 61.2383 307.17Z" fill="#989FA9"/>
<path d="M30 246V254H58V246M30 246V239C30 236.791 31.7909 235 34 235H54C56.2091 235 58 236.791 58 239V246M30 246H31.25C32.4926 246 33.5 244.993 33.5 243.75V243.5C33.5 242.395 34.3954 241.5 35.5 241.5V241.5C36.6046 241.5 37.5 242.395 37.5 243.5V247.5C37.5 248.881 38.6193 250 40 250V250C41.3807 250 42.5 248.881 42.5 247.5V246C42.5 244.895 43.3954 244 44.5 244V244C45.6046 244 46.5 244.895 46.5 246V246C46.5 247.105 47.3954 248 48.5 248H48.75C49.9926 248 51 246.993 51 245.75V243.5C51 242.395 51.8954 241.5 53 241.5V241.5C54.1046 241.5 55 242.395 55 243.5V243.75V243.75C55 244.993 56.0074 246 57.25 246H58" stroke="black"/>
<rect x="28" y="254" width="32" height="3" rx="1.5" stroke="black"/>
<path d="M42 230C42 228 44.0003 226 44.0003 226C44.6669 226.5 46 228 46 230C46 232 45 233 44.0003 233C43 233 42 232 42 230Z" stroke="black" stroke-linecap="round" stroke-linejoin="round"/>
<path d="M146.233 270.543V276.578H145.354V270.543H146.233ZM137.866 275.793V271.293H141.897V273.086H143.362V270.754H144.241V276.449H143.362V273.848H141.897V275.793H137.866ZM138.733 275.09H141.041V272.02H138.733V275.09ZM139.354 280.809V277.094H146.233V280.809H139.354ZM140.256 280.059H145.331V277.82H140.256V280.059ZM156.873 270.531V280.973H155.959V275.172H153.463V278.336H148.658V271.352H149.584V274.07H152.561V271.352H153.463V274.41H155.959V270.531H156.873ZM149.584 277.574H152.561V274.809H149.584V277.574ZM167.689 270.543V276.461H166.775V270.543H167.689ZM159.169 275.465C160.746 274.914 161.841 273.502 161.841 271.973V270.953H162.779V271.973C162.767 273.443 163.892 274.744 165.427 275.289L164.959 275.992C163.751 275.576 162.785 274.697 162.316 273.561C161.853 274.768 160.88 275.729 159.638 276.191L159.169 275.465ZM160.916 280.809V277.059H167.689V280.809H160.916ZM161.818 280.059H166.787V277.809H161.818V280.059ZM131.28 284.66C133.595 284.66 134.954 285.305 134.96 286.465C134.954 287.561 133.765 288.193 131.714 288.27V289.066H136.026V289.816H126.534V289.066H130.811V288.27C128.772 288.182 127.589 287.555 127.589 286.465C127.589 285.305 128.954 284.66 131.28 284.66ZM127.683 291.41V290.695H134.808V293.027H128.62V294.105H135.124V294.832H127.706V292.348H133.905V291.41H127.683ZM128.55 286.465C128.538 287.18 129.552 287.566 131.28 287.578C133.009 287.566 134.017 287.18 134.022 286.465C134.017 285.779 133.009 285.375 131.28 285.363C129.552 285.375 128.538 285.779 128.55 286.465ZM145.987 284.531V294.973H145.073V284.531H145.987ZM137.971 286.266V285.504H142.823V289.207H138.932V291.668C140.661 291.674 142.202 291.592 144.065 291.293L144.159 292.066C142.243 292.365 140.661 292.441 138.862 292.441H137.995V288.457H141.897V286.266H137.971ZM157.775 292.793V293.566H148.236V292.793H157.775ZM149.361 290.707V285.281H150.287V287.227H155.701V285.281H156.604V290.707H149.361ZM150.287 289.969H155.701V287.965H150.287V289.969ZM164.677 285.621C164.666 288.627 163.582 291.404 159.814 293.25L159.298 292.512C161.255 291.574 162.462 290.373 163.119 288.961L159.498 289.312L159.345 288.492L163.412 288.223C163.599 287.643 163.71 287.027 163.757 286.383H159.873V285.621H164.677ZM166.775 294.949V284.531H167.701V294.949H166.775ZM178.376 290.168V290.918H171.169V285.434H178.259V286.207H172.106V287.754H178.036V288.492H172.106V290.168H178.376ZM169.939 293.59V292.828H179.478V293.59H169.939Z" fill="black"/>
<path d="M122.782 302.75C122.782 303.961 123.661 305.104 124.931 305.562L124.501 306.158C123.549 305.782 122.787 305.03 122.416 304.083C122.05 305.133 121.259 305.963 120.233 306.373L119.823 305.748C121.127 305.27 122.025 304.054 122.03 302.721V301.646H122.782V302.75ZM121.396 309.605V306.881H122.167V308.961H127.206V309.605H121.396ZM124.306 303.805V303.16H126.239V301.119H127.011V307.623H126.239V303.805H124.306ZM131.415 303.004C131.42 304.083 132.289 305.069 133.573 305.455L133.202 306.061C132.206 305.748 131.435 305.084 131.054 304.229C130.673 305.167 129.877 305.885 128.856 306.227L128.466 305.621C129.76 305.221 130.658 304.181 130.663 303.004V302.809H128.7V302.193H130.663V301.08H131.435V302.193H133.378V302.809H131.415V303.004ZM129.56 307.496V306.861H135.243V309.811H134.481V307.496H129.56ZM134.481 306.412V301.109H135.243V303.434H136.552V304.088H135.243V306.412H134.481ZM141.454 301.773C141.449 302.911 143.031 303.946 144.54 304.176L144.237 304.781C142.919 304.557 141.61 303.824 141.063 302.813C140.517 303.844 139.203 304.566 137.88 304.791L137.577 304.186C139.096 303.951 140.663 302.945 140.663 301.773V301.334H141.454V301.773ZM137.089 306.168V305.533H145.038V306.168H141.503V307.945H140.741V306.168H137.089ZM138.104 309.605V307.096H138.876V308.961H144.149V309.605H138.104ZM147.167 308.346L146.405 311.002H145.683L146.22 308.346H147.167ZM158.251 301.109V309.791H157.509V305.191H156.298V309.352H155.565V301.295H156.298V304.557H157.509V301.109H158.251ZM151.132 307.457V302.125H154.452V307.457H151.132ZM151.854 306.842H153.729V302.74H151.854V306.842ZM166.61 301.119V306.236H165.839V305.758H164.081V305.25H165.839V301.119H166.61ZM159.423 304.391C161.103 304.4 163.251 304.381 165.126 304.176L165.175 304.674C164.325 304.796 163.441 304.869 162.577 304.908V306.266H161.825V304.938C161.005 304.967 160.214 304.967 159.511 304.967L159.423 304.391ZM160.097 302.594C160.097 301.788 160.946 301.285 162.255 301.285C163.549 301.285 164.403 301.788 164.413 302.594C164.403 303.404 163.549 303.888 162.255 303.893C160.946 303.888 160.097 303.404 160.097 302.594ZM160.751 307.105V306.549H166.61V308.346H161.542V309.127H166.894V309.693H160.79V307.809H165.849V307.105H160.751ZM160.819 302.594C160.814 303.053 161.381 303.365 162.255 303.365C163.119 303.365 163.686 303.053 163.69 302.594C163.686 302.13 163.119 301.817 162.255 301.822C161.381 301.817 160.814 302.13 160.819 302.594ZM173.505 302.516C173.505 303.697 174.403 304.781 175.663 305.211L175.243 305.816C174.286 305.465 173.529 304.747 173.148 303.839C172.777 304.869 172.001 305.665 170.985 306.061L170.575 305.445C171.874 304.962 172.748 303.8 172.753 302.457V301.559H173.505V302.516ZM171.728 308.189C171.732 307.198 172.821 306.617 174.608 306.617C176.391 306.617 177.47 307.198 177.47 308.189C177.47 309.2 176.391 309.771 174.608 309.771C172.821 309.771 171.732 309.2 171.728 308.189ZM172.499 308.189C172.489 308.805 173.3 309.161 174.608 309.166C175.922 309.161 176.723 308.805 176.728 308.189C176.723 307.599 175.922 307.232 174.608 307.232C173.3 307.232 172.489 307.599 172.499 308.189ZM176.63 306.393V301.109H177.392V303.375H178.7V304.02H177.392V306.393H176.63ZM186.405 301.109V309.811H185.634V301.109H186.405ZM179.569 304.811C179.574 302.965 180.492 301.788 181.786 301.783C183.075 301.788 184.008 302.965 184.003 304.811C184.008 306.661 183.075 307.833 181.786 307.828C180.492 307.833 179.574 306.661 179.569 304.811ZM180.312 304.811C180.312 306.222 180.917 307.149 181.786 307.145C182.66 307.149 183.261 306.222 183.261 304.811C183.261 303.399 182.66 302.472 181.786 302.467C180.917 302.472 180.312 303.399 180.312 304.811Z" fill="#989FA9"/>
<path d="M152 230.709H163C164.105 230.709 165 231.604 165 232.709L165.003 252C165.004 253.104 164.108 254 163.003 254H141.003C139.899 254 139.004 253.105 139.003 252L139 232.709C139 231.605 139.896 230.709 141 230.709H145M152 230.709C152 230.709 150.004 227.671 148.004 226.658C146.589 225.943 145.004 225.632 144.004 226.658C143.004 227.685 143 230.709 145 230.709M152 230.709H145M152 230.709C152 230.709 154.004 227.671 156.004 226.658C157.418 225.943 159.004 225.632 160.004 226.658C161.004 227.685 161 230.709 159 230.709" stroke="black"/>
<path d="M144 252C144 251.448 144.448 251 145 251H156C156.552 251 157 251.448 157 252V256C157 257.105 156.105 258 155 258H146C144.895 258 144 257.105 144 256V252Z" fill="white" stroke="black"/>
<path d="M145 250C145 249.448 145.448 249 146 249H155C155.552 249 156 249.448 156 250V251H145V250Z" fill="white"/>
<path d="M146 249V249C145.448 249 145 249.448 145 250V251H156V250C156 249.448 155.552 249 155 249V249M146 249C146 248.333 146.8 247.4 148 247C149.5 246.5 151 247 152 246.5C152.447 246.276 154 245 154 245C154.667 245.667 155 246.2 155 247C155 247.8 155 248.667 155 249M146 249H155" stroke="black" stroke-linejoin="round"/>
<rect x="159" y="251" width="10" height="7" rx="3" fill="white" stroke="black"/>
<rect x="162" y="243" width="4" height="8" fill="white" stroke="black"/>
<path d="M260.314 237.637V244H258.987V238.894H258.952L257.493 239.808V238.639L259.066 237.637H260.314ZM263.46 240.818C262.507 240.818 261.993 240.124 261.993 239.122C261.993 238.116 262.533 237.417 263.46 237.417C264.414 237.417 264.924 238.116 264.928 239.122C264.924 240.133 264.401 240.818 263.46 240.818ZM262.889 239.122C262.894 239.671 263.091 240.032 263.46 240.036C263.838 240.032 264.027 239.671 264.032 239.122C264.027 238.573 263.856 238.199 263.46 238.199C263.087 238.204 262.894 238.582 262.889 239.122ZM262.907 244L267.284 237.637H268.268L263.891 244H262.907ZM266.291 242.515C266.291 241.508 266.831 240.814 267.75 240.81C268.712 240.814 269.222 241.508 269.226 242.515C269.222 243.525 268.699 244.211 267.75 244.211C266.805 244.211 266.291 243.517 266.291 242.515ZM267.187 242.515C267.191 243.064 267.389 243.429 267.75 243.429C268.136 243.429 268.325 243.064 268.33 242.515C268.325 241.965 268.149 241.592 267.75 241.601C267.38 241.596 267.191 241.974 267.187 242.515Z" fill="black"/>
<path d="M247.696 273.188C247.45 272.016 246.448 271.383 245.329 271.383C243.794 271.383 242.605 272.566 242.599 274.758C242.605 276.943 243.794 278.127 245.329 278.133C246.448 278.127 247.445 277.5 247.696 276.34H248.751C248.446 278.074 247.052 279.117 245.329 279.117C243.15 279.117 241.573 277.441 241.579 274.758C241.573 272.074 243.15 270.398 245.329 270.398C247.046 270.398 248.435 271.424 248.751 273.188H247.696ZM253.954 270.516H255.02V276.574C255.014 278.203 254.065 279.117 252.583 279.117C251.176 279.117 250.157 278.314 250.157 276.996H251.2C251.206 277.717 251.786 278.18 252.583 278.18C253.456 278.18 253.954 277.623 253.954 276.574V270.516ZM268.039 274.758C268.045 277.441 266.463 279.117 264.289 279.117C262.109 279.117 260.533 277.441 260.539 274.758C260.533 272.074 262.109 270.398 264.289 270.398C266.463 270.398 268.045 272.074 268.039 274.758ZM261.558 274.758C261.564 276.943 262.754 278.127 264.289 278.133C265.824 278.127 267.013 276.943 267.019 274.758C267.013 272.566 265.824 271.383 264.289 271.383C262.754 271.383 261.564 272.566 261.558 274.758ZM276.804 270.516V279H275.796L271.202 272.391H271.12V279H270.066V270.516H271.085L275.679 277.137H275.761V270.516H276.804ZM279.159 279V270.516H284.304V271.453H280.214V274.289H284.034V275.215H280.214V278.062H284.362V279H279.159ZM244.327 291.875V292.66H234.788V291.875H239.066V289.473H235.655V288.734H237.284V285.312H235.632V284.551H243.413V285.312H241.761V288.734H243.39V289.473H239.968V291.875H244.327ZM238.198 288.734H240.859V285.312H238.198V288.734ZM254.241 283.543V291.16H253.327V283.543H254.241ZM245.885 286.824C245.88 285.324 247.057 284.275 248.616 284.27C250.175 284.275 251.341 285.324 251.346 286.824C251.341 288.342 250.175 289.396 248.616 289.391C247.057 289.396 245.88 288.342 245.885 286.824ZM246.788 286.824C246.776 287.861 247.561 288.582 248.616 288.582C249.653 288.582 250.444 287.861 250.444 286.824C250.444 285.805 249.653 285.078 248.616 285.078C247.561 285.078 246.776 285.805 246.788 286.824ZM247.514 293.727V290.387H248.428V292.953H254.569V293.727H247.514ZM264.928 289.168V289.918H257.721V284.434H264.811V285.207H258.658V286.754H264.588V287.492H258.658V289.168H264.928ZM256.49 292.59V291.828H266.03V292.59H256.49ZM274.454 285.453C274.454 286.807 275.497 288.102 277.021 288.629L276.54 289.355C275.368 288.934 274.46 288.061 274.015 286.988C273.564 288.184 272.597 289.145 271.361 289.602L270.88 288.875C272.415 288.324 273.529 286.936 273.529 285.465V285.008H271.173V284.258H276.786V285.008H274.454V285.453ZM272.462 291.09V290.328H279.47V293.949H278.544V291.09H272.462ZM276.458 287.035V286.262H278.544V283.531H279.47V289.777H278.544V287.035H276.458ZM290.286 283.543V289.262H289.372V283.543H290.286ZM282.212 284.809V284.047H286.97V286.859H283.126V288.277C284.989 288.266 286.378 288.225 288.071 287.949L288.177 288.711C286.425 288.986 285.001 289.039 283.079 289.051H282.235V286.133H286.055V284.809H282.212ZM283.513 293.809V289.789H284.438V291.031H289.372V289.789H290.286V293.809H283.513ZM284.438 293.059H289.372V291.77H284.438V293.059Z" fill="black"/>
<circle cx="262.5" cy="241.5" r="15" stroke="black"/>
</svg>
