<svg width="76" height="16" viewBox="0 0 76 16" fill="none" xmlns="http://www.w3.org/2000/svg">
<path d="M35.6836 2.12646V7.11497" stroke="#EC635A" stroke-width="1.53783"/>
<path d="M7.87109 8.88501V13.8735" stroke="#EC635A" stroke-width="1.53783"/>
<path d="M1 2.12646V7.11497" stroke="#EC635A" stroke-width="1.53783"/>
<path d="M12.668 2.12646V7.11497" stroke="#F0F1F5" stroke-width="1.53783"/>
<path d="M29.2891 2.12646V7.11497" stroke="#F0F1F5" stroke-width="1.53783"/>
<path d="M12.668 8.88501V13.8735" stroke="#F0F1F5" stroke-width="1.53783"/>
<path d="M7.87109 2.12646V7.11497" stroke="#EC635A" stroke-width="1.53783"/>
<path d="M19.0586 2.12646V7.11497" stroke="#EC635A" stroke-width="1.53783"/>
<path d="M47.1914 2.12646V7.11497" stroke="#EC635A" stroke-width="1.53783"/>
<path d="M63.4922 2.12646V7.11497" stroke="#EC635A" stroke-width="1.53783"/>
<path d="M75 2.12646V7.11497" stroke="#EC635A" stroke-width="1.53783"/>
<path d="M68.6055 2.12646V7.11497" stroke="#EC635A" stroke-width="1.53783"/>
<path d="M40.4766 2.12646V7.11497" stroke="#EC635A" stroke-width="1.53783"/>
<path d="M56.7773 2.12646V7.11497" stroke="#F0F1F5" stroke-width="1.53783"/>
<path d="M19.0586 8.88501V13.8735" stroke="#EC635A" stroke-width="1.53783"/>
<path d="M35.6836 8.88501V13.8735" stroke="#F0F1F5" stroke-width="1.53783"/>
<path d="M63.4922 8.88501V13.8735" stroke="#F0F1F5" stroke-width="1.53783"/>
<path d="M47.1914 8.88501V13.8735" stroke="#EC635A" stroke-width="1.53783"/>
<path d="M28.9688 8.88501V13.8735" stroke="#EC635A" stroke-width="1.53783"/>
<path d="M40.4766 8.88501V13.8735" stroke="#EC635A" stroke-width="1.53783"/>
<path d="M56.7773 8.88501V13.8735" stroke="#EC635A" stroke-width="1.53783"/>
<path d="M68.6055 8.88501V13.8735" stroke="#EC635A" stroke-width="1.53783"/>
<path d="M75 8.88501V13.8735" stroke="#EC635A" stroke-width="1.53783"/>
<path d="M1 8.88501V13.8735" stroke="#EC635A" stroke-width="1.53783"/>
<path d="M2.11719 1H6.9121" stroke="#EC635A" stroke-width="1.53783"/>
<path d="M29.9297 1.16113H34.7246" stroke="#EC635A" stroke-width="1.53783"/>
<path d="M29.9297 7.91968H34.7246" stroke="#EC635A" stroke-width="1.53783"/>
<path d="M41.4375 1.16113H46.2324" stroke="#EC635A" stroke-width="1.53783"/>
<path d="M57.7383 1.16113H62.5332" stroke="#EC635A" stroke-width="1.53783"/>
<path d="M69.2461 1.16113H74.041" stroke="#EC635A" stroke-width="1.53783"/>
<path d="M69.2461 7.91968H74.041" stroke="#EC635A" stroke-width="1.53783"/>
<path d="M69.2461 15H74.041" stroke="#EC635A" stroke-width="1.53783"/>
<path d="M41.4375 15H46.2324" stroke="#EC635A" stroke-width="1.53783"/>
<path d="M57.7383 15H62.5332" stroke="#EC635A" stroke-width="1.53783"/>
<path d="M41.4375 7.91968H46.2324" stroke="#F0F1F5" stroke-width="1.53783"/>
<path d="M57.7383 7.91968H62.5332" stroke="#EC635A" stroke-width="1.53783"/>
<path d="M29.9297 15H34.7246" stroke="#EC635A" stroke-width="1.53783"/>
<path d="M13.625 1H18.4199" stroke="#F0F1F5" stroke-width="1.53783"/>
<path d="M13.625 7.91968H18.4199" stroke="#F0F1F5" stroke-width="1.53783"/>
<path d="M2.11719 7.91968H6.9121" stroke="#F0F1F5" stroke-width="1.53783"/>
<path d="M13.625 15H18.4199" stroke="#F0F1F5" stroke-width="1.53783"/>
<path d="M2.11719 15H6.9121" stroke="#EC635A" stroke-width="1.53783"/>
<rect x="51.0273" y="4.05737" width="1.91797" height="1.93103" fill="#EC635A"/>
<rect x="51.0273" y="9.85034" width="1.91797" height="1.93103" fill="#EC635A"/>
<rect x="22.8945" y="4.05737" width="1.91797" height="1.93103" fill="#EC635A"/>
<rect x="22.8945" y="9.85034" width="1.91797" height="1.93103" fill="#EC635A"/>
</svg>
